<svg id="Capa_1" data-name="Capa 1" xmlns="http://www.w3.org/2000/svg" viewBox="0 0 383.26 381.77"><path d="M0,354.11V30.69A13.24,13.24,0,0,0,.63,29C4.74,11.73,17.41,1.51,34.92,1.51H348.47c20.15,0,34.76,14.53,34.76,34.65q.06,156.21,0,312.42a38.37,38.37,0,0,1-1.19,9.6c-4.06,15.5-17.24,25.07-34.29,25.07H97.41c-21.2,0-42.41.07-63.61,0A33.72,33.72,0,0,1,1.71,360.11C1.05,358.11.56,356.11,0,354.11ZM22.46,114V347.05c0,9.57,4.12,13.74,13.56,13.74H347.34c9.23,0,13.45-4.23,13.45-13.48V113.93ZM360.8,91.2V37c0-8.72-4.37-13-13.14-13h-312c-8.79,0-13.14,4.31-13.15,13V87.51c0,1.2.11,2.4.17,3.71Z" transform="translate(0 -1.51)"/><path d="M158.59,327.11c-8.73,0-14.07-8-10.83-15.86,4.86-11.73,10-23.36,15-35q25.68-59.9,51.41-119.77a18.9,18.9,0,0,1,4.3-6.4,10.62,10.62,0,0,1,13.48-.35,11.12,11.12,0,0,1,3.59,13.69c-4.91,11.72-10,23.37-15,35q-25.66,59.9-51.31,119.81C167,323.34,163.82,326.78,158.59,327.11Z" transform="translate(0 -1.51)"/><path d="M86.15,237.31c15,12,29.48,23.62,44,35.18,3.8,3,6,6.73,5.1,11.66-1.52,8.53-11.19,12-18.29,6.55-8.47-6.56-16.76-13.36-25.12-20.06C81.91,262.7,72,254.79,62.07,246.81c-7-5.61-7-13.4-.11-19q27.1-21.78,54.29-43.45c5.77-4.62,12.48-4.23,16.64.84s3.24,12-2.64,16.73Q110.15,218.12,90,234.2C88.83,235.11,87.7,236,86.15,237.31Z" transform="translate(0 -1.51)"/><path d="M297.08,237.24l-29.82-23.88c-4.86-3.9-9.76-7.76-14.59-11.69-5.59-4.56-6.5-11.38-2.28-16.48,4.1-4.95,10.78-5.43,16.36-1q27.35,21.78,54.6,43.66c6.76,5.43,6.79,13.36.07,18.77q-27.24,21.92-54.61,43.67c-5.72,4.56-12.56,4-16.61-1.16s-3-11.84,2.7-16.44q20.27-16.26,40.57-32.47C294.53,239.39,295.57,238.5,297.08,237.24Z" transform="translate(0 -1.51)"/><path d="M292.48,68.87H260.35c-7.51,0-12.63-4.66-12.57-11.33.06-6.51,5.13-11.11,12.4-11.11h65c7.28,0,12.34,4.6,12.38,11.13S332.5,68.85,325,68.87Z" transform="translate(0 -1.51)"/><path d="M57,68.85A11.22,11.22,0,1,1,68.07,57.48v.11A11.35,11.35,0,0,1,57,68.85Z" transform="translate(0 -1.51)"/><path d="M101.94,46.42A11.22,11.22,0,1,1,90.59,57.51v-.09A11.33,11.33,0,0,1,101.94,46.42Z" transform="translate(0 -1.51)"/><path d="M157.93,57.66a11.22,11.22,0,1,1-11.2-11.24h.1A11.34,11.34,0,0,1,157.93,57.66Z" transform="translate(0 -1.51)"/></svg>