<svg id="Capa_1" data-name="Capa 1" xmlns="http://www.w3.org/2000/svg" viewBox="0 0 907 504"><defs><style>.cls-1{fill:#232323;}.cls-2{fill:#e1e1e1;}.cls-3{fill:#5a5a5a;}.cls-4{fill:#696969;}.cls-5{fill:#d2d2d2;}.cls-6{fill:#242424;}.cls-7{fill:#3e3e3e;}.cls-8{fill:#262626;}.cls-9{fill:#cdcdcd;}.cls-10{fill:#252525;}.cls-11{fill:#e2e2e2;}.cls-12{fill:#2e2e2e;}.cls-13{fill:#e3e3e3;}.cls-14{fill:#a1a1a1;}.cls-15{fill:#4f4f4f;}.cls-16{fill:#ababab;}.cls-17{fill:#b9b9b9;}.cls-18{fill:#2f2f2f;}.cls-19{fill:#868686;}.cls-20{fill:#a3a3a3;}.cls-21{fill:#fdfdfd;}.cls-22{fill:#b8b8b8;}.cls-23{fill:#898989;}.cls-24{fill:#e9e9e9;}.cls-25{fill:#e7e7e7;}.cls-26{fill:#404040;}.cls-27{fill:#a9a9a9;}.cls-28{fill:#d9d9d9;}.cls-29{fill:#fefefe;}.cls-30{fill:#dadada;}.cls-31{fill:#ddd;}.cls-32{fill:#8b8b8b;}.cls-33{fill:#575757;}.cls-34{fill:#e8e8e8;}.cls-35{fill:#fbfbfb;}.cls-36{fill:#888;}.cls-37{fill:#e0e0e0;}.cls-38{fill:#949494;}.cls-39{fill:#505050;}.cls-40{fill:#6b6b6b;}.cls-41{fill:#acacac;}.cls-42{fill:#282828;}.cls-43{fill:#f2f2f2;}.cls-44{fill:#b6b6b6;}.cls-45{fill:#b7b7b7;}.cls-46{fill:#bababa;}.cls-47{fill:#bbb;}</style></defs><path class="cls-1" d="M-33,625.39a14.79,14.79,0,0,0,.7-1.77c2.26-8.12,8.58-13,17.06-13q42.66,0,85.32,0c2.5,0,5,.07,7.49,0a13.62,13.62,0,0,0,2.79-.76c2.64-.83,3.07.93,3.09,2.82.08,5.41,0,10.82.06,16.23,0,2.74,0,5.48,0,8.23,0,3.16,1.07,4.2,4.2,4.25,4.08.06,8.15,0,12.23,0l.54,0,5.47,0,.56,0,3.55,0,2.42,0q14.36,0,28.7,0c4,0,4.81-.84,4.81-4.85q0-27.31,0-54.64c0-5.61,0-11.21,0-16.82,0-1.78-.37-3.26-2-4.18l-9.41-.44-1.69,0H116.6l-4.17,0-2.32,0-4.22,0h-5.31c-4.16,0-8.33-.1-12.49,0-3.38.1-4.58,1.46-4.59,4.83q0,9.12,0,18.23c0,2-.58,3.46-3,3.36a7.52,7.52,0,0,1-1.08-2.56q-.14-10.23,0-20.48a7.07,7.07,0,0,1,6.1-7.11,16.49,16.49,0,0,1,3-.24H141c6.57,0,9.27,2.69,9.29,9.22,0,4.08.06,8.16,0,12.24,0,1.56.53,2.13,2.06,2.43a21.75,21.75,0,0,1,18,21.24c.1,10.81-7,19.61-17.8,21.88-1.74.37-2.28,1-2.24,2.78.11,5.13,0,10.26,0,15.62h2.33q38.08,0,76.18,0c1.68,0,3.21,0,3.75,2-.52,1.6-1.65,2.06-3.26,2-4.9-.08-9.8,0-14.7,0l-43.08.09h-36q-25.25,0-50.48-.08c-7.33,0-14.66.05-22,.09-24.9,0-49.8-.14-74.7,0-4.55,0-8,2.55-9.76,6.91a10.45,10.45,0,0,0,2,12L-13,668.4a34.94,34.94,0,0,0,3.93.42q52,.06,104,.06H435.08l390.44,0q15.87,0,31.74,0c3.07,0,6-.6,8.26-2.89a10.92,10.92,0,0,0,3-13.58c-2.41-4.82-6.47-6.5-11.67-6.5q-277,0-554,0c-.92,0-1.83,0-2.75,0-1.74.05-2.67-.72-2.66-2.51,1.11-.49,2.23-1.42,3.35-1.43q22.13-.13,44.25,0a3,3,0,0,0,3.38-2.32c5.18-13.25,10.48-26.45,15.74-39.67.3-.75.57-1.52,1-2.64H204.92c-11.48,0-19.17-7.64-19.17-19q0-65,0-130c0-1.53-.43-3.3,1.7-3.93l2.11,1.53q0,33.8,0,67.59a13.69,13.69,0,0,0,.44,2.42h0q0,8.39,0,16.75c0,4.71,0,4.71,4.81,4.71q229.49,0,459,0c7.72,0,6.73,1.21,6.75-7q0-47.85,0-95.69a8.94,8.94,0,0,1,.1-3,13.45,13.45,0,0,1,1.92-2.87c1.85.28,2.05,1.57,2,3.13,0,6.42,0,12.83,0,19.24q0,44,.08,88,0,20.12-.08,40.24a17.94,17.94,0,0,1-17.79,17.86c-13.41.06-26.82,0-40.24,0H491.84c1.69,4.3,3.22,8.23,4.78,12.16,4.09,10.27,8.23,20.53,12.27,30.83.48,1.23,1.07,1.76,2.34,1.6a12.5,12.5,0,0,1,1.5,0H721A28,28,0,0,1,726,627.5c.9-1.26,1.87-2.11,3.52-1.61,1.21,1.25,1,2.41,0,3.74a20.15,20.15,0,0,0-4.23,12.16H768.5c-.78-7.52-3.72-13.38-10.06-17.31-6.67-4.39-13.67-4.67-20.86-1.47-1.6.71-3,1.17-4-.67.73-1,1.24-2.38,2.21-2.87,14.71-7.51,33.44,2,36.26,18.28.22,1.3.4,2.6.62,4h9c.06-1.13.15-2.18.15-3.22V571c0-4,0-4,4.42-4.45-.83-7.77-1.67-15.56-2.52-23.52l-3.29.37c.47,4.2.93,8.3,1.4,12.41.21,1.9.58,3.8.61,5.7,0,.72-.75,1.44-1.16,2.16-.58-.56-1.59-1.06-1.68-1.69-.87-6.43-1.61-12.89-2.37-19.34-.18-1.52.73-2.07,2.07-2.22s2.45-.31,4-.5c-.19-2-.36-3.78-.54-5.57-.14-1.42-.15-2.83,1.69-3s2.15,1.1,2.31,2.56c1.09,10.1,2.28,20.19,3.28,30.29.2,2,.78,2.74,2.84,2.64,3.3-.16,6.62,0,10.07,0,.9-7.31,1.78-14.31,2.63-21.32.56-4.55,1.08-9.1,1.64-13.64.17-1.4.52-2.75,2.39-2.49s1.74,1.68,1.58,3l-3.81,31.49c-.1.82-.19,1.64-.3,2.66.76.09,1.38.23,2,.24,4.67,0,9.33,0,14,0,1.5,0,2.27-.34,2.46-2,1.24-10.66,2.59-21.32,3.78-32,.08-.69-.71-1.71-1.37-2.23a9.16,9.16,0,0,1-3.66-9.71,8.81,8.81,0,0,1,7.42-7.18,9.41,9.41,0,0,1,10.8,6.72c1.26,5-1.44,10.19-6.37,11.36-2.38.57-2.87,1.69-3.1,3.85-1,8.85-2.12,17.69-3.19,26.53-.17,1.39-.27,2.79-.43,4.61h11.6c6.22,0,6-.52,6,5.92q0,33,0,66v3.17H857.4c8.51,0,14.16,4.47,16.13,12.71a3.06,3.06,0,0,0,.47.79v4.5c-.35.8-.72,1.59-1,2.4-2.22,5.68-6.17,9.28-12.33,10.2-.83,0-1.66-.1-2.49-.1h-107q-380.41,0-760.82,0a22.4,22.4,0,0,0-3.34.48h-1a20.46,20.46,0,0,0-1.95-.93,15.22,15.22,0,0,1-9.14-20.84c1.14-2.47,3.13-4.55,4.8-6.91-6.6-2.07-10.72-6.67-12.33-13.54,0-.12-.25-.19-.38-.28Zm11-9-3.09,2.44L-27,621.4l-1.2,2.46c5.84,0,11.2,0,16.56,0a15.6,15.6,0,0,1,3,.64L-9,626.34c-.9.08-1.8.23-2.71.24-5,0-9.92,0-14.88,0-1.74,0-2.56.48-1.91,2.32-.37,2.53,1.45,2.07,2.88,2.08q36.95,0,73.87,0a30.74,30.74,0,0,1,3.68.43l-.07,2.4c-1.16,0-2.32.15-3.48.15H-27.38l2.7,3,3.21,2.32c2.33.52,4.65,1.46,7,1.47,30.5.1,61,.07,91.49.07a4.06,4.06,0,0,0,1.72-.08c.38-.19.49-.89.71-1.36,0-7.38,0-14.76,0-22.14a16.13,16.13,0,0,0-.39-2.36,12.56,12.56,0,0,0-1.71-.24c-31,0-61.95,0-92.92.07C-17.74,614.72-19.86,615.81-22,616.41Zm852.51,25.41,2,0,3.54,0,2,0c4.94.31,4.94.31,4.94-4.46V575.41c0-4.86,0-4.86-4.93-4.47l-2,0-3.51,0-2,0H824l-28,0c-2.16,0-4.32-.09-6.48-.1-3.85,0-3.86,0-3.86,3.75V625c0,4.91,0,9.82,0,14.72,0,1.53.42,2.31,2.13,2.23,2.74-.12,5.48-.08,8.23-.11l28,0,3.44,0ZM649.08,592.94c6.18-1.1,11.23-6.37,11.43-12.37.19-5.55,0-11.11,0-16.67s0-11,0-16.5a6.34,6.34,0,0,0,.07-.75c0-6.39.64-5.31-5.23-5.31q-230.18,0-460.33,0a20.82,20.82,0,0,1-2.5,0c-2.1-.23-2.72.69-2.71,2.73,0,11.49-.1,23-.14,34.48A18.9,18.9,0,0,0,190,581a13.76,13.76,0,0,0,13.22,12.28c14.94.17,29.88,0,44.82,0,1.25,0,2.5.09,3.75.09H548.82l20,0,52.72-.05q12.71,0,25.4.05A11,11,0,0,0,649.08,592.94Zm-159.57,9.95c-1.61-5.57-1.61-5.57-7.36-5.57H374.85c-5.75,0-5.75,0-7.36,5.57a6,6,0,0,0-.49.85q-7.26,18.19-14.5,36.41a8.63,8.63,0,0,0-.33,1.56h7.06c1.36-3.66,2.5-7,3.89-10.31.36-.84,1.66-2,2.27-1.88,1.7.37.93,1.78.54,2.83-1.12,3.1-2.29,6.17-3.49,9.38h142.7c-1.42-3.56-2.73-6.86-4.06-10.16Q495.31,617.23,489.51,602.89ZM167,602c.72-8.09-5.36-15.74-12.9-18.13-1-.3-3-.19-3.11.16a13.39,13.39,0,0,0-.54,5.11c0,.59,1.37,1.19,2.2,1.56,4.31,1.91,6.94,5,7.35,9.82.46,5.34-1.32,9.76-6.27,11.93-3,1.29-3.39,3-3.31,5.74.07,2.15.81,2.56,2.75,2C161.94,617.76,167.48,610.07,167,602Zm672.51-79a6.37,6.37,0,0,0-6.18-6.55A6.48,6.48,0,0,0,827,523a6.25,6.25,0,1,0,12.5.09ZM150.43,610.32a8.21,8.21,0,0,0,6.82-8.12,8.47,8.47,0,0,0-6.82-8.7Z" transform="translate(33 -168.89)"/><path class="cls-2" d="M477.5,168.89c0,6-.07,12,0,18,0,2.27-.77,3.28-3.05,3a5.08,5.08,0,0,1-1.24,0c-1-.4-2-.91-3.06-1.37.86-.55,1.78-1,2.58-1.66.63-.5,1.59-1.15,1.61-1.76.16-3.74.1-7.49.08-11.24,0-2-1.42-1.94-2.81-1.94H452.91c-7.32,0-14.65,0-22,0-2.11,0-3.06.66-3,2.87.12,3.08.11,6.17,0,9.24-.08,2.15.73,3,2.9,2.94,7.08-.09,14.16,0,21.24,0a6.6,6.6,0,0,1,2.23.08,8.36,8.36,0,0,1,2,1.43c-.57.49-1.09,1.32-1.71,1.4a2.11,2.11,0,0,0-2.12,2.48c0,3.42,0,6.83,0,10.25,0,1.7.75,2.4,2.42,2.37a46.37,46.37,0,0,1,6.24.12c.76.09,1.41,1.07,2.11,1.64a7.81,7.81,0,0,1-2,1.54,8.46,8.46,0,0,1-2.72.17c-9.08,0-18.16,0-27.24,0-3.11,0-3.27.17-3.29,3.23s0,6,0,9c0,1.56.67,2.3,2.25,2.27A40.67,40.67,0,0,1,436,223c.85.11,1.6,1,2.4,1.53-.7.58-1.36,1.62-2.09,1.67-3.23.19-6.49.17-9.73.09-1.75,0-2.06-1.35-2.06-2.83,0-3.75,0-7.5,0-11.25s0-3.81-3.71-3.81c-6.08,0-12.16-.07-18.24,0-2.22,0-3.15-.67-3.09-3,.12-5.24.09-10.49,0-15.74,0-2,.72-2.82,2.78-2.8,6.41.08,12.82,0,19.24.06,2.27,0,3.11-.75,3.05-3-.12-5,0-10,0-15Zm-51.74,36h0c6.83,0,13.66,0,20.48,0,2.05,0,2.85-.74,2.79-2.78-.1-3.25-.06-6.5,0-9.74,0-1.62-.54-2.49-2.3-2.49q-21,0-41.95,0c-1.58,0-2.27.7-2.26,2.27,0,3.24.11,6.49,0,9.74-.1,2.3.81,3.05,3.07,3C412.28,204.83,419,204.89,425.76,204.89Z" transform="translate(33 -168.89)"/><path class="cls-3" d="M-13,672.89a22.4,22.4,0,0,1,3.34-.48q380.4,0,760.82,0h107c.83,0,1.66.07,2.49.1a1.11,1.11,0,0,1-.13.4Z" transform="translate(33 -168.89)"/><path class="cls-4" d="M189.56,445.89l-2.11-1.53c0-2.81,0-5.61,0-8.42,3.19-.59,2.46-3.18,2.46-5.18q.08-55.85,0-111.71a6.2,6.2,0,0,0-.2-2.71,12.37,12.37,0,0,0-2.28-2.49v-8.91c2.36-.23,2.4-2.12,2.41-3.73.06-9.91,0-19.83,0-29.74,0-1.56,0-3.12,0-4.67l.44,2.27c4.37-5.69,10-7.05,16.42-6.77s12.81.07,19.21.08c1.06.5,2.11,1.43,3.17,1.44q22.43.15,44.83,0c1,0,1.95-.89,2.93-1.37l7.07-.07c2,2.09,10.88,2.23,12.92.2a2.43,2.43,0,0,0,.14-.2l77,0c15.58,0,31.15,0,46.72,0a4.21,4.21,0,0,1,4.05,2.12,6.64,6.64,0,0,0,4.29,2.33,70.53,70.53,0,0,0,8.73.11h34c2.55,0,4.77-.4,5.83-3.25a3,3,0,0,1,2.37-1.22q32.35-.1,64.7,0a4.14,4.14,0,0,1,2.88,1.74c1.07,1.59,2.24,2.68,4.19,2.68,6.91,0,13.83.11,20.73-.09a4.87,4.87,0,0,0,3.62-2.11c1-2.09,2.46-2.33,4.43-2.33,21.48,0,43,.08,64.45,0a16.07,16.07,0,0,1,11.19,4.14c1.7,1.52,2.92,3.59,4.35,5.42q0,22,0,44c0,1.82.07,3.53,1.94,4.5q.06,4.5.1,9c-.67,1.11-1.91,2.21-1.92,3.32q-.24,15.16,0,30.34c0,1.14,1.23,2.27,1.88,3.4,0,2.65,0,5.3,0,7.94-.67,1.11-1.87,2.19-1.92,3.32-.21,5-.21,9.95,0,14.91.05,1.14,1.23,2.23,1.9,3.35q0,4.95.05,9.9c-.7,1-1.86,1.88-2,2.92-.3,2.44-.05,4.93-.13,7.4a3,3,0,0,0,2,3.28l0,9.43a13.45,13.45,0,0,0-1.92,2.87,8.94,8.94,0,0,0-.1,3q0,47.83,0,95.69c-7.75,0-15.5,0-23.24,0-1.56,0-2.8-.18-3.85-1.67-1.44-2-3.77-1.84-5.11.24-1.13,1.75-1.91,1.82-3-.08a2.54,2.54,0,0,0-4.48-.31c-1.77,2.35-7.08,2.66-9.1.48-1.29-1.39-2-1.1-3.4.19-1,1-3.13,1-4.75,1-.53,0-1-1.34-1.61-2s-1.36-2.1-2-2.06a3.71,3.71,0,0,0-2.58,1.77c-1.34,2.59-3.11,2.78-5.06.5-.4-.46-2.28-.42-2.3-.33-.58,2.4-2.47,1.82-4,1.81q-24.36-.23-48.72-.49-20.1-.23-40.21-.49-18.36-.24-36.72-.52c-8-.12-16-.31-24-.48q-23-.49-45.93-1c-12.31-.3-24.62-.61-36.93-1-14.89-.46-29.77-1-44.65-1.5q-15-.51-29.94-1c-3.32-.13-6.64-.35-10-.56-10.13-.63-20.25-1.22-30.37-1.93-7.46-.52-14.93-1-22.37-1.82-8.77-.91-17.51-2.08-26.26-3.14h0q0-33.67,0-67.34A16.49,16.49,0,0,0,189.56,445.89Zm450.45-12q0-32.25,0-64.49c2.86-.43,3.49-1.09,3.49-4.07q0-23.67,0-47.33c0-3-.43-3.37-3.45-3.62q0-16.62-.08-33.24c0-3.44-.34-3.75-3.67-3.78H216c-.83,0-1.67,0-2.49,0-2.13-.15-3,.77-3,2.93.07,5.66,0,11.33,0,17q0,20.12,0,40.24c0,1.36-.36,3,1.58,3.47l0,11.77c-1.66.21-2.13,1.27-2.13,2.8q0,10.57,0,21.14c0,1.86.71,2.82,2.6,2.79l0,7.86c-2.24.08-2.06,1.71-2.06,3.22q0,16.89-.05,33.8c-3.45.16-3.93.55-3.94,3.66q0,23.7,0,47.42c0,3.31.58,3.82,4,4l0,34.24c0,3.55.18,3.74,3.63,3.74H636.26c3.37,0,3.69-.32,3.7-3.74q0-12.37.07-24.74c2.4.15,3.49-.91,3.48-3.37q0-24,0-47.89C643.51,435.23,642.59,433.82,640,433.88Zm-48.53,89.88c1,.67,1.64,1.46,2.16,1.38s1.09-.94,1.63-1.46c-.59-.54-1.12-1.36-1.81-1.53C593.06,522.05,592.4,523,591.48,523.76Zm-8.08,4c-1-.77-1.57-1.61-2.1-1.57a2.28,2.28,0,0,0-1.48,1.47c-.09.34.8,1.35,1.27,1.37S582.33,528.41,583.4,527.78Z" transform="translate(33 -168.89)"/><path class="cls-5" d="M-21.44,652.88c1.8-4.36,5.21-6.89,9.76-6.91,24.9-.12,49.8,0,74.7,0-1,4,.17,5.88,3.87,5.88q32.42,0,64.83,0c4,0,5.26-2.09,3.77-5.89H149c-1.17,4.37,0,5.89,4.49,5.91H167c4.52,0,5.65-1.52,4.49-5.91l43.08-.09c4.9,0,9.8,0,14.7,0,1.61,0,2.74-.44,3.26-2,3.58,0,7.15,0,10.72,0a17.83,17.83,0,0,0,2.67-.48c0,1.77.89,2.54,2.63,2.53,4.32,0,8.64.11,12.94-.1,1-.06,2-1.25,3-1.91H273c.57,2.4,2.55,2.25,4.19,2,2.51-.47,5.8,1.77,7.44-2l12.82-.49c0,1.79.92,2.56,2.66,2.51.92,0,1.83,0,2.75,0q277,0,554,0c5.2,0,9.26,1.68,11.67,6.5a14.84,14.84,0,0,1-2.11,2.69,13.81,13.81,0,0,1-9.11,2.84H678.56c-.41,0-.91.14-1.23,0a26.89,26.89,0,0,1-2.39-1.6c-1.14-.79-2.25-2.21-3.42-2.26-5.41-.24-10.83-.19-16.24,0-1.09,0-2.83.74-3.1,1.53-.83,2.47-2.53,2.48-4.53,2.41s-4,.11-6-.08a3.27,3.27,0,0,1-2.33-1.34c-1.06-2.15-2.71-2.65-4.9-2.64-8.42.07-16.84,0-25.25,0-12.92,0-25.83,0-38.75.06-1.36,0-3.57.48-3.93,1.34-1.23,2.9-3.4,2.63-5.74,2.63H138.29q-74.13,0-148.24,0A14.32,14.32,0,0,1-21.44,652.88Z" transform="translate(33 -168.89)"/><path class="cls-6" d="M189.9,266.8c0,1.55,0,3.11,0,4.67,0,9.91,0,19.83,0,29.74,0,1.61,0,3.5-2.41,3.73-.57-.89-1.61-1.77-1.62-2.66-.11-11.67-.28-23.34,0-35,.24-9.75,8.64-17.55,18.49-17.81h440.5c9.77,0,17.41,5.92,19.43,15.08a16.14,16.14,0,0,1,.33,3.47c0,16.33,0,32.66,0,49,0,1.7-.32,2.94-2.15,3.34-1.87-1-1.94-2.68-1.94-4.5q0-22,0-44c.21-3.6.25-7.17-1.66-10.45-3.31-5.69-8.36-8-14.79-8q-218.68,0-437.35,0c-.75,0-1.5,0-2.25,0A15.09,15.09,0,0,0,189.9,266.8Z" transform="translate(33 -168.89)"/><path class="cls-7" d="M100.49,641.39l-.54,0c0-2.4-.1-4.81,0-7.2.12-2.2-.83-3-2.93-2.83a30.58,30.58,0,0,1-13.54-2.49c0-5.41,0-10.82-.06-16.23,0-1.89-.45-3.65-3.09-2.82l.26-6c1.66,0,2.77-.63,2.82-2.39.06-2.48.1-5,0-7.44-.1-1.78-1.07-2.75-3-2.18,0-1.66.11-3.32.16-5,2.37.1,3-1.31,3-3.36q0-9.1,0-18.23c0-3.37,1.21-4.73,4.59-4.83,4.16-.12,8.33,0,12.49,0a24.49,24.49,0,0,0-.33,2.94q0,32.79,0,65.58C100.25,633.1,100.41,637.25,100.49,641.39Zm-6.51-60h0c0-2.74,0-5.49,0-8.23,0-2.43-1.47-4.1-3.41-4.11s-3,1.41-3.07,4q-.06,8.48,0,17c0,2.47,1.26,3.88,3.3,3.76,2.28-.13,3.16-1.6,3.18-3.7C94,587.19,94,584.28,94,581.37Z" transform="translate(33 -168.89)"/><path class="cls-2" d="M95.3,320.41c7.83,0,15.66,0,23.49,0,2.38,0,3.28.86,3.23,3.23-.11,5,0,10-.11,15,0,1-.81,2.91-1.41,3a13,13,0,0,1-5.76-.52c-1.17-.41-.46-2.37,1.23-2.5,2.35-.19,2.61-1.49,2.56-3.37q-.12-4.37,0-8.75c0-1.77-.64-2.57-2.49-2.57q-20.75.06-41.49,0c-1.79,0-2.6.67-2.56,2.5.07,3.08.09,6.17,0,9.25-.06,2,.73,2.82,2.78,2.8,6.92-.07,13.83,0,20.75,0a7,7,0,0,1,2.47.09,11.24,11.24,0,0,1,2.36,1.76,23.72,23.72,0,0,0-2.06,1.66c-.66.67-1.64,1.45-1.68,2.23-.19,3.32-.06,6.66-.09,10,0,1.57.68,2.28,2.26,2.27a36.13,36.13,0,0,1,6,.2c.93.14,1.72,1.17,2.58,1.8-.91.49-1.82,1.41-2.73,1.42-9.67.1-19.33.06-29,.07-3.54,0-3.59.06-3.59,3.68,0,2.84.07,5.67,0,8.5-.07,2,.66,2.93,2.75,2.83a42.76,42.76,0,0,1,6,.06c.71.07,1.34.85,2,1.31-.57.51-1.13,1.44-1.73,1.46-3.65.15-7.33.19-11,0-.54,0-1.39-1.52-1.42-2.36-.15-4-.07-8-.08-12,0-3.36-.11-3.46-3.56-3.46-6.09,0-12.17-.08-18.25,0-2.32,0-3.31-.65-3.24-3.12.14-5.16.11-10.33,0-15.49,0-2.16.73-3,2.91-2.94,6.33.09,12.66,0,19,.07,2.4.05,3.27-.8,3.18-3.19-.14-3.82,0-7.66,0-11.49,0-3,.32-3.34,3.28-3.35C79.63,320.39,87.47,320.41,95.3,320.41Zm-25.81,36h0c6.91,0,13.83,0,20.74,0,2,0,2.87-.7,2.81-2.77-.1-3.16-.06-6.33,0-9.49,0-1.57-.68-2.27-2.26-2.27q-21,0-42,0c-1.77,0-2.31.9-2.29,2.5,0,3,.11,6,0,9-.1,2.27.74,3.11,3,3.07C56.17,356.34,62.83,356.4,69.49,356.4Z" transform="translate(33 -168.89)"/><path class="cls-2" d="M32,511.4H55c3,0,3.47.44,3.49,3.47,0,4.92.09,9.83-.06,14.74,0,1.06-.81,2.9-1.42,3a13,13,0,0,1-5.75-.52c-1.17-.42-.45-2.37,1.23-2.5,2.36-.19,2.6-1.5,2.55-3.37-.07-2.92-.06-5.83,0-8.75,0-1.77-.63-2.58-2.48-2.58q-20.74.06-41.48,0c-1.76,0-2.61.63-2.58,2.48.07,3.17.08,6.33,0,9.5-.06,2,.88,2.59,2.74,2.57,7.16,0,14.32,0,21.48,0a6.86,6.86,0,0,1,2.7.26,2.7,2.7,0,0,1,1.33,1.8c.05.36-.9,1.26-1.44,1.29-2.11.12-2.34,1.39-2.31,3.07.05,2.83.13,5.67,0,8.5-.13,2.46.92,3.24,3.24,3.11a22.23,22.23,0,0,1,5.47.24c.81.16,1.43,1.24,2.14,1.91-.8.43-1.6,1.22-2.41,1.23-9.66.09-19.33.06-29,.07-3.91,0-3.91,0-3.91,3.86,0,2.91,0,5.83,0,8.74,0,1.69.71,2.43,2.39,2.4a64,64,0,0,1,6.5.08c.64,0,1.24.79,1.85,1.21-.55.53-1.08,1.51-1.65,1.53-3.65.16-7.32.21-11,0-.56,0-1.47-1.47-1.51-2.29-.16-4-.07-8-.08-12,0-3.45-.1-3.56-3.46-3.56-6.17,0-12.33-.07-18.49,0-2.23,0-3.15-.67-3.1-3,.12-5.25.1-10.5,0-15.74,0-2,.74-2.82,2.79-2.8,6.41.07,12.82,0,19.23.06,2.28,0,3.13-.77,3.06-3.05-.13-3.83-.06-7.67,0-11.5,0-3.05.45-3.48,3.47-3.49ZM6.51,532.89c-6.91,0-13.82,0-20.73,0-2,0-2.86.73-2.79,2.78.1,3.16.05,6.33,0,9.49,0,1.57.69,2.27,2.26,2.27q21,0,42,0c1.77,0,2.3-.91,2.28-2.51,0-3-.11-6,0-9,.1-2.29-.79-3.08-3.06-3C19.83,533,13.17,532.89,6.51,532.89Z" transform="translate(33 -168.89)"/><path class="cls-2" d="M749.65,274.38c7.67,0,15.33,0,23,0,3.2,0,3.33.14,3.34,3.42q0,7.13,0,14.25c0,3.2-.16,3.33-3.44,3.33a8.77,8.77,0,0,1-2.72-.18c-.57-.18-1-.93-1.44-1.42.45-.43.91-1.22,1.37-1.21,2.91,0,2.8-1.92,2.77-3.93,0-3,0-6,0-9,0-1.57-.7-2.26-2.27-2.26q-21,0-42,0c-1.59,0-2.26.71-2.25,2.28,0,3.33.08,6.66,0,10-.07,2.09.81,2.77,2.82,2.75,7.25-.06,14.49,0,21.74,0a6.6,6.6,0,0,1,2.23.11,7.45,7.45,0,0,1,1.83,1.35c-.58.5-1.13,1.38-1.73,1.42-2,.12-2.43,1.24-2.4,3,.07,3.25.06,6.5,0,9.75,0,1.69.71,2.43,2.4,2.39a44.3,44.3,0,0,1,6,.07c.86.09,1.63.94,2.44,1.45-.83.49-1.65,1.39-2.49,1.41-8.41.11-16.83.07-25.24.07l-5.25,0a2,2,0,0,0-2.31,2.29c0,3.5,0,7,0,10.49,0,1.62.81,2.22,2.34,2.2a63.84,63.84,0,0,1,6.49.09c.69.06,1.32.91,2,1.4-.54.55-1,1.55-1.61,1.58-3.64.21-7.3.3-11,.18-.44,0-1.17-1.49-1.2-2.31-.12-4-.06-8-.06-12s0-4-4.07-4c-6.17,0-12.33-.06-18.5,0-2.12,0-3-.69-2.95-2.89q.15-7.62,0-15.24c0-2.14.71-3,2.9-2.94,6.49.09,13-.05,19.49.07,2.4,0,3.25-.8,3.17-3.19-.14-4,0-8-.07-12-.06-2.19.8-2.92,2.94-2.9C733.82,274.43,741.74,274.38,749.65,274.38Zm-25.48,36c6.82,0,13.64-.06,20.46,0,2.19,0,3-.81,2.89-2.94-.11-3.07-.08-6.15,0-9.23,0-2-.76-2.86-2.8-2.86q-20.58.06-41.17,0c-2,0-2.62.88-2.57,2.74.07,3.07.11,6.15,0,9.23-.09,2.24.71,3.11,3,3.08C710.7,310.32,717.44,310.39,724.17,310.39Z" transform="translate(33 -168.89)"/><path class="cls-8" d="M187.44,313.85a12.37,12.37,0,0,1,2.28,2.49,6.2,6.2,0,0,1,.2,2.71q0,55.86,0,111.71c0,2,.73,4.59-2.46,5.18a13.91,13.91,0,0,1-1.63-2.16,4.14,4.14,0,0,1-.06-1.73q0-57.15,0-114.3C185.75,316.24,185.26,314.44,187.44,313.85Z" transform="translate(33 -168.89)"/><path class="cls-2" d="M757.66,503.89c-5,0-10,.05-15,0-1.9,0-2.74.66-2.69,2.62.08,3.33,0,6.67,0,10,0,1.69.7,2.43,2.39,2.4a54.07,54.07,0,0,1,6.24.1c.71.07,1.33.93,2,1.43-.68.48-1.34,1.34-2.05,1.37-3.32.15-6.66.06-10,.09-1.71,0-2.06-1-2.05-2.46,0-4.17-.09-8.33,0-12.5.06-2.26-.73-3.1-3-3.07-6.33.11-12.66,0-19,.07-2.26,0-3.13-.72-3.07-3,.12-5.08.09-10.17,0-15.25,0-2,.74-2.8,2.78-2.79q23.75.08,47.48,0c2.06,0,2.82.77,2.78,2.8-.09,4.08.07,8.17-.06,12.24-.07,2.33.86,3.18,3.09,3a27.41,27.41,0,0,1,4.25,0c1.29.09,3.35-.62,3.41,1.42s-2,1.51-3.3,1.53C767.16,503.93,762.41,503.89,757.66,503.89Zm-19.65-18c-6.91,0-13.82.05-20.73,0-2,0-2.87.69-2.8,2.76.1,3.24.07,6.49,0,9.74,0,1.81.71,2.53,2.52,2.52q20.73,0,41.46,0c1.78,0,2.59-.67,2.55-2.5-.07-3.16-.12-6.33,0-9.49.1-2.29-.78-3.08-3-3C751.33,486,744.67,485.89,738,485.89Z" transform="translate(33 -168.89)"/><path class="cls-9" d="M733.54,622.34c1.09,1.84,2.44,1.38,4,.67,7.19-3.2,14.19-2.92,20.86,1.47-2,1.78-3.7,3.85-5.88,5.29-6.26,4.14-12.69,8-19.06,12h-8.24a20.15,20.15,0,0,1,4.23-12.16c1-1.33,1.21-2.49,0-3.74Z" transform="translate(33 -168.89)"/><path class="cls-10" d="M112.74,535.74c0-3.17,0-6.33,0-9.5,0-7.27,3.85-11.45,11.08-12.12,5-.47,8.41-3.12,9.51-7.45a9.76,9.76,0,0,0-7.68-11.79c-.49-.08-1.1.05-1.46-.2a12.41,12.41,0,0,1-1.7-1.7c.7-.41,1.39-1.17,2.09-1.17,8.38,0,14.34,9.1,11.17,17.14-1.87,4.72-5.41,7.37-10.51,8.09a17.56,17.56,0,0,0-6.1,1.77c-2.47,1.4-3.4,4-3.39,6.82,0,6.66,0,13.32,0,20a4.93,4.93,0,0,1-.1,2,6.93,6.93,0,0,1-1.52,1.65c-.46-.58-1.29-1.15-1.32-1.76-.15-3-.08-6-.08-9Z" transform="translate(33 -168.89)"/><path class="cls-11" d="M764.21,331.87c-2.83,0-5.68.17-8.49-.08-1.19-.1-3.27-1-3.29-1.66-.08-1.95,1.82-1.71,3.18-1.72,4.67,0,9.33-.08,14,0,2.13.05,3-.7,2.94-2.89-.12-3.24-.06-6.49,0-9.74,0-1.69-.71-2.45-2.4-2.39a19.35,19.35,0,0,1-3.73-.11c-.59-.09-1.09-.77-1.62-1.18.38-.49.75-1.39,1.16-1.41,3-.15,6-.21,8.94-.07.4,0,1,1.25,1.06,1.93.08,5.66,0,11.32.05,17,0,1.73-.94,2.34-2.54,2.33C770.37,331.85,767.29,331.86,764.21,331.87Z" transform="translate(33 -168.89)"/><path class="cls-2" d="M466,226.36c-3.07,0-6.15,0-9.23,0-1.26,0-2.84-.16-2.55-1.86.11-.65,1.65-1.48,2.56-1.51q7.23-.22,14.47,0c2.32.06,3.37-.65,3.24-3.11a80,80,0,0,1,0-8.48c.12-2.34-.87-3.17-3.1-3a7.51,7.51,0,0,1-3-.15c-.72-.24-1.24-1.07-1.85-1.64.62-.54,1.19-1.5,1.84-1.56a42.58,42.58,0,0,1,7.23,0,2.6,2.6,0,0,1,1.72,1.83c.14,5.82.07,11.65.09,17.47,0,1.51-.81,2.05-2.21,2.05C472.2,226.35,469.12,226.36,466,226.36Z" transform="translate(33 -168.89)"/><path class="cls-2" d="M46.47,568.88c-3.16,0-6.33.09-9.48-.07-.79,0-1.53-.87-2.3-1.34.79-.52,1.57-1.48,2.37-1.51,5-.14,10-.16,15,0,2.31.05,3.1-.84,3-3.09-.13-3-.14-6,0-9,.11-2.33-.86-3.18-3.09-3a8.74,8.74,0,0,1-3-.09,2.69,2.69,0,0,1-1.69-1.37c-.13-.35.7-1.54,1.15-1.57a78.09,78.09,0,0,1,8.92-.11c.41,0,1.06,1.42,1.07,2.2.1,5.57,0,11.14.06,16.72,0,1.58-.71,2.26-2.28,2.24C53,568.86,49.72,568.88,46.47,568.88Z" transform="translate(33 -168.89)"/><path class="cls-2" d="M110.06,377.89c-2.66,0-5.32.09-8,0-1.4-.07-3.82.81-3.75-1.52s2.46-1.38,3.87-1.41c4.32-.11,8.65,0,13,0,3.19,0,3.32-.15,3.33-3.43,0-2.83-.11-5.66,0-8.48.13-2.44-.89-3.32-3.22-3.1a9.58,9.58,0,0,1-3-.1c-.61-.14-1.47-.72-1.55-1.22a2,2,0,0,1,1.09-1.6,82.67,82.67,0,0,1,8.9-.25c.42,0,1.12,1.4,1.14,2.15.1,5.57,0,11.14.07,16.71,0,1.73-.8,2.36-2.45,2.34C116.38,377.85,113.22,377.88,110.06,377.89Z" transform="translate(33 -168.89)"/><path class="cls-2" d="M777.76,521.88c-3.08,0-6.16.11-9.23-.07-.81,0-1.56-1-2.34-1.53.77-.46,1.53-1.3,2.31-1.32,5-.13,10-.15,15,0,2.26.05,3.16-.73,3.06-3-.14-3.24-.06-6.49,0-9.73,0-1.57-.68-2.3-2.25-2.27a22,22,0,0,1-4-.12c-.58-.1-1.06-.83-1.58-1.27.53-.52,1-1.45,1.59-1.48a47.77,47.77,0,0,1,7.47,0,2.59,2.59,0,0,1,1.66,1.89c.13,5.66.07,11.31.08,17,0,1.52-.87,2-2.25,2Z" transform="translate(33 -168.89)"/><path class="cls-6" d="M662.51,366.4c-.65-1.13-1.86-2.26-1.88-3.4q-.23-15.17,0-30.34c0-1.11,1.25-2.21,1.92-3.32,1.59.13,2,1.1,2,2.56q0,15.94,0,31.9A2.32,2.32,0,0,1,662.51,366.4Z" transform="translate(33 -168.89)"/><path class="cls-10" d="M817.81,541.5a23.61,23.61,0,0,1-4-.67c-.76-.26-1.32-1.11-2-1.7l2.09-1.24a.54.54,0,0,1,.25,0c8.26,1.14,7.09-.21,6.31,7.19-.5,4.7-1,9.41-1.68,14.09-.13.91-1.12,1.7-1.72,2.55-.41-.93-1.23-1.9-1.15-2.78C816.45,553.18,817.15,547.43,817.81,541.5Z" transform="translate(33 -168.89)"/><path class="cls-12" d="M124.72,538.28c0-3.25-.11-6.51.07-9.75,0-.9,1-1.75,1.47-2.62.51.83,1.43,1.64,1.45,2.48q.18,10.13,0,20.25c0,.78-1,1.54-1.54,2.31-.48-.81-1.33-1.6-1.37-2.42C124.63,545.12,124.72,541.7,124.72,538.28Z" transform="translate(33 -168.89)"/><path class="cls-6" d="M662.54,395.92c-.67-1.12-1.85-2.21-1.9-3.35-.21-5-.21-9.95,0-14.91.05-1.13,1.25-2.21,1.92-3.32,1.58.13,2,1.09,2,2.55,0,5.47-.09,10.95,0,16.42C664.66,395,663.67,395.4,662.54,395.92Z" transform="translate(33 -168.89)"/><path class="cls-6" d="M103.5,526.64c0,3.41.09,6.82-.07,10.21,0,.85-.88,1.65-1.35,2.48-.53-.79-1.5-1.56-1.51-2.35q-.18-10.22,0-20.43c0-.78,1-1.55,1.52-2.32.47.82,1.31,1.62,1.35,2.45C103.59,520,103.5,523.32,103.5,526.64Z" transform="translate(33 -168.89)"/><path class="cls-1" d="M264.51,643.89c-1,.66-2,1.85-3,1.91-4.3.21-8.62.07-12.94.1-1.74,0-2.65-.76-2.63-2.53,1-.5,1.9-1.38,2.87-1.41,4.16-.16,8.33,0,12.49-.11A2.94,2.94,0,0,1,264.51,643.89Z" transform="translate(33 -168.89)"/><path class="cls-6" d="M662.53,419.42a3,3,0,0,1-2-3.28c.08-2.47-.17-5,.13-7.4.12-1,1.28-1.95,2-2.92.63.9,1.72,1.75,1.82,2.7.26,2.53,0,5.1.12,7.64A3,3,0,0,1,662.53,419.42Z" transform="translate(33 -168.89)"/><path class="cls-6" d="M80.39,591.85c1.94-.57,2.91.4,3,2.18.14,2.47.1,5,0,7.44,0,1.76-1.16,2.44-2.82,2.39-.34-.35-1-.7-1-1.05-.05-3.44,0-6.87,0-10.31C79.71,592.28,80.15,592.07,80.39,591.85Z" transform="translate(33 -168.89)"/><path class="cls-6" d="M284.59,643.87c-1.64,3.73-4.93,1.49-7.44,2-1.64.3-3.62.45-4.19-2a1.86,1.86,0,0,1,.16-.47C274.69,640.91,283.21,641.25,284.59,643.87Z" transform="translate(33 -168.89)"/><path class="cls-13" d="M742.68,331.84c-.41,0-.92.16-1.22,0-1-.57-1.87-1.26-2.79-1.9a14.8,14.8,0,0,1,2.92-1.47,5.78,5.78,0,0,1,2.95,0,8.57,8.57,0,0,1,2.2,1.55,12,12,0,0,1-2.11,1.69,5.14,5.14,0,0,1-2,.17Z" transform="translate(33 -168.89)"/><path class="cls-11" d="M444.31,222c1.57,1.08,3.78,1.93,3.76,2.7-.08,2.14-2.25,1.64-3.72,1.62s-3.78.63-3.92-1.68C440.39,223.94,442.67,223.08,444.31,222Z" transform="translate(33 -168.89)"/><path class="cls-2" d="M755.71,522.45c-1.17-.71-3.37-1.52-3.32-2.14.17-2.1,2.23-1.26,3.59-1.41a6.83,6.83,0,0,1,2.71.11c.63.2,1.09,1,1.62,1.47-.51.45-1,1.13-1.55,1.29a11.12,11.12,0,0,1-2.71.05C755.93,522,755.82,522.24,755.71,522.45Z" transform="translate(33 -168.89)"/><path class="cls-2" d="M24.53,569.43c-1.13-.68-3.2-1.34-3.21-2-.05-2.33,2.12-1.23,3.4-1.49a3.1,3.1,0,0,1,1.71,0,17.74,17.74,0,0,1,2.39,1.51,25.74,25.74,0,0,1-2.5,1.41,4,4,0,0,1-1.47,0Z" transform="translate(33 -168.89)"/><path class="cls-2" d="M88.6,378.61c-1.56-.84-3.75-1.49-3.74-2.1,0-2.45,2.26-1.54,3.65-1.57s3.41-.74,3.62,1.35C92.19,376.9,90,377.73,88.6,378.61Z" transform="translate(33 -168.89)"/><path class="cls-11" d="M41.55,528.55l2.7,2.68c-1,.55-1.92,1.5-2.9,1.52s-1.74-1-2.61-1.57Z" transform="translate(33 -168.89)"/><path class="cls-11" d="M105,342.64l-2.79-2.5c1-.57,2-1.55,3-1.58.83,0,1.7,1.05,2.56,1.63Z" transform="translate(33 -168.89)"/><path class="cls-2" d="M460.76,190.59l-2.57-2.16c.88-.51,1.75-1.38,2.66-1.42s1.64.86,2.47,1.35Z" transform="translate(33 -168.89)"/><path class="cls-2" d="M759.2,296.09l-2.52-2.26c.83-.48,1.69-1.36,2.5-1.32s1.75.93,2.63,1.44Z" transform="translate(33 -168.89)"/><path class="cls-11" d="M764.74,291.94c.67.93,1.36,1.49,1.42,2.12,0,.36-1,1.23-1.41,1.14a2.38,2.38,0,0,1-1.48-1.44C763.17,293.41,764,292.79,764.74,291.94Z" transform="translate(33 -168.89)"/><path class="cls-11" d="M110.55,342.36c-.69-1-1.44-1.6-1.35-2,.13-.61.9-1.09,1.4-1.62.43.51,1.17,1,1.22,1.54S111.19,341.35,110.55,342.36Z" transform="translate(33 -168.89)"/><path class="cls-11" d="M49,531.36c-.9.61-1.63,1.4-2,1.26A2.43,2.43,0,0,1,45.72,531c0-.34.94-1.17,1.45-1.16S48.14,530.62,49,531.36Z" transform="translate(33 -168.89)"/><path class="cls-11" d="M749.45,331.81c-.72-.78-1.62-1.43-1.52-1.7a2.71,2.71,0,0,1,1.52-1.47c.29-.09,1.24.78,1.29,1.27S750.06,331,749.45,331.81Z" transform="translate(33 -168.89)"/><path class="cls-11" d="M466.38,186.44c.68.9,1.41,1.46,1.36,1.93a1.91,1.91,0,0,1-1.31,1.32c-.5,0-1.53-.76-1.49-1.08C465,188,465.68,187.42,466.38,186.44Z" transform="translate(33 -168.89)"/><path class="cls-11" d="M765.27,520.27c-1,.7-1.53,1.39-2.06,1.38s-1-.75-1.54-1.17c.45-.48.86-1.28,1.37-1.35S764.2,519.68,765.27,520.27Z" transform="translate(33 -168.89)"/><path class="cls-11" d="M33.93,567.21c-1.06.71-1.65,1.43-2.17,1.38s-1-.85-1.5-1.32c.49-.43,1-1.15,1.5-1.21S32.88,566.61,33.93,567.21Z" transform="translate(33 -168.89)"/><path class="cls-13" d="M95.1,378.21c-.57-.91-1.28-1.54-1.18-2a1.91,1.91,0,0,1,1.49-1.12,1.79,1.79,0,0,1,1.23,1.31C96.6,376.92,95.84,377.39,95.1,378.21Z" transform="translate(33 -168.89)"/><path class="cls-11" d="M449.17,224.81c.82-.75,1.28-1.51,1.8-1.56a1.76,1.76,0,0,1,1.33,1.2,1.89,1.89,0,0,1-1.1,1.5C450.75,226.06,450.1,225.37,449.17,224.81Z" transform="translate(33 -168.89)"/><path class="cls-9" d="M660.48,547.4q0,8.25,0,16.5c-2.94.59-3.78,2.75-3.86,5.35-.1,3.15-.05,6.31-.06,9.47,0,6.62-4.06,10.65-10.74,10.67s-13.13,0-19.69,0c-2.39,0-4.25.81-4.64,3.51l-1.25,0h-48c-1.66,0-2.91,0-3.5-2.21a4.72,4.72,0,0,0-3.37-2.64,72.36,72.36,0,0,0-10-.08c-1.84,0-3.22.93-3.35,3-.1,1.53-1,2-2.33,1.93-.92,0-1.84,0-2.75,0q-147.49,0-295,0c-1.31,0-2.62.25-3.94.38-14.94,0-29.88.13-44.82,0A13.76,13.76,0,0,1,190,581c0-10.17.11-20.33.06-30.49,0-2.19.57-3.14,2.95-3.13,14.25.08,28.49,0,42.74,0,1.75,0,2.71.23,2.58,2.49a7.46,7.46,0,1,0,14.86-.25c-.11-1.74.6-2.25,2.13-2.22.83,0,1.67,0,2.5,0H389.51Zm-224,15c-1.71-4.33-5-6.52-9.53-7.08.29-2.79-.35-3.44-3.13-3.2-9.24.8-15.86,8.24-15.77,17.72a17,17,0,0,0,11.21,15.65,17.38,17.38,0,0,0,18.92-4.76c4.71-5.49,5.73-13.35,2.33-19.32-.5-.88-1.83-1.28-2.77-1.91ZM246.94,592.64c.09-.33.19-.66.28-1-1.16-.41-2.32-1.16-3.49-1.18-7-.11-14-.13-21,0-1.28,0-2.53.88-3.8,1.36l.29.79ZM257.45,565a3.34,3.34,0,0,0-3.57-3.56c-2.37-.06-3.86,1.32-3.83,3.55a3.7,3.7,0,0,0,7.4,0Zm-25.29-11a3.84,3.84,0,0,0-3.61,4,3.69,3.69,0,0,0,3.89,3.39,3.69,3.69,0,0,0-.28-7.38Zm27.47,4.35c1.09-1.52,2.22-2.42,2.13-3.17a3.08,3.08,0,0,0-2.1-2c-.55-.11-1.89,1.17-1.94,1.89S258.65,556.74,259.63,558.33Z" transform="translate(33 -168.89)"/><path class="cls-14" d="M-21.44,652.88a14.32,14.32,0,0,0,11.49,5q74.11,0,148.24,0H560.76c2.34,0,4.51.27,5.74-2.63.36-.86,2.57-1.33,3.93-1.34,12.92-.1,25.83-.06,38.75-.06,8.41,0,16.83,0,25.25,0,2.19,0,3.84.49,4.9,2.64a3.27,3.27,0,0,0,2.33,1.34c2,.19,4,0,6,.08s3.7.06,4.53-2.41c.27-.79,2-1.5,3.1-1.53,5.41-.16,10.83-.21,16.24,0,1.17,0,2.28,1.47,3.42,2.26a26.89,26.89,0,0,0,2.39,1.6c.32.18.82,0,1.23,0H857.3a13.81,13.81,0,0,0,9.11-2.84,14.84,14.84,0,0,0,2.11-2.69,10.92,10.92,0,0,1-3,13.58c-1.16-.68-2.28-1.91-3.46-2-5.41-.21-10.83-.17-16.24,0-1,0-2.71.88-2.8,1.53-.48,3.36-2.82,2.9-5,2.89-1.91,0-3.84.08-5.74-.06-.72-.05-1.92-.52-2-1-.69-3.49-3.23-3.49-5.94-3.48q-31.24,0-62.48,0a7.82,7.82,0,0,0-2.48.11c-.88.31-2.25.93-2.33,1.54-.41,3.43-2.84,2.85-5,2.85H433.52c-.67,0-1.34,0-2,0-1.43.07-2.37-.35-2.69-1.93a3,3,0,0,0-3.2-2.56H408.88c-1.7,0-3,.74-3.27,2.47s-1.34,2-2.83,2c-3.24,0-6.49,0-9.74,0-.19-3.66-.52-4.06-4.13-4.63a26.46,26.46,0,0,0-4-.32q-28.95,0-57.89,0a21.28,21.28,0,0,0-3.48.24c-3.48.57-3.92,1.13-4.11,4.72H89.51c-.42-3.31-1.15-4.45-4.41-4.63a134.87,134.87,0,0,0-15.18.07c-3.34.2-4,1.2-4.43,4.56h-12c-.08-2-.23-4-2.71-4.41a28.4,28.4,0,0,0-4.94-.54c-19.79,0-39.57-.07-59.35,0-2,0-4,.89-6,1.37A10.45,10.45,0,0,1-21.44,652.88Z" transform="translate(33 -168.89)"/><path class="cls-9" d="M489.51,602.89q5.79,14.34,11.57,28.68c1.33,3.3,2.64,6.6,4.06,10.16H362.44c1.2-3.21,2.37-6.28,3.49-9.38.39-1.05,1.16-2.46-.54-2.83-.61-.13-1.91,1-2.27,1.88-1.39,3.27-2.53,6.65-3.89,10.31h-7.06a8.63,8.63,0,0,1,.33-1.56q7.23-18.21,14.5-36.41a6,6,0,0,1,.49-.85c.42,0,.83,0,1.25,0,2.68-.14,5.2-.39,6.09,3.27a3.3,3.3,0,0,0,4.29,2.12c1.27-.4,3.09-1.41,3.29-2.42.6-3,2.42-3,4.74-3Q438.33,602.92,489.51,602.89Zm-110,16.18c.68.52,1.65,1.85,2.78,2a2.71,2.71,0,0,0,3-2.9,2.51,2.51,0,0,0-2.62-2.72C380.76,615.36,379.69,616.31,379.46,619.07Zm-7.07-3.67c-.35-.46-.68-1.28-1.1-1.34a2.15,2.15,0,0,0-1.8.73,48.55,48.55,0,0,0-2.3,6,1.77,1.77,0,0,0,.75,1.56c.56.14,1.65-.12,1.85-.53C370.75,619.8,371.49,617.7,372.39,615.4ZM391.8,607c-1,1.39-2.16,2.28-2,2.89a3.38,3.38,0,0,0,2.08,2.14c.48.13,1.9-1.19,1.93-1.89S392.79,608.48,391.8,607Z" transform="translate(33 -168.89)"/><path class="cls-15" d="M190,515.91c8.75,1.06,17.49,2.23,26.26,3.14,7.44.77,14.91,1.3,22.37,1.82,10.12.71,20.24,1.3,30.37,1.93,3.32.21,6.64.43,10,.56q15,.55,29.94,1c14.88.51,29.76,1,44.65,1.5,12.31.39,24.62.7,36.93,1q23,.54,45.93,1c8,.17,16,.36,24,.48q18.36.3,36.72.52,20.1.26,40.21.49,24.36.27,48.72.49c1.56,0,3.45.59,4-1.81,0-.09,1.9-.13,2.3.33,1.95,2.28,3.72,2.09,5.06-.5a3.71,3.71,0,0,1,2.58-1.77c.62,0,1.35,1.3,2,2.06s1.08,2,1.61,2c1.62,0,3.72,0,4.75-1,1.4-1.29,2.11-1.58,3.4-.19,2,2.18,7.33,1.87,9.1-.48a2.54,2.54,0,0,1,4.48.31c1.08,1.9,1.86,1.83,3,.08,1.34-2.08,3.67-2.27,5.11-.24,1.05,1.49,2.29,1.68,3.85,1.67,7.74,0,15.49,0,23.24,0,0,8.18,1,7-6.75,7q-229.48,0-459,0c-4.81,0-4.81,0-4.81-4.71Q190,524.29,190,515.91Z" transform="translate(33 -168.89)"/><path class="cls-16" d="M660.48,547.4l-271,0H257.78c-.83,0-1.67,0-2.5,0-1.53,0-2.24.48-2.13,2.22a7.46,7.46,0,1,1-14.86.25c.13-2.26-.83-2.49-2.58-2.49-14.25,0-28.49,0-42.74,0-2.38,0-3,.94-2.95,3.13,0,10.16,0,20.32-.06,30.49a18.9,18.9,0,0,1-.32-2.45c0-11.5.15-23,.14-34.48,0-2,.61-3,2.71-2.73a20.82,20.82,0,0,0,2.5,0q230.16,0,460.33,0c5.87,0,5.22-1.08,5.23,5.31A6.34,6.34,0,0,1,660.48,547.4Z" transform="translate(33 -168.89)"/><path class="cls-17" d="M796,570.92l28,0,0,70.93-28,0Z" transform="translate(33 -168.89)"/><path class="cls-7" d="M144,560.89c1.66.92,2.05,2.4,2,4.18-.06,5.61,0,11.21,0,16.82a27.53,27.53,0,0,0-1.42,2.61c-4.94,11.89-10.58,23.4-19.52,32.87-3.44,3.65-7.1,7.29-12.07,9q0-31-.08-62a30.45,30.45,0,0,0-.47-3.91h4.17c0,3.4-.08,6.8-.14,10.2,0,1.72.58,3.06,2.47,3s2.58-1.35,2.58-3c0-3.4-.07-6.8-.11-10.19h6.22c0,7-.09,14-.08,21,0,1.84.88,3,2.89,3s2.61-1.25,2.6-3q-.06-10.48-.13-21l1.69,0c.39,2.64,1.9,4.15,4.3,4.33S143,563.5,144,560.89Z" transform="translate(33 -168.89)"/><path class="cls-18" d="M113,626.38c5-1.72,8.63-5.36,12.07-9,8.94-9.47,14.58-21,19.52-32.87a27.53,27.53,0,0,1,1.42-2.61q0,27.32,0,54.64c0,4-.81,4.84-4.81,4.85q-14.35,0-28.7,0c0-1.07.07-2.14.1-3.21Z" transform="translate(33 -168.89)"/><path class="cls-19" d="M53.53,668.38H393c3.25,0,6.5,0,9.74,0,1.49,0,2.56-.23,2.83-2s1.57-2.47,3.27-2.47h16.75a3,3,0,0,1,3.2,2.56c.32,1.58,1.26,2,2.69,1.93.66,0,1.33,0,2,0H751.94c2.2,0,4.63.58,5-2.85.08-.61,1.45-1.23,2.33-1.54a7.82,7.82,0,0,1,2.48-.11q31.23,0,62.48,0c2.71,0,5.25,0,5.94,3.48.1.46,1.3.93,2,1,1.9.14,3.83,0,5.74.06,2.23,0,4.57.47,5-2.89.09-.65,1.81-1.5,2.8-1.53,5.41-.15,10.83-.19,16.24,0,1.18,0,2.3,1.27,3.46,2-2.29,2.29-5.19,2.88-8.26,2.89q-15.87,0-31.74,0l-390.44,0H94.89q-52,0-104-.06A34.94,34.94,0,0,1-13,668.4Z" transform="translate(33 -168.89)"/><path class="cls-20" d="M796,570.92V641.8c-2.75,0-5.49,0-8.23.11-1.71.08-2.14-.7-2.13-2.23,0-4.9,0-9.81,0-14.72V574.57c0-3.75,0-3.76,3.86-3.75C791.69,570.83,793.85,570.89,796,570.92Z" transform="translate(33 -168.89)"/><path class="cls-16" d="M489.51,602.89q-51.18,0-102.36,0c-2.32,0-4.14,0-4.74,3-.2,1-2,2-3.29,2.42a3.3,3.3,0,0,1-4.29-2.12c-.89-3.66-3.41-3.41-6.09-3.27-.42,0-.83,0-1.25,0,1.61-5.57,1.61-5.57,7.36-5.57h107.3C487.9,597.32,487.9,597.32,489.51,602.89Z" transform="translate(33 -168.89)"/><path class="cls-21" d="M100.49,641.39c-.08-4.14-.24-8.29-.24-12.44q0-32.79,0-65.58a24.49,24.49,0,0,1,.33-2.94h5.31c.06,1.08.18,2.16.18,3.24q0,30.23,0,60.46c0,5.74-.08,11.49-.12,17.23Z" transform="translate(33 -168.89)"/><path class="cls-21" d="M135.49,646c1.49,3.8.22,5.88-3.77,5.89q-32.41,0-64.83,0c-3.7,0-4.89-1.9-3.87-5.88,7.33,0,14.66-.1,22-.09Q110.26,645.92,135.49,646Z" transform="translate(33 -168.89)"/><path class="cls-22" d="M838,570.94c4.93-.39,4.93-.39,4.93,4.47v61.92c0,4.77,0,4.77-4.94,4.46Z" transform="translate(33 -168.89)"/><path class="cls-23" d="M53.53,668.38l-66.56,0-6.41-3.56c2-.48,4-1.36,6-1.37,19.78-.11,39.56-.08,59.35,0a28.4,28.4,0,0,1,4.94.54C53.3,664.41,53.45,666.4,53.53,668.38Z" transform="translate(33 -168.89)"/><path class="cls-24" d="M-27,621.4l1.91-2.55,33.43,0L79,619v2.88q-51.77,0-103.53,0A12.83,12.83,0,0,1-27,621.4Z" transform="translate(33 -168.89)"/><path class="cls-25" d="M-24.68,637l-2.7-3H48.35c1.16,0,2.32-.1,3.48-.15l27.12.12v2.9l-57.93,0Z" transform="translate(33 -168.89)"/><path class="cls-16" d="M733.5,641.79c6.37-4,12.8-7.88,19.06-12,2.18-1.44,3.93-3.51,5.88-5.29,6.34,3.93,9.28,9.79,10.06,17.31Z" transform="translate(33 -168.89)"/><path class="cls-7" d="M167,602c.47,8-5.07,15.72-13.83,18.2-1.94.55-2.68.14-2.75-2-.08-2.72.34-4.45,3.31-5.74,4.95-2.17,6.73-6.59,6.27-11.93-.41-4.83-3-7.91-7.35-9.82-.83-.37-2.15-1-2.2-1.56a13.39,13.39,0,0,1,.54-5.11c.11-.35,2.13-.46,3.11-.16C161.65,586.3,167.73,594,167,602Z" transform="translate(33 -168.89)"/><path class="cls-26" d="M106,641.37c0-5.74.11-11.49.12-17.23q0-30.24,0-60.46c0-1.08-.12-2.16-.18-3.24l4.22,0c0,1.33-.11,2.66-.11,4l-.06,63.94c-2.57.31-3.66,1.66-3.47,4.35.21,2.86,0,5.76,0,8.64Z" transform="translate(33 -168.89)"/><path class="cls-27" d="M248,593.28c1.32-.13,2.63-.38,3.94-.38q147.49,0,295,0c.91,0,1.83,0,2.75,0,1.36,0,2.23-.4,2.33-1.93.13-2.06,1.51-2.94,3.35-3a72.36,72.36,0,0,1,10,.08,4.72,4.72,0,0,1,3.37,2.64c.59,2.18,1.84,2.21,3.5,2.21h48l1.25,0h0c0,.13,0,.26,0,.39l-52.72.05-20,0H251.75C250.5,593.37,249.25,593.32,248,593.28Z" transform="translate(33 -168.89)"/><path class="cls-24" d="M-9,626.34l.43-1.81A12,12,0,0,1-6,623.92q42.47,0,84.93,0c.4,2.63-1.11,3-3.27,3q-40.79-.06-81.56,0A19.19,19.19,0,0,1-9,626.34Z" transform="translate(33 -168.89)"/><path class="cls-28" d="M-9,626.34a19.19,19.19,0,0,0,3.15.53q40.77,0,81.56,0c2.16,0,3.67-.34,3.27-3v-5c-.23-1.85-1.68-1.53-2.87-1.54-6,0-12,0-17.93,0a21.43,21.43,0,0,1-3.15-.48c7.06,0,14.11,0,21.17,0,1.27,0,2.88.29,2.65-1.9l.2-.09a16.13,16.13,0,0,1,.39,2.36c0,7.38,0,14.76,0,22.14l-.44-.47,0-2.07v-5c.44-2.92-1.41-3-3.53-3q-52,0-103.95,0c-.65-1.84.17-2.34,1.91-2.32,5,.06,9.92,0,14.88,0C-10.83,626.57-9.93,626.42-9,626.34Z" transform="translate(33 -168.89)"/><path class="cls-17" d="M836,641.82l-3.54,0V570.94l3.51,0Q836,606.36,836,641.82Z" transform="translate(33 -168.89)"/><path class="cls-29" d="M824,641.83l0-70.93h3.48q0,35.46,0,70.9Z" transform="translate(33 -168.89)"/><path class="cls-24" d="M-28.53,628.89q52,0,104,0c2.12,0,4,0,3.53,3-8,0-16.08,0-24.12,0a19.58,19.58,0,0,1-2.93-.45,30.74,30.74,0,0,0-3.68-.43q-36.93,0-73.87,0C-27.08,631-28.9,631.42-28.53,628.89Z" transform="translate(33 -168.89)"/><path class="cls-19" d="M109.94,628.41l.06-63.94c0-1.33.07-2.66.11-4l2.32,0a30.45,30.45,0,0,1,.47,3.91q.07,31,.08,62l-.39,11.8c0,1.07-.06,2.14-.1,3.21l-2.42,0Q110,634.88,109.94,628.41Z" transform="translate(33 -168.89)"/><path class="cls-30" d="M79,621.83V624q-42.46,0-84.93,0a12,12,0,0,0-2.62.61,15.6,15.6,0,0,0-3-.64c-5.36-.07-10.72,0-16.56,0l1.2-2.46a12.83,12.83,0,0,0,2.41.47Q27.19,621.87,79,621.83Z" transform="translate(33 -168.89)"/><path class="cls-29" d="M621.47,592.91c.39-2.7,2.25-3.5,4.64-3.51,6.56,0,13.13,0,19.69,0s10.72-4,10.74-10.67c0-3.16,0-6.32.06-9.47.08-2.6.92-4.76,3.86-5.35,0,5.56.24,11.12,0,16.67-.2,6-5.25,11.27-11.43,12.37l-27.6,0Z" transform="translate(33 -168.89)"/><path class="cls-17" d="M827.47,641.81q0-35.44,0-70.9h3l0,70.92Z" transform="translate(33 -168.89)"/><path class="cls-30" d="M79,636.84c0,.69,0,1.38,0,2.07q-48.76,0-97.52,0a22.72,22.72,0,0,0-2.94.37L-24.68,637l45.7-.07Z" transform="translate(33 -168.89)"/><path class="cls-11" d="M-21.47,639.28a22.72,22.72,0,0,1,2.94-.37q48.75,0,97.52,0c.15.15.29.31.44.47-.22.47-.33,1.17-.71,1.36a4.06,4.06,0,0,1-1.72.08c-30.49,0-61,0-91.49-.07C-16.82,640.74-19.14,639.8-21.47,639.28Z" transform="translate(33 -168.89)"/><path class="cls-18" d="M83.51,628.89a30.58,30.58,0,0,0,13.54,2.49c2.1-.14,3,.63,2.93,2.83-.13,2.39,0,4.8,0,7.2-4.08,0-8.15,0-12.23,0-3.13,0-4.15-1.09-4.2-4.25C83.47,634.37,83.51,631.63,83.51,628.89Z" transform="translate(33 -168.89)"/><path class="cls-30" d="M55,616.89a21.43,21.43,0,0,0,3.15.48c6,0,11.95,0,17.93,0,1.19,0,2.64-.31,2.87,1.54l-70.6-.05-33.43,0,3.09-2.44a26.19,26.19,0,0,0,3.4.46c9.53,0,19.06,0,28.59,0a23,23,0,0,0,4.55,1q17.19.12,34.37,0a29.19,29.19,0,0,0,5.07-1Z" transform="translate(33 -168.89)"/><path class="cls-31" d="M830.52,641.82l0-70.92,2,0v70.85Z" transform="translate(33 -168.89)"/><path class="cls-31" d="M836,641.82q0-35.46,0-70.92l2,0v70.85Z" transform="translate(33 -168.89)"/><path class="cls-21" d="M171.48,646c1.16,4.39,0,5.89-4.49,5.91H153.51c-4.52,0-5.66-1.54-4.49-5.91Z" transform="translate(33 -168.89)"/><path class="cls-32" d="M132.9,560.47q.06,10.49.13,21c0,1.74-.7,2.92-2.6,3s-2.89-1.13-2.89-3c0-7,0-14,.08-21Z" transform="translate(33 -168.89)"/><path class="cls-33" d="M839.52,523A6.25,6.25,0,1,1,827,523a6.48,6.48,0,0,1,6.32-6.46A6.37,6.37,0,0,1,839.52,523Z" transform="translate(33 -168.89)"/><path class="cls-34" d="M10,616.89c-9.53,0-19.06,0-28.59,0a26.19,26.19,0,0,1-3.4-.46c2.13-.6,4.25-1.69,6.38-1.7,31-.11,62-.08,92.92-.07a12.56,12.56,0,0,1,1.71.24l-.19.09L55.32,615H8.79Z" transform="translate(33 -168.89)"/><path class="cls-35" d="M150.43,610.32V593.5a8.47,8.47,0,0,1,6.82,8.7A8.21,8.21,0,0,1,150.43,610.32Z" transform="translate(33 -168.89)"/><path class="cls-32" d="M121.4,560.47c0,3.39.11,6.79.11,10.19,0,1.69-.75,3-2.58,3s-2.5-1.32-2.47-3c.06-3.4.1-6.8.14-10.2Z" transform="translate(33 -168.89)"/><path class="cls-30" d="M51.9,631.42a19.58,19.58,0,0,0,2.93.45c8,0,16.08,0,24.12,0v2.11l-27.12-.12Z" transform="translate(33 -168.89)"/><path class="cls-18" d="M109.94,628.41q.07,6.47.13,13l-3.55,0c0-2.88.16-5.78,0-8.64C106.28,630.07,107.37,628.72,109.94,628.41Z" transform="translate(33 -168.89)"/><path class="cls-15" d="M189.56,445.89a16.49,16.49,0,0,1,.43,2.67q0,33.68,0,67.34a13.69,13.69,0,0,1-.44-2.42Q189.51,479.68,189.56,445.89Z" transform="translate(33 -168.89)"/><path class="cls-36" d="M144,560.89c-1,2.61-2.85,4.06-5.11,3.89s-3.91-1.69-4.3-4.33Z" transform="translate(33 -168.89)"/><path class="cls-9" d="M621.48,592.92l27.6,0a11,11,0,0,1-2.16.42q-12.7,0-25.4-.05C621.5,593.18,621.49,593.05,621.48,592.92Z" transform="translate(33 -168.89)"/><path class="cls-29" d="M425.76,204.89c-6.74,0-13.48-.06-20.22,0-2.26,0-3.17-.72-3.07-3,.14-3.25.06-6.5,0-9.74,0-1.57.68-2.27,2.26-2.27q21,0,41.95,0c1.76,0,2.32.87,2.3,2.49,0,3.24-.08,6.49,0,9.74.06,2-.74,2.81-2.79,2.78-6.82-.07-13.65,0-20.48,0Z" transform="translate(33 -168.89)"/><path class="cls-37" d="M212.56,387.34l0-7.86c.47-.87,1.33-1.74,1.35-2.62.11-7.11.13-14.23,0-21.34,0-.93-1.16-1.84-1.79-2.77l0-11.77c.47-1.1,1.34-2.2,1.35-3.31.12-14.08.12-28.16.15-42.24,3.13.8,4.88,0,5.08-3.14.26-3.94-.08-7.92-.16-11.88.91,0,1.82-.1,2.74-.1h199c.92,0,1.83.07,2.74.11Q394.5,393.16,366,505.9l-52.48,0c-.29-2.54-1.72-3.95-4.28-4-15,0-30-.07-44.93.08a5.65,5.65,0,0,0-3.79,2.22,3.62,3.62,0,0,1-3.26,1.72q-21.84-.06-43.69-.06c0-8.74,0-17.49,0-26.23q0-29.37.06-58.73c3.16.54,4.67-.33,5-3.49a59.15,59.15,0,0,0,.24-9.69c-.18-3.09-2.11-4.17-5.23-3.38,0-4.71,0-9.42-.13-14.13A11.28,11.28,0,0,0,212.56,387.34Zm29.12-94.23c-.28-.37-.54-1.07-.93-1.16a2.58,2.58,0,0,0-1.75.4c-.37.22-.51.82-.71,1.28q-6.58,15.18-13.16,30.38c-.17.38-.45.82-.38,1.17.11.58.34,1.39.76,1.59a2.08,2.08,0,0,0,1.74-.38c.42-.3.59-1,.82-1.5q6.48-15,13-29.94C241.24,294.42,241.41,293.87,241.68,293.11Zm-5.33,26.25c.41.37,1,1.19,1.26,1.09a3.49,3.49,0,0,0,2-1.41c2.2-4.82,4.27-9.71,6.38-14.57.48-1.11,1-2.43-.59-2.81-.58-.14-1.83.89-2.19,1.66-2.14,4.67-4.12,9.41-6.15,14.13C236.8,318,236.64,318.53,236.35,319.36ZM235,328.88l1.12-.07c.62-.89,1.62-1.73,1.76-2.7a2,2,0,0,0-2.42-2.31,3.38,3.38,0,0,0-2.21,2.27C233.2,327,234.36,327.94,235,328.88Z" transform="translate(33 -168.89)"/><path class="cls-38" d="M189.9,266.8a15.09,15.09,0,0,1,14.54-13.32c.75,0,1.5,0,2.25,0q218.67,0,437.35,0c6.43,0,11.48,2.3,14.79,8,1.91,3.28,1.87,6.85,1.66,10.45-1.43-1.83-2.65-3.9-4.35-5.42A16.07,16.07,0,0,0,645,262.32c-21.48.09-43,.05-64.45,0-2,0-3.4.24-4.43,2.33a4.87,4.87,0,0,1-3.62,2.11c-6.9.2-13.82.11-20.73.09-2,0-3.12-1.09-4.19-2.68a4.14,4.14,0,0,0-2.88-1.74q-32.34-.15-64.7,0a3,3,0,0,0-2.37,1.22c-1.06,2.85-3.28,3.25-5.83,3.25h-34a70.53,70.53,0,0,1-8.73-.11,6.64,6.64,0,0,1-4.29-2.33,4.21,4.21,0,0,0-4.05-2.12c-15.57.05-31.14,0-46.72,0l-77,0c-1.95-2.17-11.08-2.17-13.06,0l-7.07.07c-.85-.52-1.7-1.48-2.56-1.49q-22.9-.13-45.82,0c-.85,0-1.7.93-2.55,1.42-6.4,0-12.82.2-19.21-.08s-12,1.08-16.42,6.77Z" transform="translate(33 -168.89)"/><path class="cls-1" d="M213.59,295.43c0,14.08,0,28.16-.15,42.24,0,1.11-.88,2.21-1.35,3.31-1.94-.51-1.58-2.11-1.58-3.47q0-20.13,0-40.24c0-5.66.05-11.33,0-17,0-2.16.85-3.08,3-2.93.82,0,1.66,0,2.49,0H636.29c3.33,0,3.66.34,3.67,3.78q.06,16.62.08,33.24,0,27.51,0,55,0,32.25,0,64.49,0,27.53,0,55,0,12.38-.07,24.74c0,3.42-.33,3.74-3.7,3.74H214.13c-3.45,0-3.62-.19-3.63-3.74l0-34.24q0-27.53,0-55.05,0-16.91.05-33.8c0-1.51-.18-3.14,2.06-3.22a11.28,11.28,0,0,1,.9,2.88c.12,4.71.1,9.42.13,14.13q0,8.28,0,16.56,0,29.37-.06,58.73c0,8.74,0,17.49,0,26.23v8.52H361c1,0,2,0,3-.08h21l9.94,0h43.49c.58,0,1.16.06,1.75.06H634c.83,0,1.66-.08,2.49-.12a13.33,13.33,0,0,0,.41-2.13c.06-3.25.08-6.5.08-9.74q0-56.85-.06-113.7,0-52.47,0-104.94a23.85,23.85,0,0,0-.48-3.33c-.83,0-1.66-.11-2.49-.11H500.47c-.83,0-1.66.08-2.49.12l-30,0H423c-.91,0-1.82-.11-2.74-.11h-199c-.92,0-1.83.07-2.74.1-.66,0-1.33,0-2-.1-2.35-.36-3.22.51-3.08,3C213.67,287.32,213.56,291.38,213.59,295.43Z" transform="translate(33 -168.89)"/><path class="cls-15" d="M210.45,424.36q0,27.52,0,55.05c-3.38-.15-3.95-.66-4-4q0-23.71,0-47.42C206.52,424.91,207,424.52,210.45,424.36Z" transform="translate(33 -168.89)"/><path class="cls-15" d="M640,488.91q0-27.51,0-55c2.58-.06,3.5,1.35,3.5,3.77q0,23.94,0,47.89C643.52,488,642.43,489.06,640,488.91Z" transform="translate(33 -168.89)"/><path class="cls-15" d="M640,369.39q0-27.51,0-55c3,.25,3.45.64,3.45,3.62q0,23.65,0,47.33C643.49,368.3,642.86,369,640,369.39Z" transform="translate(33 -168.89)"/><path class="cls-1" d="M226,262.38c.85-.49,1.7-1.41,2.55-1.42q22.9-.13,45.82,0c.86,0,1.71,1,2.56,1.49-1,.48-1.95,1.37-2.93,1.37q-22.41.14-44.83,0C228.08,263.81,227,262.88,226,262.38Z" transform="translate(33 -168.89)"/><path class="cls-1" d="M212.12,352.75c.63.93,1.77,1.84,1.79,2.77.16,7.11.14,14.23,0,21.34,0,.88-.88,1.75-1.35,2.62-1.89,0-2.62-.93-2.6-2.79q.06-10.56,0-21.14C210,354,210.46,353,212.12,352.75Z" transform="translate(33 -168.89)"/><path class="cls-1" d="M284,262.38c2-2.17,11.11-2.17,13.06,0a2.43,2.43,0,0,1-.14.2C294.85,264.61,286,264.47,284,262.38Z" transform="translate(33 -168.89)"/><path class="cls-39" d="M591.48,523.76c.92-.79,1.58-1.71,2-1.61.69.17,1.22,1,1.81,1.53-.54.52-1,1.36-1.63,1.46S592.48,524.43,591.48,523.76Z" transform="translate(33 -168.89)"/><path class="cls-39" d="M583.4,527.78c-1.07.63-1.7,1.3-2.31,1.27s-1.36-1-1.27-1.37a2.28,2.28,0,0,1,1.48-1.47C581.83,526.17,582.43,527,583.4,527.78Z" transform="translate(33 -168.89)"/><path class="cls-40" d="M94,581.37c0,2.91,0,5.82,0,8.73,0,2.1-.9,3.57-3.18,3.7-2,.12-3.28-1.29-3.3-3.76q-.06-8.49,0-17c0-2.63,1.17-4.06,3.07-4s3.37,1.68,3.41,4.11c0,2.74,0,5.49,0,8.23Z" transform="translate(33 -168.89)"/><path class="cls-29" d="M69.49,356.4c-6.66,0-13.32-.06-20,0-2.29,0-3.13-.8-3-3.07.13-3,.06-6,0-9,0-1.6.52-2.5,2.29-2.5q21,0,42,0c1.58,0,2.28.7,2.26,2.27,0,3.16-.07,6.33,0,9.49.06,2.07-.79,2.79-2.81,2.77-6.91-.07-13.83,0-20.74,0Z" transform="translate(33 -168.89)"/><path class="cls-29" d="M6.51,532.89c6.66,0,13.32.07,20,0,2.27,0,3.16.75,3.06,3-.14,3-.07,6,0,9,0,1.6-.51,2.51-2.28,2.51q-21,0-42,0c-1.57,0-2.27-.7-2.26-2.27,0-3.16.08-6.33,0-9.49-.07-2,.75-2.8,2.79-2.78C-7.31,532.93-.4,532.89,6.51,532.89Z" transform="translate(33 -168.89)"/><path class="cls-29" d="M724.17,310.39c-6.73,0-13.47-.07-20.2,0-2.31,0-3.11-.84-3-3.08.13-3.08.09-6.16,0-9.23-.05-1.86.58-2.75,2.57-2.74q20.6.08,41.17,0c2,0,2.84.87,2.8,2.86-.07,3.08-.1,6.16,0,9.23.08,2.13-.7,3-2.89,2.94C737.81,310.33,731,310.39,724.17,310.39Z" transform="translate(33 -168.89)"/><path class="cls-29" d="M738,485.89c6.66,0,13.32.07,20,0,2.27,0,3.15.76,3,3-.14,3.16-.09,6.33,0,9.49,0,1.83-.77,2.5-2.55,2.5q-20.73,0-41.46,0c-1.81,0-2.56-.71-2.52-2.52.06-3.25.09-6.5,0-9.74-.07-2.07.78-2.79,2.8-2.76C724.19,485.94,731.1,485.89,738,485.89Z" transform="translate(33 -168.89)"/><path class="cls-29" d="M426.9,555.33c4.52.56,7.82,2.75,9.53,7.08,3.09,5.57,2.48,11.52-1.63,15.89a13.21,13.21,0,0,1-22.72-10.92c.88-5.92,5.52-10.32,11.75-11.22A25.31,25.31,0,0,0,426.9,555.33Z" transform="translate(33 -168.89)"/><path class="cls-6" d="M426.9,555.33a25.31,25.31,0,0,1-3.07.83c-6.23.9-10.87,5.3-11.75,11.22A13.21,13.21,0,0,0,434.8,578.3c4.11-4.37,4.72-10.32,1.63-15.89l1.26-2.9c.94.63,2.27,1,2.77,1.91,3.4,6,2.38,13.83-2.33,19.32a17.38,17.38,0,0,1-18.92,4.76A17,17,0,0,1,408,569.85c-.09-9.48,6.53-16.92,15.77-17.72C426.55,551.89,427.19,552.54,426.9,555.33Z" transform="translate(33 -168.89)"/><path class="cls-21" d="M246.94,592.64H219.23l-.29-.79c1.27-.48,2.52-1.34,3.8-1.36,7-.14,14-.12,21,0,1.17,0,2.33.77,3.49,1.18C247.13,592,247,592.31,246.94,592.64Z" transform="translate(33 -168.89)"/><path class="cls-16" d="M257.45,565a3.7,3.7,0,0,1-7.4,0c0-2.23,1.46-3.61,3.83-3.55A3.34,3.34,0,0,1,257.45,565Z" transform="translate(33 -168.89)"/><path class="cls-16" d="M232.16,554a3.69,3.69,0,0,1,.28,7.38,3.69,3.69,0,0,1-3.89-3.39A3.84,3.84,0,0,1,232.16,554Z" transform="translate(33 -168.89)"/><path class="cls-41" d="M259.63,558.33c-1-1.59-2-2.48-1.91-3.31s1.39-2,1.94-1.89a3.08,3.08,0,0,1,2.1,2C261.85,555.91,260.72,556.81,259.63,558.33Z" transform="translate(33 -168.89)"/><path class="cls-23" d="M393,668.37H319.46c.19-3.59.63-4.15,4.11-4.72a21.28,21.28,0,0,1,3.48-.24q28.95,0,57.89,0a26.46,26.46,0,0,1,4,.32C392.52,664.31,392.85,664.71,393,668.37Z" transform="translate(33 -168.89)"/><path class="cls-23" d="M89.51,668.38h-24c.42-3.36,1.09-4.36,4.43-4.56a134.87,134.87,0,0,1,15.18-.07C88.36,663.93,89.09,665.07,89.51,668.38Z" transform="translate(33 -168.89)"/><path class="cls-16" d="M379.46,619.07c.23-2.76,1.3-3.71,3.17-3.62a2.51,2.51,0,0,1,2.62,2.72,2.71,2.71,0,0,1-3,2.9C381.11,620.92,380.14,619.59,379.46,619.07Z" transform="translate(33 -168.89)"/><path class="cls-8" d="M372.39,615.4c-.9,2.3-1.64,4.4-2.6,6.4-.2.41-1.29.67-1.85.53a1.77,1.77,0,0,1-.75-1.56,48.55,48.55,0,0,1,2.3-6,2.15,2.15,0,0,1,1.8-.73C371.71,614.12,372,614.94,372.39,615.4Z" transform="translate(33 -168.89)"/><path class="cls-16" d="M391.8,607c1,1.46,2,2.33,2,3.14s-1.45,2-1.93,1.89a3.38,3.38,0,0,1-2.08-2.14C389.64,609.3,390.77,608.41,391.8,607Z" transform="translate(33 -168.89)"/><path class="cls-34" d="M55.32,615,78.83,615c.22,2.19-1.39,1.9-2.66,1.9-7.06,0-14.11,0-21.17,0H54C54.43,616.26,54.87,615.64,55.32,615Z" transform="translate(33 -168.89)"/><path class="cls-21" d="M55.32,615c-.45.61-.89,1.23-1.33,1.85a29.19,29.19,0,0,1-5.07,1q-17.19.12-34.37,0a23,23,0,0,1-4.55-1L8.79,615Z" transform="translate(33 -168.89)"/><path class="cls-24" d="M423,280.42h10c-.26.88-.55,1.75-.78,2.63q-6.63,26-13.26,52.06Q408,378.33,397.08,421.57q-10,39.62-19.93,79.23c-.43,1.69-.77,3.4-1.15,5.1l-.46.06c-1,.05-2,.17-3,.15-2.19,0-4.39-.14-6.59-.21Q394.51,393.16,423,280.42Z" transform="translate(33 -168.89)"/><path class="cls-22" d="M364,514.31c-1,0-2,.08-3,.08H213.56v-8.52q21.85,0,43.69.06a3.62,3.62,0,0,0,3.26-1.72A5.65,5.65,0,0,1,264.3,502c15-.15,30-.11,44.93-.08,2.56,0,4,1.42,4.28,4a18.27,18.27,0,0,0,2.9.48c3.91.06,7.82,0,11.72,0q17.22,0,34.42,0c2.85,0,3.05.31,2.45,3C364.64,511.05,364.34,512.69,364,514.31Z" transform="translate(33 -168.89)"/><path class="cls-6" d="M241.68,293.11c-.27.76-.44,1.31-.66,1.84q-6.47,15-13,29.94c-.23.53-.4,1.2-.82,1.5a2.08,2.08,0,0,1-1.74.38c-.42-.2-.65-1-.76-1.59-.07-.35.21-.79.38-1.17q6.57-15.19,13.16-30.38c.2-.46.34-1.06.71-1.28a2.58,2.58,0,0,1,1.75-.4C241.14,292,241.4,292.74,241.68,293.11Z" transform="translate(33 -168.89)"/><path class="cls-9" d="M364,514.31c.33-1.62.63-3.26,1-4.87.6-2.73.4-3-2.45-3q-17.21,0-34.42,0c-3.9,0-7.81,0-11.72,0a18.27,18.27,0,0,1-2.9-.48l52.48,0c2.2.07,4.4.17,6.59.21,1,0,2-.1,3-.15q-.78,4.17-1.55,8.34Z" transform="translate(33 -168.89)"/><path class="cls-22" d="M213.58,420.91q0-8.28,0-16.56c3.12-.79,5,.29,5.23,3.38a59.15,59.15,0,0,1-.24,9.69C218.25,420.58,216.74,421.45,213.58,420.91Z" transform="translate(33 -168.89)"/><path class="cls-22" d="M213.59,295.43c0-4.05.08-8.11-.14-12.15-.14-2.46.73-3.33,3.08-3,.65.09,1.32.07,2,.1.08,4,.42,7.94.16,11.88C218.47,295.39,216.72,296.23,213.59,295.43Z" transform="translate(33 -168.89)"/><path class="cls-10" d="M236.35,319.36c.29-.83.45-1.39.67-1.91,2-4.72,4-9.46,6.15-14.13.36-.77,1.61-1.8,2.19-1.66,1.6.38,1.07,1.7.59,2.81-2.11,4.86-4.18,9.75-6.38,14.57a3.49,3.49,0,0,1-2,1.41C237.34,320.55,236.76,319.73,236.35,319.36Z" transform="translate(33 -168.89)"/><path class="cls-42" d="M235,328.88c-.64-.94-1.8-1.91-1.75-2.81a3.38,3.38,0,0,1,2.21-2.27,2,2,0,0,1,2.42,2.31c-.14,1-1.14,1.81-1.76,2.7Z" transform="translate(33 -168.89)"/><path class="cls-37" d="M498,280.43c.83,0,1.66-.12,2.49-.12H634c.83,0,1.66.07,2.49.11,0,.25,0,.5,0,.75.13,2.24.3,4.32-2.94,4.67-.78.08-1.85,1.94-1.94,3a56.38,56.38,0,0,0,0,10c.11,1.19,1.35,3,2.37,3.23,2.19.49,2.52,1.59,2.52,3.48q-.07,39.14,0,78.25c-3.58-.36-5,.72-5,4.09q0,24.36,0,48.72c0,3.47,1.46,4.54,5,3.87l0,65.36H621.08a16.74,16.74,0,0,0-.69-4.25c-.17-.4-2.43-.46-2.55-.18a23.18,23.18,0,0,0-1,4.52c-.83.24-1.64-.35-2.09-1.82a5.27,5.27,0,0,0-5.3-4.13,5.16,5.16,0,0,0-5.16,4c-.44,1.43-1.31,2.3-2.7,1.86a4,4,0,0,1-2.31-2c-1-2.34-2.51-3.84-5-3.81a4.69,4.69,0,0,0-4.78,3.68c-.48,1.82-1.62,2.27-3.33,2.23-3.33-.08-6.66-.07-10,0-1.73,0-2.88-.25-3.61-2.19-.35-.91-2.22-1.7-3.38-1.67-.85,0-1.74,1.41-2.46,2.3-.29.37-.19,1.06-.23,1.31H554.25c.92-2.93.93-5.61-1.59-7a6.33,6.33,0,0,0-5.13-.1c-3.08,1.57-2,4.63-1.53,7.16l-11,.6c.4-.63,1.15-1.26,1.13-1.88a7.2,7.2,0,0,0-.87-3.79c-.35-.5-2.49-.51-3,0-.73.8-.78,2.26-1,3.47-.06.39.35.85.73,1.71H441c.6-2.59,1.15-5.19,1.8-7.76q10.6-42,21.24-84,11.79-46.64,23.58-93.26C491.05,307.36,494.53,293.9,498,280.43ZM538.6,496.61a2.86,2.86,0,0,0,2.92-3.16c0-2-.9-3.18-2.86-3.41a3.5,3.5,0,0,0-3.52,3.2A3.42,3.42,0,0,0,538.6,496.61ZM518,501.1c-.09-1.85-1-3-2.83-3.14a2.62,2.62,0,0,0-3.1,2.74c-.09,1.85.78,3,2.71,3.13A2.89,2.89,0,0,0,518,501.1Zm66.58-13.2c-1.11,1.69-2.31,2.72-2.24,3.65s1.68,2.21,2.4,2.09A3.57,3.57,0,0,0,587,491.2C587.16,490.46,585.81,489.48,584.56,487.9ZM582.24,498c-1,1.32-2.21,2.21-2.07,2.75.26,1,1.31,1.72,2,2.56.75-.72,2-1.39,2.09-2.18S583.25,499.46,582.24,498ZM549.4,484.91c-1.42-1.12-2.24-2.26-2.91-2.17-.87.11-1.61,1.2-2.4,1.86.65.74,1.24,2,1.95,2.06S547.8,485.8,549.4,484.91Zm21.74-.75c-.91,1.41-1.83,2.22-1.72,2.85a2.86,2.86,0,0,0,1.9,1.68c.36.09,1.49-1.06,1.49-1.65C572.81,486.3,572,485.57,571.14,484.16Zm1.45,12.69c-1.2-.87-2-1.82-2.49-1.71a3,3,0,0,0-1.85,1.76c-.12.4,1,1.67,1.56,1.66C570.56,498.55,571.3,497.7,572.59,496.85Zm7.91-3.42c-1.16-.8-2-1.76-2.47-1.62-.72.21-1.22,1.21-1.82,1.87.64.52,1.26,1.43,1.92,1.46S579.41,494.26,580.5,493.43ZM529,492.3c.79-1.11,1.74-1.9,1.6-2.37-.22-.73-1.18-1.23-1.83-1.83-.53.61-1.45,1.21-1.48,1.85S528.14,491.21,529,492.3Zm69.8-3.21c-.84,1.28-1.59,1.94-1.59,2.59s1,1.57,1.39,1.5a2.41,2.41,0,0,0,1.71-1.47C600.4,491.14,599.59,490.4,598.78,489.09Zm-5,0c-1.32-.77-2-1.49-2.67-1.45s-1.52,1.07-1.43,1.46a2.42,2.42,0,0,0,1.56,1.64C591.82,490.77,592.52,489.91,593.79,489ZM557.85,487c-1.06-.66-1.68-1.34-2.17-1.26s-.91.9-1.36,1.4c.46.4.92,1.12,1.38,1.12S556.8,487.6,557.85,487ZM554,493.31c-1-.58-1.63-1.23-1.92-1.09a3.25,3.25,0,0,0-1.27,1.52c0,.12.81,1,1.13.93C552.53,494.55,553,494,554,493.31Zm-28.47,5c.66-.9,1.29-1.38,1.26-1.82a1.73,1.73,0,0,0-1-1.33c-.4-.07-1.32.58-1.33.95C524.4,496.67,525,497.25,525.53,498.31Zm35.32.76c-.93-.5-1.5-1.05-1.94-1s-.79.8-1.18,1.24c.45.4.9,1.1,1.37,1.1S560,499.77,560.85,499.07Z" transform="translate(33 -168.89)"/><path class="cls-29" d="M498,280.43c-3.45,13.47-6.93,26.93-10.34,40.41q-11.82,46.62-23.58,93.26-10.62,42-21.24,84c-.65,2.57-1.2,5.17-1.8,7.76,0,.15,0,.31-.08.46l-2.46,8H409q.77-3.71,1.54-7.4c2.07-8.07,4.17-16.13,6.21-24.2q10.68-42.17,21.33-84.33,13.35-52.83,26.69-105.66c1-4.11,2.13-8.22,3.2-12.33Z" transform="translate(33 -168.89)"/><path class="cls-37" d="M468,280.41c-1.07,4.11-2.16,8.22-3.2,12.33q-13.35,52.83-26.69,105.66-10.65,42.17-21.33,84.33c-2,8.07-4.14,16.13-6.21,24.2a10.39,10.39,0,0,0-2.88-1c-3.39-.13-6.78-.06-10.18-.06.24-1.31.4-2.63.72-3.92q7.63-30.14,15.3-60.27,11-43.46,22-86.92,6.51-25.79,13-51.58c1.9-7.58,3.66-15.2,5.48-22.81Z" transform="translate(33 -168.89)"/><path class="cls-37" d="M376,505.9c.38-1.7.72-3.41,1.15-5.1q9.94-39.62,19.93-79.23Q408,378.34,419,335.11q6.6-26,13.26-52.06c.23-.88.52-1.75.78-2.63H444.5c-.26.88-.56,1.75-.78,2.63q-9.18,36.19-18.34,72.38-12.08,47.7-24.11,95.4-6.61,26.15-13.2,52.31c-.75,2.94-.53,3.22,2.42,3.25,2.17,0,4.33,0,6.5,0l-2,7.94-9.94,0c.55-1.91,1.08-3.82,1.64-5.72s-.07-2.67-2-2.65C381.8,506,378.9,505.91,376,505.9Z" transform="translate(33 -168.89)"/><path class="cls-43" d="M397,506.38c-2.17,0-4.33,0-6.5,0-2.95,0-3.17-.31-2.42-3.25q6.58-26.16,13.2-52.31,12-47.7,24.11-95.4,9.15-36.19,18.34-72.38c.22-.88.52-1.75.78-2.63H454c-1.82,7.61-3.58,15.23-5.48,22.81q-6.45,25.81-13,51.58-11,43.47-22,86.92-7.63,30.13-15.3,60.27c-.32,1.29-.48,2.61-.72,3.92Z" transform="translate(33 -168.89)"/><path class="cls-22" d="M438.48,514.33c.82-2.65,1.64-5.31,2.47-8H535l11-.6c-.49-2.53-1.55-5.59,1.53-7.16a6.33,6.33,0,0,1,5.13.1c2.52,1.36,2.51,4,1.59,7h12.26c0-.25-.06-.94.23-1.31.72-.89,1.61-2.28,2.46-2.3,1.16,0,3,.76,3.38,1.67.73,1.94,1.88,2.22,3.61,2.19,3.33-.07,6.66-.08,10,0,1.71,0,2.85-.41,3.33-2.23a4.69,4.69,0,0,1,4.78-3.68c2.5,0,4.05,1.47,5,3.81a4,4,0,0,0,2.31,2c1.39.44,2.26-.43,2.7-1.86a5.16,5.16,0,0,1,5.16-4,5.27,5.27,0,0,1,5.3,4.13c.45,1.47,1.26,2.06,2.09,1.82a23.18,23.18,0,0,1,1-4.52c.12-.28,2.38-.22,2.55.18a16.74,16.74,0,0,1,.69,4.25h15.41q0,4.2,0,8.4c-.83,0-1.66.12-2.49.12H440.23C439.64,514.39,439.06,514.35,438.48,514.33Z" transform="translate(33 -168.89)"/><path class="cls-44" d="M636.5,514.26q0-4.2,0-8.4l0-65.36q0-28.33,0-56.68,0-39.12,0-78.25c0-1.89-.33-3-2.52-3.48-1-.24-2.26-2-2.37-3.23a56.38,56.38,0,0,1,0-10c.09-1.1,1.16-3,1.94-3,3.24-.35,3.07-2.43,2.94-4.67,0-.25,0-.5,0-.75a23.85,23.85,0,0,1,.48,3.33q0,52.47,0,104.94,0,56.85.06,113.7c0,3.24,0,6.49-.08,9.74A13.33,13.33,0,0,1,636.5,514.26Z" transform="translate(33 -168.89)"/><path class="cls-22" d="M397,506.38l.52-.47c3.4,0,6.79-.07,10.18.06a10.39,10.39,0,0,1,2.88,1q-.78,3.69-1.54,7.4H395Z" transform="translate(33 -168.89)"/><path class="cls-22" d="M376,505.9c2.9,0,5.8.05,8.69,0,1.93,0,2.54.84,2,2.65s-1.09,3.81-1.64,5.72H374q.76-4.17,1.55-8.34Z" transform="translate(33 -168.89)"/><path class="cls-45" d="M636.47,383.82q0,28.33,0,56.68c-3.49.67-4.94-.4-5-3.87q-.06-24.36,0-48.72C631.51,384.54,632.89,383.46,636.47,383.82Z" transform="translate(33 -168.89)"/><path class="cls-22" d="M535,506.38H441c0-.15,0-.31.07-.46h91.05c-.38-.86-.79-1.32-.73-1.71.19-1.21.24-2.67,1-3.47.49-.53,2.63-.52,3,0a7.2,7.2,0,0,1,.87,3.79C536.18,505.12,535.43,505.75,535,506.38Z" transform="translate(33 -168.89)"/><path class="cls-22" d="M538.6,496.61a3.42,3.42,0,0,1-3.46-3.37,3.5,3.5,0,0,1,3.52-3.2c2,.23,2.87,1.43,2.86,3.41A2.86,2.86,0,0,1,538.6,496.61Z" transform="translate(33 -168.89)"/><path class="cls-22" d="M518,501.1a2.89,2.89,0,0,1-3.22,2.73c-1.93-.09-2.8-1.28-2.71-3.13a2.62,2.62,0,0,1,3.1-2.74C517,498.07,517.89,499.25,518,501.1Z" transform="translate(33 -168.89)"/><path class="cls-22" d="M584.56,487.9c1.25,1.58,2.6,2.56,2.48,3.3a3.57,3.57,0,0,1-2.32,2.44c-.72.12-2.33-1.28-2.4-2.09S583.45,489.59,584.56,487.9Z" transform="translate(33 -168.89)"/><path class="cls-22" d="M582.24,498c1,1.46,2.13,2.36,2,3.13s-1.34,1.46-2.09,2.18c-.71-.84-1.76-1.59-2-2.56C580,500.21,581.2,499.32,582.24,498Z" transform="translate(33 -168.89)"/><path class="cls-17" d="M549.4,484.91c-1.6.89-2.53,1.84-3.36,1.75s-1.3-1.32-1.95-2.06c.79-.66,1.53-1.75,2.4-1.86C547.16,482.65,548,483.79,549.4,484.91Z" transform="translate(33 -168.89)"/><path class="cls-46" d="M571.14,484.16c.87,1.41,1.67,2.14,1.67,2.88,0,.59-1.13,1.74-1.49,1.65a2.86,2.86,0,0,1-1.9-1.68C569.31,486.38,570.23,485.57,571.14,484.16Z" transform="translate(33 -168.89)"/><path class="cls-17" d="M572.59,496.85c-1.29.85-2,1.7-2.78,1.71-.55,0-1.68-1.26-1.56-1.66a3,3,0,0,1,1.85-1.76C570.63,495,571.39,496,572.59,496.85Z" transform="translate(33 -168.89)"/><path class="cls-46" d="M580.5,493.43c-1.09.83-1.75,1.73-2.37,1.71s-1.28-.94-1.92-1.46c.6-.66,1.1-1.66,1.82-1.87C578.53,491.67,579.34,492.63,580.5,493.43Z" transform="translate(33 -168.89)"/><path class="cls-46" d="M529,492.3c-.84-1.09-1.74-1.74-1.71-2.35s1-1.24,1.48-1.85c.65.6,1.61,1.1,1.83,1.83C530.72,490.4,529.77,491.19,529,492.3Z" transform="translate(33 -168.89)"/><path class="cls-17" d="M598.78,489.09c.81,1.31,1.62,2.05,1.51,2.62a2.41,2.41,0,0,1-1.71,1.47c-.4.07-1.38-1-1.39-1.5S597.94,490.37,598.78,489.09Z" transform="translate(33 -168.89)"/><path class="cls-17" d="M593.79,489c-1.27.87-2,1.73-2.54,1.65a2.42,2.42,0,0,1-1.56-1.64c-.09-.39.89-1.43,1.43-1.46S592.47,488.27,593.79,489Z" transform="translate(33 -168.89)"/><path class="cls-47" d="M557.85,487c-1.05.65-1.6,1.26-2.15,1.26s-.92-.72-1.38-1.12c.45-.5.84-1.31,1.36-1.4S556.79,486.29,557.85,487Z" transform="translate(33 -168.89)"/><path class="cls-47" d="M554,493.31c-1,.69-1.47,1.24-2.06,1.36-.32.06-1.18-.81-1.13-.93a3.25,3.25,0,0,1,1.27-1.52C552.37,492.08,553,492.73,554,493.31Z" transform="translate(33 -168.89)"/><path class="cls-46" d="M525.53,498.31c-.57-1.06-1.13-1.64-1.1-2.2,0-.37.93-1,1.33-.95a1.73,1.73,0,0,1,1,1.33C526.82,496.93,526.19,497.41,525.53,498.31Z" transform="translate(33 -168.89)"/><path class="cls-46" d="M560.85,499.07c-.83.7-1.3,1.39-1.75,1.38s-.92-.7-1.37-1.1c.39-.44.72-1.15,1.18-1.24S559.92,498.57,560.85,499.07Z" transform="translate(33 -168.89)"/></svg>