<svg id="Capa_1" data-name="Capa 1" xmlns="http://www.w3.org/2000/svg" viewBox="0 0 400.15 397.92"><path d="M621,283.43c-.38,1.63-.8,3.25-1.16,4.88a45.66,45.66,0,0,1-12.72,22.87q-88,88-176.12,176a17.43,17.43,0,0,1-7.28,4.15q-40.15,11.38-80.41,22.42c-10.29,2.84-16.48-3.34-13.63-13.63,7.41-26.82,14.82-53.64,22.43-80.41a18.06,18.06,0,0,1,4.4-7.58Q444.17,324.24,532,236.59c19-19,46.11-18.74,65.21.18q5.13,5.08,10.21,10.24c7,7.07,11.48,15.38,12.87,25.29a7.59,7.59,0,0,0,.74,1.75Zm-98.83-7.79L377.94,419.9l45.55,45.62c48.06-48,96.39-96.32,144.37-144.29Zm61.53,30.91c4.14-4.44,8.91-8.76,12.71-13.8a23.55,23.55,0,0,0-1.09-29,153.19,153.19,0,0,0-15.71-15.7,23.38,23.38,0,0,0-28.35-1.44c-5.32,3.81-9.8,8.81-14.43,13.07ZM403.3,476.5l-36.38-36.37c-4.46,16.18-9.08,32.88-13.89,50.29Z" transform="translate(-220.89 -222.48)"/><path d="M410.46,620.38q-69.37,0-138.76,0c-24.72-.05-44.06-15.33-49.48-39a53.2,53.2,0,0,1-1.27-11.6q-.1-128.8,0-257.59c0-25.91,16.93-45.81,42.43-50.24a49.59,49.59,0,0,1,8.18-.49c28.66,0,57.33,0,86-.07,5,0,8.7,1.72,10.67,6.28,2.61,6-2.09,12.95-9,13.24-4.94.21-9.9.06-14.85.06-24.24,0-48.47-.06-72.7,0-15,.05-26.33,8.67-30.07,23a39.72,39.72,0,0,0-1.07,10q-.08,126.84,0,253.68c0,16.41,7.91,27.78,22.29,31.85a36,36,0,0,0,9.64,1.24q138,.1,276,0c19.21,0,32-12.9,32-32.2.05-28.41,0-56.81,0-85.21,0-6.33,3.8-10.66,9.33-10.84a9.61,9.61,0,0,1,10.08,9.23c.17,4.68.06,9.38.06,14.07,0,24.88.12,49.77,0,74.65-.15,23.74-15.4,43-38.28,48.46a61.82,61.82,0,0,1-13.94,1.3Q479.06,620.46,410.46,620.38Z" transform="translate(-220.89 -222.48)"/></svg>