<?xml version="1.0" encoding="utf-8"?>
<!-- Generator: Adobe Illustrator 25.4.1, SVG Export Plug-In . SVG Version: 6.00 Build 0)  -->
<svg version="1.1" id="Capa_1" xmlns="http://www.w3.org/2000/svg" xmlns:xlink="http://www.w3.org/1999/xlink" x="0px" y="0px"
	 viewBox="0 0 512 353.5" style="enable-background:new 0 0 512 353.5;" xml:space="preserve">
<style type="text/css">
	.st0{fill:#FFFFFF;}
</style>
<g>
	<path class="st0" d="M0,21.7c34.2,29.4,68.4,58.8,102.6,88.2c23,19.8,45.9,39.5,68.9,59.3l4.5,3.9c-2.8,2.4-5.3,4.7-7.9,7L0,324.7
		V21.7z"/>
	<path class="st0" d="M512,324.7L350.7,185.9L336,173.2c7.4-6.4,14.7-12.7,21.9-18.9L512,21.7V324.7z"/>
	<path class="st0" d="M256,202.4L21,0h470.1L256,202.4z"/>
	<path class="st0" d="M499.3,353.5H12.7L199.1,193l56.9,48.9l56.9-48.9L499.3,353.5z"/>
</g>
</svg>
