<svg id="Capa_1" data-name="Capa 1" xmlns="http://www.w3.org/2000/svg" viewBox="0 0 383.26 383.67"><path d="M229,433.24V409.29c.46-3.57.93-7.13,1.38-10.7,6.39-50.84,29.28-92.88,68.74-125.34,62.09-51.08,147.65-58.63,217-17.88C577.89,291.71,610,347,612.17,418.8c1.19,39.2-9.74,75.5-31.68,108.05-30.47,45.23-72.7,73-126.42,83.07-7.08,1.32-14.28,2-21.42,3h-24a22.27,22.27,0,0,0-2.87-.62c-38.18-3-72.55-16.12-102.65-39.77-38.74-30.44-62.64-70-71.31-118.58C230.64,447.07,229.94,440.13,229,433.24Zm263.65-54.63c1.07-.84,1.83-1.46,2.61-2.06a50.93,50.93,0,0,0-31-91.51q-43.79-.06-87.58,0a50.91,50.91,0,0,0-30.94,91.24c.94.74,1.85,1.51,2.93,2.4C334,389.41,326,403.47,326,421.46s8.23,31.9,22.52,42.31a4.86,4.86,0,0,1-.43.65c-.89.69-1.81,1.34-2.66,2.06C328.94,480.39,322.57,498,327.61,519c5.94,24.69,30.25,41.32,54.8,38.32,26.67-3.26,46.24-24.42,46.53-50.52.16-14.47,0-28.94,0-43.4v-3.91c28.95,23.53,63.76,11,77.39-9.1C520.58,429.41,518.93,397.48,492.65,378.61Z" transform="translate(-229 -229.22)"/><path d="M412.16,301.63v68.28a15.51,15.51,0,0,1-2.36.38c-11.09,0-22.19.15-33.28,0-17.29-.27-31.84-13.43-33.65-30.18a34.14,34.14,0,0,1,26.31-37.37,52.86,52.86,0,0,1,11.12-1C390.76,301.55,401.23,301.63,412.16,301.63Z" transform="translate(-229 -229.22)"/><path d="M429.12,370.31v-68c.34-.23.53-.5.73-.5,12.59,0,25.23-.7,37.74.29,18.23,1.44,31.12,16.26,31,34.11a33.66,33.66,0,0,1-31,33.8c-10.78.91-21.68.27-32.52.31Z" transform="translate(-229 -229.22)"/><path d="M412.15,387.12V455.6c-3.87,0-7.57,0-11.28,0-8.85,0-17.74.44-26.54-.25a33.88,33.88,0,0,1-31.59-32.94c-.41-18.07,11.85-33.06,30.07-34.92,12-1.22,24.15-.45,36.24-.56C410,386.93,411,387.05,412.15,387.12Z" transform="translate(-229 -229.22)"/><path d="M411.7,472.3c0,13.57,1.05,26.84-.26,39.88-1.71,17.06-19.37,30.08-36.43,28.55-18.87-1.69-32.48-16.3-32.29-34.67.18-17.84,14.11-32.84,32-33.66C387.08,471.84,399.43,472.3,411.7,472.3Z" transform="translate(-229 -229.22)"/><path d="M498.63,421.31c0,19.19-15.55,34.41-35,34.29-19.19-.12-34.66-15.48-34.63-34.39s15.53-34.21,34.72-34.28C483.18,386.86,498.65,402.09,498.63,421.31Z" transform="translate(-229 -229.22)"/></svg>