<svg id="Capa_1" data-name="Capa 1" xmlns="http://www.w3.org/2000/svg" viewBox="0 0 287.61 359.44"><path d="M276.9,421.28q0-67.75,0-135.49c0-26.29,17.89-44.24,44.1-44.24q81.42,0,162.84-.07a11.58,11.58,0,0,1,8.92,3.67q34.05,34.25,68.29,68.29a10.78,10.78,0,0,1,3.45,8.25q-.11,117.9-.07,235.79c0,25.25-18.18,43.41-43.42,43.42q-100.32,0-200.65,0c-25.25,0-43.43-18.17-43.45-43.39Q276.85,489.4,276.9,421.28Zm12,71.57h263.3V325.4c-9.63,0-19,.23-28.32-.1a53.89,53.89,0,0,1-14.32-2.15c-17.38-5.52-28.71-21.18-28.93-39.45-.13-9.94,0-19.89,0-30.18H321.23c-20,0-32.35,12.47-32.35,32.51V492.85Zm263.48,12.5H288.88c0,17.6,0,34.93,0,52.26,0,18.45,12.85,31.28,31.3,31.31,16.59,0,33.19,0,49.78,0q75.81,0,151.6,0c16.43,0,30-11.46,30.61-27.26C552.94,543,552.36,524.28,552.36,505.35ZM492.58,262.42c0,7.67-.12,14.73,0,21.79.29,14.12,10.4,26.39,24.4,28.45,7.7,1.12,15.64.57,23.47.74a22.73,22.73,0,0,0,2.81-.29Z" transform="translate(-276.89 -241.48)"/><path d="M402.94,445.17c-4.71-.15-7.12-4-5.6-8.67q6.81-20.76,13.75-41.48,10.44-31.35,20.91-62.7,2.85-8.54,8.49-6.66c3.87,1.28,4.81,4.63,2.91,10.34q-17.25,51.72-34.46,103.44C407.86,442.69,406.26,445,402.94,445.17Z" transform="translate(-276.89 -241.48)"/><path d="M351.19,385.19l29.5,29.49c4.54,4.54,5.21,7.9,2.17,10.83s-6.17,2.14-10.55-2.23L340,391c-4.38-4.4-4.39-7,0-11.37q16.53-16.56,33.07-33.08c.35-.35.69-.72,1.06-1.05,2.92-2.63,6.22-2.81,8.7-.47s2.59,6-.27,9c-6,6.16-12.13,12.21-18.23,18.28C360.08,376.47,355.81,380.65,351.19,385.19Z" transform="translate(-276.89 -241.48)"/><path d="M489.87,385.28c-1-1-1.79-2-2.66-2.83q-14-14-28-28.06c-3.14-3.16-3.38-6.63-.8-9.22s6.08-2.4,9.22.72Q484.86,363,502,380.29c3.49,3.51,3.48,6.51,0,10q-17.14,17.25-34.4,34.39c-3.13,3.12-6.67,3.28-9.22.65s-2.28-6.05.87-9.22c9.33-9.38,18.69-18.7,28-28.06C488.11,387.23,488.92,386.31,489.87,385.28Z" transform="translate(-276.89 -241.48)"/><path d="M444.63,545.54l10.91-21.72c.56-1.11,1.1-2.24,1.69-3.33,1.4-2.59,3.6-3.87,6.5-3.27a5.64,5.64,0,0,1,4.83,5.83q.07,23.94,0,47.88a5.82,5.82,0,0,1-5.91,6c-3.39,0-5.92-2.49-6-6.3-.1-6.83,0-13.65-.72-20.71-1.76,3.47-3.58,6.91-5.25,10.42-1.28,2.67-3,4.65-6.18,4.59-3-.06-4.65-1.95-5.86-4.49a58.93,58.93,0,0,0-6-10.32q0,9.43,0,18.88c0,5.09-2.08,7.86-5.89,7.93s-6.08-2.74-6.08-7.72q0-22.26,0-44.52c0-4.36,1.52-6.85,4.72-7.45,3.69-.69,5.77,1.35,7.29,4.45C436.48,529.38,440.37,537,444.63,545.54Z" transform="translate(-276.89 -241.48)"/><path d="M348.79,553.15h-12c0,5.46,0,10.78,0,16.1,0,4.93-2.32,7.78-6.14,7.67s-5.82-2.78-5.83-7.61q0-22.44,0-44.88c0-4.66,2.35-7.41,6.09-7.34s5.84,2.74,5.87,7.18c0,5.46,0,10.91,0,16.55h12c0-5.63,0-11.31,0-17,0-3.06,1.17-5.34,4.13-6.41,4-1.45,7.78,1.53,7.83,6.33.09,8.23,0,16.46,0,24.69,0,6.85,0,13.71,0,20.57,0,5.08-2.09,7.86-5.9,7.91s-6.05-2.75-6.07-7.74C348.77,564,348.79,558.73,348.79,553.15Z" transform="translate(-276.89 -241.48)"/><path d="M492.56,565c5.67,0,11,0,16.33,0,4.78,0,7.5,2.13,7.6,5.83s-2.74,6.12-7.68,6.14c-7,0-14,0-20.95,0-5.12,0-7.26-2.16-7.27-7.3q0-22.62,0-45.25c0-4.63,2.39-7.4,6.13-7.3s5.82,2.77,5.83,7.22c0,12.1,0,24.19,0,36.28Z" transform="translate(-276.89 -241.48)"/><path d="M396.71,529v31c0,3.49.07,7,0,10.46-.1,3.86-2.45,6.39-5.81,6.48s-6.09-2.53-6.11-6.54c-.07-12.71,0-25.42,0-38.12V529c-2.21,0-4.05.09-5.88,0-3.58-.21-6-2.6-6.07-5.84-.08-3.4,2.42-6,6.19-6.07q11.77-.17,23.55,0a5.9,5.9,0,0,1,6.14,5.76c.11,3.37-2.41,5.94-6.14,6.15C400.78,529.11,399,529,396.71,529Z" transform="translate(-276.89 -241.48)"/></svg>