<svg id="Capa_1" data-name="Capa 1" xmlns="http://www.w3.org/2000/svg" viewBox="0 0 762.03 547.27"><path d="M739.71,183.92l7.56-4.55c-.52-1.15-1.1-2.47-1.86-4.17l-3.95,2.91c-.15-3.44-.15-3.44,6.84-6.5-1.13-1.77-3.34-3.74-3.07-5.27s3-2.61,5-4.12c-5-2.92-1.74-6.15.13-9.36-5-.07-5.57-1.43-2.24-4.37,1.22-1.07,2.51-2.07,3.8-3.14-4.93-3.06-4.83-3.56,2.33-8.36l-5.78-.49c1-1.28,1.49-2.48,2.41-3.12,2.53-1.76,2.93-3.56,1.28-6.28-.66-1.09-.4-3-.08-4.36.36-1.56,1.36-3,1.93-4.5s.84-2.84,1.25-4.27h1.46c.55,2.6,1,5.23,1.65,7.81s1.82,4.84,2.11,7.34c.54,4.73.62,9.52.88,14.29a3.36,3.36,0,0,1-.09,1c-1,4.86-1,4.86,2.78,7.59a19.7,19.7,0,0,1-2.09,1.89,18.62,18.62,0,0,1-2.88,1.2l6.21,4.57-3.55,3.15,5.26,5.95-6.78,3.94c2.3,1.28,4.57,2.53,8.41,4.64l-9.63,4,8.09,3.4c-.77,1.33-1.37,2.37-1.88,3.27l5.06,7.56c-4.75,2.3-3.91,5.21-1.42,8.75.79,1.13.12,3.3.12,5l-1.46.27,4.28,4.51-1.77.56c.18,2,.34,4,.53,6a25.93,25.93,0,0,0,.35,2.79c.62,3,1.35,6.06,1.92,9.11.65,3.45.9,7,1.85,10.37.44,1.59,1.94,3,3.23,4.22,3.71,3.47,8.49,6.19,11.16,10.31,6.11,9.4,1.4,24.75-9.07,32-16.87,11.6-33.82,23.09-50.66,34.74-1.24.86-2.63,2.67-2.62,4,.21,19,.79,37.91,1,56.87.27,24.14.3,48.29.39,72.43q.07,18.48-.06,36.95a17.2,17.2,0,0,1-.91,3.81h-1.47a14.31,14.31,0,0,1-.8-3.36c0-40,.29-79.94.08-119.9-.09-16.27,0-32.68-2.14-48.75-2.38-17.95-13.89-29.35-31.58-33.82-16.9-4.26-33.88-8.19-50.82-12.28-16-3.87-32-7.65-47.9-11.72-4.31-1.11-8.42-3.07-12.57-4.77a7.5,7.5,0,0,0-8.27,1.06c-2.95,2.32-6.41,4-10.63,6.56a461.8,461.8,0,0,1,75,36.32c-.19.54-.38,1.09-.56,1.64A23.94,23.94,0,0,1,631,307.9c-16.21-8.37-32.27-17-48.6-25.12-7.28-3.61-15-6.22-22.68-9.06-1.5-.56-3.38-.08-5.08-.08l-.59,1.8c5.23,2.57,10.36,5.36,15.71,7.62,3.5,1.48,7.51,1.76,10.94,3.34,6.87,3.16,13.49,6.88,20.23,10.32,3.52,1.79,7.11,3.45,10.64,5.23,5.3,2.67,10.58,5.41,15.87,8.11l9.27,4.76c.73-4.29,3.75-6.85,2.52-11.42-.7-2.63,1.66-6.25,3.16-9.16.3-.6,3.87-.56,4.21.1a17,17,0,0,1,1.45,6.3c.36,3.66,0,7.45.82,11a9.25,9.25,0,0,0,4.13,5.65c11.43,5.66,19,14.65,20.26,27.11a320.08,320.08,0,0,1,1.53,45.71c-1.16,26.93-3.66,53.81-5.46,80.72-.41,6-.18,12-.38,18a27.48,27.48,0,0,1-1,4.75l-1.63-.08a27.25,27.25,0,0,1-.45-4.41c1.12-18.27,2.37-36.54,3.44-54.82,1.29-22.27,2.45-44.56,3.63-66.84a26.62,26.62,0,0,0-.61-4.27c-4.62,3.09-8.84,5.85-13,8.69q-47.62,32.53-95.22,65.1c-18.94,12.94-38,25.76-56.85,38.78-7.78,5.36-15.23,11.21-23,16.63-14.14,9.89-30.35,14.62-46.82,18.85-19.09,4.9-37.91,1.48-57-.2-32.83-2.88-63.55-14.1-95-22.22-42.69-11-85.13-23-127.67-34.52-29.51-8-59.18-15.46-88.45-24.25-13.64-4.11-26.5-10.91-34.76-23.65-7.18-11.09-6.17-22.77,1.88-33.23,7.93-10.29,18.7-15.79,30.59-19.49,14.41-4.49,29-8.42,43.4-12.88,2.46-.77,4.45-3,6.78-4.69-2.41-2.45-4.67-4.45-.47-6.43a1.45,1.45,0,0,0,.59-1.13c0-3.48,0-3.48,2.46-4.9-5-1.21-2.61-3.39-2-5.08-.52-1.2-1.81-3.06-1.43-3.51,3.43-4,2.66-8.85,3.22-13.49s1.74-9.4,2.77-14.77c.12.09-.72-.58-1.84-1.45,3.36-3.31,3.8-6.75,1.19-9.6l9.76-43.1c4.11,3.25,7.8,26.69,6.11,30.84.1,2.3.21,4.6.29,6.91,0,.81-.06,1.64,0,2.45.32,3.65,1.75,7,1.43,11-.37,4.6,1.72,9.36,2.48,14.1.54,3.35.49,6.8,1,10.15.27,1.69,1.34,3.23,1.9,4.89a40.07,40.07,0,0,1,1,4.2l16.1-4.92c1.71-12.61,3.26-24.12,4.82-35.62l1.85-.12c5,6.86,1.55,16.9,7.91,23.67,3.94-19.09,7.79-37.7,11.75-56.85,4.29,4.8,6.7,20.79,4.22,25.14l2.67,2.4c.16,2.58-.47,5.3.57,6.33,2.76,2.76,1.09,3.84,1.12,3l6,8.07c2.76-3.15,6.38-7.32,10.06-11.45,2.63-2.95,5.07-6.15,8-8.71,3.83-3.29,8.08-4.62,13.3-2.22,3.71,1.7,8,2.14,12.71,3.32,2.65-12.08,5-24,9.11-35.55,5.35,8.73.07,19.4,6.85,27.71l-4,2.28,4.39,2c-2.32,4.86-.33,7.76,3.18,11.41,6.28,6.53,12.6,4.73,19.49,2.44,10.1-3.36,20.11-7.06,30.38-9.81,5.6-1.5,7.32-5,8.34-9.83a30.14,30.14,0,0,1,1.21-3.58l1.49-.29c1.06,2.61,2.11,5.22,3.53,8.73l45.88-14.6v-.86c-5.48-.33-11-.62-16.45-1-11.34-.84-22.47-2.61-32.92-7.45-12.7-5.87-15.9-16.69-8.15-28.18,2.4-3.56,5.12-6.9,7.85-10.54-5.88-3.93,2.71-10.58-2.57-15.34l4.08-3.64L325,181.55,328,170c-1.87-2.05-.94-6.17,1.94-8.61.38-3.35.53-5.33.84-7.28.82-5.22,1.75-10.43,2.56-15.66.95-6.18,1.81-12.38,2.75-18.86,2.56,1.56,5.57,14.1,5.52,16.92-.11,5.42.51,10.85.84,16.44l3.63,1.31-3.1,3.92,4.07,1.3-2.85,4.87,3.29.91c-1.09,1.54-2,2.81-3,4.21,5.19.76,2.15,3.64,1.48,5.91,5,1.36,2.47,6.16,4.28,9.1l8.66-5.28c.41-2.67.86-4.78,1-6.92.35-4.25.55-8.52.83-12.77,0-.48,0-1.19.27-1.38,4.14-2.76,3-4.94-1.3-6.49l6-7.67-2-1.24c.5-2.8,1-5.35,1.42-7.9l-1.86-.83,5.47-3.46-.72-1.2-2.78-.44-1-1.08,4.59-3c-3.4-3.89-2.48-6.13,4.3-7.61l-6.42-3.69,5.49-4.21L370,107.62c.42-2.62.8-4.91,1.25-7.72l4.27-2.6-5.31-1.06c.33-1.56.65-3.12,1-4.86l5.19.27.27-1.3-5.88-1.78,6-7.73h-6l5.83-6.11L372,72l6.9-3.18-6.14-3.23,5-2.21-1.88-1.27c.61-2.53,1.33-5,1.8-7.61s.7-5.32,1-8H381c.54,6,1.08,12,1.72,19.06.78,6.45,1.71,14.12,2.63,21.78l1.71.28c-1.58.91-3.17,1.81-5.41,3.11L388,94.61l-3.26,2.76c3.68,2.12,1.44,3.72-1.75,5.33l3.91,2c1.55,5.3,2.83,9.7,4.42,15.13l-7.3,3.94,7,.64V138.2l4.53,3.57-.75,1.14h-3.59l5.55,6.36-3.19.79a3.37,3.37,0,0,0,.45.78c1.05,1.1,2.09,2.23,3.22,3.26a23.21,23.21,0,0,0,4.65,3.67c.35.17,2.28-1.83,2.83-3.11,16.74-38.37,45.46-63.72,84.52-77.74,28.31-10.17,56.67-10.57,85,.06a22,22,0,0,0,5.28.94c2.35-8.79,4.55-17,6.74-25.2l.52.2c.53-2.54,1.07-5.08,1.6-7.63l1.53-.36-2.32-1.45,3.36-7.22,1.3-.42c1,3.35,2,6.71,3.17,10.67L594,48c1.91,6.08,3.51,11.7,5.47,17.19,1,2.86.78,11.13-1.12,12.81l4.37,2.1-1.34,1.81c1.34,3.9,3.31,7.33,3.54,10.87.34,5.08,2.14,7.27,7.09,6.6,4.4-.6,8.83-1,13.92-1.5a37.6,37.6,0,0,1-.61-6.53A98.54,98.54,0,0,1,627,78.62c1-5.31,3.19-10.46,3.72-15.8,1.63-16.18,16.59-24.68,31.07-17.29a5.57,5.57,0,0,0,1.34.2l1.62-4.07,1.2-.14c.82,3.13,2.15,6.23,2.31,9.4.23,4.35-.61,8.7,1.61,12.88.43.8-1,2.56-1.54,3.87l1.49-.13c.45,2.71,1.07,5.41,1.32,8.14.29,3.17-.65,6.1,2.46,9.14,2.1,2,1.59,6.76,2.25,10.27,15,.53,29.6,1.47,43.42,7.09a40.3,40.3,0,0,1,6.66,3.35c8.34,5.37,10.6,13.6,6.31,22.53-4.16,8.66-11.1,15-18.4,20.77-15.59,12.39-32.91,22-50.92,30.37-10.86,5.05-21.88,9.72-32.79,14.66a6.75,6.75,0,0,0-3.3,2.71c-2.94,6.48-5.6,13.09-8.51,20l10.21,2.58,4.69-15.59c3.73,3,4.64,9,2.19,12.38,2,5.39,6.81,5.18,11.18,5.92L688.53,229l5.55-12.79-3.73-.41,3.22-3.57c-1.5-6.59.59-12.22,2.7-17.84l1.54-.16a43,43,0,0,1,1.41,6.24c.53,6.4.83,12.83,1.24,19.24a21.75,21.75,0,0,1-.17,6.29c6.42,9.78,18,6.46,27.28,9.61a34.15,34.15,0,0,0,5.6.87c1.93-3.54-1.18-10.13,6.17-10.94l-5.19-2.4,7.85-3.41-7.29-1.18c2.51-2.26,4.33-3.88,5.76-5.16l-5.68-1.58,3.6-8.73-3.61-1.83c.65-.87,1.31-1.73,1.94-2.61,1.5-2.09,3.08-4.13,4.44-6.31,1-1.67,1.8-3.51,2.86-5.65ZM479,280l.11.12a49.41,49.41,0,0,1,4.16-3.2q10.58-6.58,21.26-13c2.94-1.79,3.17-3.42.27-5.14-8.46,5.2-16.51,10.53-24.94,15.18a76.53,76.53,0,0,1-15.24,6c-10.84,3.17-21.75,5.94-31,13-2.17,1.65-5.22,2.09-7.77,3.27q-12.17,5.61-24.27,11.36c-8.08,3.82-16.08,7.79-24.21,11.49-3.45,1.58-7.39,2.19-10.67,4-10.37,5.8-22,9.32-31.2,17.29-1.08.93-2.74,1.17-4.09,1.81-6.29,3-13.32,5-18.69,9.19a146.35,146.35,0,0,1-34.56,19.72c-3.06,1.26-5.82,3.27-10,5.67,11.52,2.6,21.44,4.59,31.22,7.16,4.8,1.26,8.43.66,12.14-2.79,2.82-2.62,6.48-4.35,9.76-6.48l1.09,1.68-12,9.08.85,1.36c6.06-3.23,12-6.58,18.18-9.64s12.53-5.85,18.8-8.76c-7.72,10.22-21.83,10-30.17,19.38a11.52,11.52,0,0,0,5.4-.95c4.14-1.67,8.23-3.44,12.35-5.17,5.61-2.36,11.45-4.32,16.79-7.19,8.76-4.72,17.16-10.09,25.79-15,1.29-.74,3-.72,4.55-1a262.09,262.09,0,0,1-28,17.49c-9.44,4.94-19.41,8.86-30.18,13.69,8.43,1.91,15.65,3.7,22.94,5.08a6.08,6.08,0,0,0,4.64-1.66,31.14,31.14,0,0,1,19.28-9.42c6-.73,12-2.53,17.87-4.11,2.53-.68,4.53-1.74,3.88-5.48-.37-2.11,1.58-4.62,2.73-7.58-1.48-2.63,1.22-18.71,6-24.6,1.7,10.6,3.4,21.19,4.93,30.75,8.45,1.48,16.42,2.9,24.4,4.26.93.16,2.3.4,2.81-.09,3.22-3.08,6.26-6.36,9.36-9.58l-.75-.79-9,1.4-.37-1.83a58.83,58.83,0,0,0,7.24-2.12c4-1.73,8.36-3.18,11.69-5.84a150.6,150.6,0,0,0,15.53-14.78c5.66-6,10.95-12.44,16.28-18.78,2.72-3.25,2.45-6.37-1.09-9-1.15-.86-2.21-1.86-3.41-2.87l-5.37,4c-10,7.44-19.6,15.45-32,19-7,2-13.91,4.37-20.81,6.72a41.92,41.92,0,0,0-5.39,2.73l-.94-1.2c1.16-1.07,2.15-2.52,3.52-3.12,4.71-2,9.51-3.93,14.35-5.66,6.55-2.33,13.7-3.54,19.63-6.91,8.93-5.06,17-11.58,25.47-17.51.64-.45,1.56-1.13,1.58-1.73.18-6,4.95-8.37,8.92-11.2,7.3-5.21,14.88-10,22.21-15.2,5.06-3.58,5.67-9.18,1.64-13.75-4.33,3-8.55,6.19-13.07,8.94-7.77,4.73-15.34,10.09-23.69,13.47-8.87,3.59-18.67,4.9-26.05,11.77-.12.11-.58-.16-1.93-.59,1.48-1.75,2.44-3.73,4-4.59,4.49-2.47,9-5.51,13.92-6.49,17.72-3.54,30.65-15.26,44.81-25.45-1.64-.68-3.3-.83-4.41-.13-6,3.81-11.8,8.08-18,11.67C485.47,278.82,482.08,279.11,479,280ZM209.59,426.84l.33-1.92a38.19,38.19,0,0,1,3.84.56c29.2,7.2,58.42,14.34,87.59,21.68Q334,455.37,366.5,464c21.81,5.78,43.81,5,65.89,2.23,22.56-2.78,41.94-13.71,61-24.9,22.94-13.46,45.31-27.88,67.86-42q42.51-26.59,84.92-53.38c6.7-4.22,13.38-8.47,20.55-13-2.63-2.88-4.82-5.1-6.79-7.49s-4.06-2.71-6.83-.93c-5.45,3.51-11.12,6.68-16.68,10Q576,370.9,515.55,407.21c-9.71,5.83-19.56,11.41-29.1,17.49a13.17,13.17,0,0,1-10.82,1.88c-23.82-5.47-47.63-10.77-71.51-16.19L234.75,371.87c-35.38-8-70.82-15.78-106.22-23.72-8.87-2-8.87-2.15-2.9-9.08.14-.16,0-.54,0-.3-20,5.94-40.22,11.52-60.13,18-9.07,3-18,6.94-24.4,14.87-2.84,3.5-2.37,5.73,1.16,7.43,6.12,2.94,12.2,6.39,18.7,8,43.67,11.15,87.44,21.87,131.17,32.76,5.45,1.36,10.86,2.89,16.28,4.33-.1.58-.21,1.15-.32,1.73a32.08,32.08,0,0,1-3.79-.43q-10.44-2.46-20.85-5c-33.26-8.23-66.55-16.38-99.78-24.78-16.32-4.12-33.38-6.34-47.21-17.51-3.27,4.79-5.5,9.61-4.17,15.22A34.91,34.91,0,0,0,43,412c9.88,8.83,21.45,14.16,34.15,17.56,25.39,6.78,50.71,13.86,76.06,20.76q79.2,21.58,158.4,43.07c15.41,4.17,30.82,8.41,46.42,11.74,9.87,2.11,20.1,2.51,30.15,3.85,15.56,2.08,31.07,3.67,46.63-.13,16.7-4.07,33.19-8.56,47.5-18.69q16.44-11.64,33-23.1c20.58-14.12,41.24-28.12,61.84-42.21q45.94-31.44,91.82-63c1.26-.87,2.92-2.33,3-3.58a53.08,53.08,0,0,0-4.31-22.72c-2.26,1.34-4.12,2.37-5.91,3.5-10.15,6.36-20.27,12.76-30.43,19.1q-33.14,20.69-66.32,41.3c-26.46,16.34-53.07,32.45-79.49,48.86-16.9,10.51-34.87,18.21-54.68,20.6-24.59,3-48.93,3.35-73-5.1-14.17-5-29.24-7.35-43.89-11q-40.47-10-80.92-20.11C225.25,430.87,217.42,428.84,209.59,426.84ZM456.31,239a28,28,0,0,0,3.65-.33c19.06-3.93,38.23-7.38,57.13-11.95,54.16-13.1,106.93-30.29,156.66-55.83,18.4-9.45,36.41-19.75,50.36-35.41,11.14-12.51,11.44-24.26-5.25-30.46a119.59,119.59,0,0,0-31-6.55c-12.46-1.1-25.09-.26-37.77-.26.65,5,2.58,7,7.53,6.86,7.27-.13,14.76,0,21.79,1.65,11.17,2.59,12.64,8.79,3.7,16-7.3,5.91-15.59,10.71-23.81,15.34-3.67,2.07-5.34,4-3.64,8.45,13.07-5.84,26.32-11.36,36.46-21.86,6.84-7.07,5.22-13.82-3.61-18.47-1.67-.88-3.22-2-4.82-3,12.77.37,18.61,10.81,12.37,20.87a23,23,0,0,1-7.28,7.34c-9.35,5.71-18.9,11.1-28.56,16.28-5.25,2.82-5.87,3.59-4.09,9.34l9.89,1.74c-.07.76-.13,1.52-.2,2.27h-10.5v1.68l14.57,1.9v1.52c-1.13.33-2.29,1-3.37.94-7.63-.72-14.68.57-22.23,2.55-10.6,2.78-22.09,2.21-33.2,3-.91.06-1.87-.69-3.26-1.25,8.18-4,8.18-4,7.44-6.2-19.81,5.57-38.38,15.17-58.94,18.45a6.79,6.79,0,0,1,3.58-2.48c17.59-6.1,35.17-12.23,52.8-18.22,2.94-1,4.57-2.26,3.28-5.77-11.71,4-23.11,8.18-34.64,11.89-46.6,15-93.86,27.5-142.1,36-22,3.89-44,7.44-66.44,7a94.62,94.62,0,0,1-20.65-2.8c-6.46-1.58-7.9-6.94-3.36-11.77,3.72-3.95,7.87-7.85,12.56-10.47,11.32-6.3,23.06-11.84,34.63-17.68,1.64-.83,3.31-1.59,5-2.39-.16-.37-.31-.74-.47-1.12a26.86,26.86,0,0,0-3.17,1c-4.55,2-9,4.3-13.62,6.14-1.2.48-2.88-.23-4.34-.4l-.39-1.54c-9.31,5.48-18.79,10.69-27.87,16.52C339.48,194.89,328.24,203,320.61,215c-4.46,7-4.22,14.51,1.51,18.94a44.85,44.85,0,0,0,13.45,7.22c15.06,4.79,30.72,5.93,46.37,5.12,19.27-1,38.49-2.87,57.72-4.49,3.73-.31,6.9-1.39,5.85-6.5-.56-2.77.75-4.83,4-5,.34,0,.66-.48,1.23-.94l-3.87-.39a99,99,0,0,1,2.1-10.22,82.85,82.85,0,0,1,4-8.92l1.8.09c.75,5,2.21,10,2,14.95C456.61,229.31,460.7,234.11,456.31,239Zm85.1,128c.74.39,1.08.72,1.29.65,1.41-.47,2.82-1,4.18-1.55,13-5.68,26.23-10.61,40.86-9.33,2.13.18,4.73.82,6.37-.09,8.8-4.88,17.36-10.19,26.06-15.39-8.41-5.4-15.93-10.93-24.08-15.27s-16.88-7.47-25.36-11.13c.29-.72.58-1.43.88-2.14,8.48,3.45,17.23,6.38,25.36,10.51,7.68,3.9,14.59,9.27,22.1,13.54a9.74,9.74,0,0,0,7.36.54c3.65-1.4,6.86-3.93,9.54-5.56v-14c-7.31-3.92-15.15-8.19-23-12.34-5.69-3-11.4-6-17.22-8.67-6.41-3-12.79-6.27-19.5-8.41-10.43-3.33-20.26-7.49-28.63-14.7-6-5.15-13.08-7.67-20.67-9.37-4.8-1.08-9.43-2.94-14.13-4.49-1.1-.36-2.15-.91-3.67-1.56,3.67,8.41,11,9.15,18,10.62a37,37,0,0,1,10.22,3.47c3.9,2.16,7.16,5.49,11,7.71,6.17,3.52,12.3,7.71,19,9.52,10.39,2.8,20.49,5.81,29.23,12.22a71.91,71.91,0,0,0,24.18,11.52c1.47.39,2.74,1.53,4.11,2.32-1.25,1.09-2.13,1.4-2.77,1.13-7.77-3.28-16-5.88-23.14-10.19-9.18-5.52-18.17-11.22-28.8-13.29A56,56,0,0,1,544,280.44c-7.66-6.59-16.39-9.63-26.68-9.72,1.23,1.76,2.73,3.67,4.55,4,8.17,1.67,15.66,4.74,21.64,10.56,6.48,6.32,14.71,8.61,22.83,11.66,10.85,4.08,21.31,9.2,31.87,14,1.39.63,2.4,2.09,3.59,3.16l-.83,1.17a17.58,17.58,0,0,1-3.35-1.33c-11.53-7.64-24.58-11.62-37.45-16.18a64.84,64.84,0,0,1-16.83-9.25c-7.68-5.72-15.33-10.93-23.88-11.23L508,289l12.62,6.8c-.35.69-.7,1.39-1,2.08-3.7-1.79-7.36-3.64-11.1-5.35-1.41-.64-3.51-1.81-4.39-1.27-6.58,4.05-12.93,8.46-20,13.2,9.77,7.16,20.45,11.88,25.5,24.2-6.75-2.11-7.59-8.95-12.05-11.82-4.72-3-9.53-5.94-14.71-9.15-.11,7.4,8.41,8.39,9.9,12.78-2.28,1.8-4.08,2.82-5.34,4.29-4.19,4.92-8,10.13-12.31,15-3.67,4.17-7.74,8-12,12.33l12.15,11.32L473.76,365l-11-9.48-26.18,22.7c9.73,1.87,17.7,3.86,26.14,1.68,5.77-1.49,11.8-1.91,17.67-3,1.15-.22,2.78-1.26,3.06-2.24,1.88-6.59,3.49-13.25,5.12-19.91.63-2.57,1.05-5.19,1.65-7.77.66-2.81,1.42-5.59,2.13-8.38h0l2.85-10.82,1.85-.29c1.53,4.84,3.05,9.68,4.2,13.33l-2.44,5.25,3.51,2.77-2.89,7.76c.47.19,1.78.3,2.16,1,1.91,3.32.57,7.88,4,10.72.06,0-.74.86-.65,1.17a41,41,0,0,0,2.17,6.1c.18.36,1.76,0,1.58,0,3.32-5.92-1.47-13.12,3.69-16.51.46-3.4.73-5.41,1-7.43-.66-.72-1.25-2.16-.82-2.61a29.38,29.38,0,0,1,4.56-3.27l-2.44-1.17v-6.53c3.42-2.66,4.1-9.67-.08-11.9l7.16-5.54h-4.09c1-2.43,1.87-4.48,2.83-6.81h4.92l-6.24-2.38c2.16-4.26,7-7.73,2.65-11.84a53.69,53.69,0,0,0,2.74-5.47c.73-2,1.11-4.11,1.64-6.17h1.37c1.27,3.64,4.31,7.81,3.41,10.78-1.53,5,2.14,8.93,1.07,13.49-.37,1.57-.06,3.29-.06,5.87.45.28,4.43.13,1.1,3.63a1.31,1.31,0,0,0,.18,1.25c4.25,2.71,1,4.29-1.6,6.42,4.5.1,5.76,2,4.44,5.68-.34.94.28,2.21.42,3.34.54,4.14,1.07,8.29,1.64,12.76l4,2.08-4.35,2.11,3.68,3.13-2.35,2.21,7.24,3.64Zm-286.54-6.24c.52-3.26.89-5.43,1.2-7.61.87-6.27,1.75-12.55,2.56-18.84.64-5-.79-10.73,5.71-14.86.76,3.41,1.64,6.4,2.06,9.46a42.25,42.25,0,0,1,.4,9.06c-.21,2.71,5,5.89-1.34,7.79,7.38,3.59.6,4.58-.64,6.66l3.67.69,3.15,11.65-1.31,1.39,3.73,4.91c1.92-2.25,4.44-3.95,5-6.15,1.05-4.06.79-8.44,1.39-12.64.72-5,1.77-9.93,2.68-14.89h2.21l5.17,26.08,25.92-18.31c-5.56-3.49-10.55-6.62-15.55-9.74l.61-1.21c1.79.55,3.73.81,5.33,1.69,3.49,1.94,6.71,4.35,10.22,6.23,1.45.77,3.36.67,5.07,1-5.57-5.37-10.87-10.27-16.89-14s-12.6-6.21-19-9.24l.68-1.3a60.55,60.55,0,0,1,28.54,14.76c9.6,8.79,14.45,8.48,24.69.82,4.56-3.42,10-5.65,15.12-8.32,3-1.58,6.17-2.94,9.26-4.41l.09-1.9c-8.7-2.89-17.35-6-26.12-8.63-6.48-2-13.24-3-19.62-5.25-4.49-1.55-8.39-4.78-12.85-6.47-6.19-2.33-13.16-3-18.91-6-9-4.82-17.23-11.19-26-16.57a42.36,42.36,0,0,0-11.24-4.87c-4.59-1.2-9.43-1.44-14.17-2.09-1.16-.16-2.32-.28-3.48-.41l-.47,1.86c2.74.82,5.63,2.64,8.2,2.27,8.06-1.22,14,1.78,19.36,7.13a81,81,0,0,0,42.12,22.37,21.71,21.71,0,0,1,7.71,3.21c7.94,5.3,15.83,10.42,25.81,11.06,2.44.15,4.8,1.66,7.19,2.55l-.7,1.83c-9-2.21-18.54-2.31-26.58-8.22-3.85-2.83-8-6.22-12.42-7.1a89.54,89.54,0,0,1-47.17-25.42c-4.26-4.28-9.52-5.61-15.71-3.49a28.79,28.79,0,0,0,6.35,3.58c4,1.79,9,2.61,11.78,5.52,9.74,10.07,20.33,17.82,34.58,20.41,5,.9,9.41,4.66,14.1,7.12l-.94,2c-1.64-.62-3.3-1.19-4.91-1.89-4.24-1.87-8.29-4.75-12.72-5.53-11.64-2-20.48-8.2-28.31-16.57-2.81-3-6.27-5.4-9.43-8.08l-1.12,1.24,4,4.16c5,5.26,4.87,9-1.17,13-5.24,3.45-10.86,6.32-16,9.26L248,328.59l-.84,1c-1.17-.67-2.69-1.08-3.45-2.07a51.67,51.67,0,0,1-4.77-7.47c-2.29-4.44-5.91-6.7-8.6-5.65l18.3,24.12c-2.86,1.44-5.07-.6-6.63-2.76a93.63,93.63,0,0,1-7-11.5c-2.6-5-7.7-7.55-11.35-4.84,1.25,1.32,2.28,2.89,3.71,3.85,10.24,6.87,6.12,12.23-.31,17.51-2.86,2.34-5.59,4.83-9,7.79l29.17,13.37-.3,1.38c-3.65-.89-7.53-1.29-10.91-2.79-5.6-2.49-10.9-5.65-16.28-8.62-2.66-1.47-4.32-.68-5.55,1.91-1.49,3.11-3.08,6.17-4.89,9.77,13.61,3.08,27,6.12,40.39,9.12,3.62.81,3.35-1.94,3.95-4.21.54-2.06,1.72-3.95,2.9-6.54Zm-78.1-21.31c-6.64,5.12-16.59,3.86-22.58,11.7,16.4,3.66,32.24,7.37,48.18,10.5,1.87.37,5.33-1.95,6.39-3.92,3.52-6.5,7.32-12.58,13.51-16.92a40,40,0,0,0,6.06-5.18c2.16-2.27,3.77-4.73.58-7.67-2.9-2.68-4.91-1.86-7.51.62-3.19,3.06-7,5.53-10.47,8.25l-1-1.14a7,7,0,0,1,1.13-1.84c3.16-2.71,6.47-5.25,9.54-8.06.85-.78,1-2.29,1.51-3.46-1.29.21-2.94,0-3.79.72a48.54,48.54,0,0,0-6.19,6.47c-7,8.64-16.9,11.57-27.37,13.5a12.31,12.31,0,0,1,5.74-3.85c6.76-1.75,12.95-4.43,17.72-9.65,10.1-11.05,21.55-20.08,35.6-25.79,3.76-1.52,8-3.68,9.78-8.7L233,305.35c3.44-8.29,13.34-7.1,18.52-13.72l-21.91-19.07c-2.21,2.37-5,4.43-6.56,7.17-6.32,10.93-15.33,18.54-26.63,24-6.35,3.07-12.11,7.37-18.18,11-4.11,2.47-8.05,5.65-12.53,7-7.56,2.23-15,4.28-20.77,10-.12.12-.6-.13-1.73-.41.63-1.16.9-2.57,1.71-3.05,4.53-2.64,9-5.87,13.86-7.37,7-2.11,13.32-4.74,19-9.46A74.76,74.76,0,0,1,192,302.6c9.62-4.81,18.81-10,25.13-19.11,3.24-4.68,6.9-9.08,10.82-14.21-1.08-.07-2.61-.67-3.3-.15-2.88,2.18-6.18,4.25-8.12,7.17-7.9,11.9-18.21,20.55-31.57,25.72A46.23,46.23,0,0,0,174,307.91a62.45,62.45,0,0,1-22.89,10.64c-5.13,1.27-9.83,3.56-13.13,8.24-3.95,5.69-8.29,11.11-12.43,16.68-.15.19,0,.61,0,1.21,7.06,1.59,14.16,3.36,21.33,4.68a7.56,7.56,0,0,0,5.51-1.47c7.16-5.78,15.51-7.67,24.36-8.43Zm400.7,27.7c-8.5-2-15.9.89-22.48,5.29-14.86,9.92-30.86,15.41-48.84,14.5-7.13-.37-14.25-1.15-21.38-1.27-13.5-.25-25,5.65-36.38,12.11a30.6,30.6,0,0,1-3.21,1.41l-.82-1.26a41.14,41.14,0,0,1,4.64-3.78c16.15-10,33.61-12.78,52.44-10.7,8.6.94,17.91.66,26.16-1.66,9.4-2.64,18.07-8,26.89-12.52,7.52-3.85,15.16-7.22,23.76-5.68,4.15.75,6.89-.56,10.16-3.6-1.73-.22-2.82-.42-3.92-.48-10.07-.55-19.35,2.58-28.55,6.11s-18.39,8.15-28,10.35c-10.11,2.3-20.75,2.33-31.16,3.28-10.07.91-20.29.93-30.19,2.74-13.55,2.49-25.71,8.95-37.26,16.31-5,3.21-9.63,7.13-15.16,11.29,6.86,1.6,12.45,2.62,17.85,4.26,3.88,1.18,6.49.14,9.22-2.59,10.62-10.59,23.13-17.86,38.05-20.51a36.81,36.81,0,0,1,6.3,0c-8,3.48-16.28,5.47-23.6,9.27-7.54,3.92-14.15,9.62-21.16,14.53l1.2,2.24c2.17-.84,4.73-1.2,6.44-2.6,11-9,22.74-16.18,37.47-16.8,8.72-.37,17.44-.76,26.16-1.1.17,0,.36.45.85,1.1-4.33,4-9.72,3.28-14.84,3.43-6.45.2-13.05-.55-19.32.59-11.13,2-20.48,7.91-29.34,16.25,5.76,1.27,10.58,3.11,15.4,3.1,2.88,0,5.66-3.09,8.66-4.43,1.85-.82,4-.94,6-1.38l.42,1.47L470,421.58c7.41,3.68,13,2.76,19.3-1.32,15.16-9.83,30.88-18.81,46.38-28.11ZM321.85,303.73,363,315c1.29-7.29,2.66-15,4-22.65l2.63-.11c1.62,6.9,3.23,13.79,5,21.49,5.25-5.47,12.6-8.54,13.78-17.27l-5.25.76-.54-1,4.45-3.41-.26-.71-11.47,2.45c.05-1.63.32-2.28.68-2.33,9.22-1.32,15.38-8.15,22.83-12.65,2.32-1.4,3.31-3.2,1.53-5.78-1.27-1.84-2.41-3.78-3.74-5.89a67.8,67.8,0,0,1-45.43,12c-5.29-.43-10.94,1.72-16.2,3.41-6.59,2.1-12.94,5-19.42,7.43a9.06,9.06,0,0,1-2.94,0l-.33-1.43c1.83-.79,3.63-1.69,5.51-2.34,4.06-1.43,8.67-2,12.15-4.24a35.33,35.33,0,0,1,23.69-5.92c13.75,1.38,26.43-1.9,38.13-9.13a20.72,20.72,0,0,0,3.19-3.09l-.95-1.15c-2.74,1.05-5.45,2.19-8.23,3.13-10.84,3.66-21.44,8.14-33.35,7.2a37.91,37.91,0,0,0-23,5.42c-6.61,4-13.65,5.52-21.23,6.38-5.18.58-10.14,3.14-15.35,4.86,8.24,3.79,15.57,7.18,22.93,10.52a3.85,3.85,0,0,0,2.29.35c4.53-1,9-2.23,13.54-3.29,1.53-.37,3.12-.5,4.69-.74l.37,1.79ZM703,234.92c1,7.89,1.9,15.27,2.82,22.68,11.92,2.2,23.86,4.32,35.76,6.66,2,.39,3.77,1.74,6.62,3.12-11.48,6.92-21.68,13-31.86,19.21-5.71,3.46-6.13,11.08-.75,15.77,11.52-7.16,23.28-14.07,34.6-21.64,9.63-6.44,19-13.4,28-20.65,4.09-3.28,3.28-7.49-1.45-10-3.93-2.07-8.14-4.08-12.46-4.91-19.58-3.75-39.28-7-58.91-10.56A9.47,9.47,0,0,0,703,234.92Zm21.71,87,1.74,1.11c17.13-11.72,34.35-23.32,51.35-35.23,7.08-5,10.54-12.26,11.14-20.86.3-4.36-1.51-7.87-4.54-11-7.23,13.51-20.82,18.7-32.13,26.49s-23.5,14.9-35.6,22.48c1.79,2.55,3.3,4.69,5,7.13l18.49-12.93,1.35,1.78L722.6,315.11,724,317l42.83-29.45,1,1.4a48.33,48.33,0,0,1-4,3.36C752,300.73,740,309.11,728.06,317.62c-1.41,1-2.24,2.82-3.34,4.26ZM398.57,171.24a112.11,112.11,0,0,0-10.27,4.56C376.61,182.37,364.92,189,353.53,196c-2.13,1.32-4.33,5.19-3.86,7.3s4.19,4,6.79,4.58c13.31,2.81,26.7,1.75,40,.1C397.14,195.71,397.84,183.7,398.57,171.24Zm288.22,85.65-45.09-8.4c1.23,4.43,2.37,8.52,3.6,12.93l-2.23,3,7.35,3.17-2.76,2.25c.26,2.79.19,4.83.72,6.69.33,1.16,1.41,2.71,2.44,3,8.35,2.17,16.75,4.13,25.17,6,2.27.51,3.76,0,3.57-3.11-.12-1.84,1.23-3.72,1.56-5.64.51-3,.7-6,1-9l-1.55-.76,8-4.14-5.86-1Zm2.82-11.39c-3.31-1.13-4.37-4.81-2.39-7.92,2.31-3.65,1.52-5.65-2.66-6.47-3.9-.78-7.81-1.52-11.73-2.16-11.08-1.81-22.18-3.56-34.75-5.56,4.84,5.17-1.25,4.58-2.13,6.84l6,3.38c-5.83,5.57,2.38,8,2.64,12.77l36.95,6.73c3,.54,5.58.24,8-2.82h-6.47ZM421.72,287.74c-8.26,2.38-11.55-8.36-20.67-6.86,3.13,2.37,5.32,4,7.52,5.68l-1,1.7-9.47-4.82a20.81,20.81,0,0,1-3.7,2.91c-3.75,1.76-4.93,3.89-3.46,8.25,1.52,4.53-.36,8.81-4,12.1-3.2,2.87-6.35,5.79-9.53,8.69l.61,1.2c6.46-3.16,13.39-5.63,19.27-9.64a105.52,105.52,0,0,1,30-14.35c3.36-1,6.18-3.86,9.24-5.87-2.89-2.51-5.47-5.6-8.75-7.43-8.54-4.76-17.39-9-26.12-13.4-.9-.45-1.82-.88-2.73-1.32l-.67,1.16c8.87,9.64,23.31,10.66,32.43,19.91L430.1,287l-25-12.49-.93,1.66ZM648.42,117a14.57,14.57,0,0,0-.44-14.47,65.45,65.45,0,0,0-6-8.5c-5.93-7.11-6.49-13.17-.41-20,2.44-2.74,6.48-4.31,10.07-5.7s7.6-2.22,9.28-6.26c.68-1.64.4-3.66.94-5.38,1.32-4.18-.2-9.07-3.88-10.13-10.18-2.93-22.92,2.84-24,13.83-.67,7-1.2,13.93-4.6,20.65-4,7.81-.31,18.22,5.92,23.41C640,108.33,644.17,112.88,648.42,117Zm3.87,21.59c11.19-5.34,22.18-10.09,30.77-18.78,4.83-4.89,3.72-9.76-2.9-10.75-8.79-1.31-17.73-1.64-25.94-2.34-1.81,6.15-4.16,11-4.45,16S651.27,132.77,652.29,138.61ZM601,253l-.4,2c-3.79-.94-7.89-3.23-11.3-2.46-3.73.85-6.83,4.53-10.75,7.37a131.69,131.69,0,0,0,38.6,10.43L620,256.94l-1.23-.75,7.84-2.31L620,251.21c2.36-4.55,1.5-6.38-2.89-7.2s-8.91-1.34-13.26-2.46c-3.88-1-5.82.66-7.46,4l20.31,6c-.21.65-.41,1.31-.61,2L592.63,248l-.44,1.63Zm-193.48,8-.91-1.82,10.21-6.44-.18-1.7c-1.72,0-3.59-.46-5.13.07-15.08,5.22-30.12,10.6-45.16,16l-8.2,3a6.74,6.74,0,0,0,5,.55c9.65-3,19.37-5.93,28.82-9.5,3.46-1.31,5.79-.77,8.77.81q14.49,7.72,29.26,14.91c5.33,2.59,5.42,2.35,6.65-3.49a12.21,12.21,0,0,1,1-2.32l-15.18-12.18-5.88,4-1-1,4.63-6-.81-.72Zm1.61-12.12-.32-1.62c-8.91,1.24-18,1.83-26.7,3.87-10.32,2.41-20.37,6-30.5,9.21a163.56,163.56,0,0,0-17.32,6.17c-1.44.64-1.87,3.66-2.52,5.67,0,.15,2.08,1.54,3,1.35,6.32-1.33,12.73-2.51,18.85-4.52,10.73-3.53,21.28-7.62,31.89-11.49l23.61-8.64Zm39.36,134.87c-14.77-1.05-28.47-10.33-44-5.17l4.18,1v9.35c3.71,1.44,5.1,6.21,2.64,10.13l3.87,5.89,15-11.19-8.11-3.64c5.46-2.85,10.54,5.17,16.06-1.06l-24.39-6.59.13-1.46c2.36,0,4.81-.4,7.07.09,3.55.76,7,2.17,10.46,3.22,5.68,1.67,11.38,3.56,17.08-.57ZM733.26,272.53l-15.72-4.71c.17-.64.34-1.28.5-1.92,1.46.23,3,.33,4.37.69,4,1,8,2.53,12.08,3.1,2.44.34,5.06-.73,7.6-1.16l-.21-1.76c-10.79-1.93-21.56-4-32.37-5.75-3.16-.52-3.79.49-3.82,4.73l2.78-.13L712.13,286l14.66-8.8-4.94-2.41C725.76,271.8,730.34,277.61,733.26,272.53ZM360.8,398.74l14-2.3-2.4,3.81,15.32,3.48c1.51-7.26,2.93-14.12,4.3-20.75-8.51,1.46-16.17,2.72-23.82,4.09-5.73,1-10.13,4.27-13.59,9.09,4.36-1.29,8.15-4,12.38-5.17s9.15-.86,13.75-1.19l.24,1.49C375.44,395.75,366.43,390.24,360.8,398.74ZM628.45,132c2.14-2.42,3.85-6,6.38-6.71,2.15-.62,5.25,2,7.84,3.14.5-1.51.9-2.92,1.44-4.29,2.15-5.49-3.41-15-9.22-14.93-5.54,0-11.06,1-16.86,1.6Zm-9,15.39v22.1l6.21-.58c0-3.81-.11-7.12,0-10.42.12-3.06.51-6.41,4.5-6.55s4.61,3.27,5.09,6.23.59,6.13.89,9.52l5.29-.76V147.34Zm9.24,74.56c-13.49-2.93-14.24-2.57-19.78,9.19l8.16,2.55-.25,1.67c-2.06-.19-4.24,0-6.16-.65-3.88-1.26-6.26-.18-7.75,3.88,5.68,1.14,11,2.3,16.38,3.21a4.82,4.82,0,0,0,3.38-.93,35.73,35.73,0,0,0,4-4.34L625,235.23c1.39-4.88,2.53-9,3.73-13.33ZM278.16,284.51c6.71,6.16,9.12,6.46,15.87,2.78a26.88,26.88,0,0,1,6.85-2.79c6.24-1.4,12.55-2.48,19.22-3.75V271ZM658,70.24c-9.6.75-14.33,3.66-16.87,9.82-2.16,5.21.76,8.89,3.7,12.62,2.37,3,5.17,3.91,8.72,2.24C655,86.78,656.42,78.74,658,70.24ZM495.88,140.36c2.34,3.32,5.2,6.4,2.83,10.85a3.33,3.33,0,0,0,.06,2.07c1,4.59,2.17,9.15,3.12,13.75s1.75,9.43,2.62,14.14l1.3-.15-1.93,2.19,1.87-1.69,3.47,3.39-1.7,1.67c-.91-5.91-1.74-11.83-2.76-17.72-.59-3.45-1.7-6.83-2.16-10.29-.61-4.53-.51-9.17-1.33-13.65-.36-1.94-2-3.89-3.56-5.26-.69-.6-3.6-.17-3.84.45-1.71,4.39-4.91,9.39-4,13.37,1.66,7.3-3.4,12.51-3.56,19.09s-1.85,13.23-2.87,19.84l2.13.44,3.06-13.65C490.71,166.28,493.09,153.4,495.88,140.36ZM532.41,109l-2.08.17q1.49,13.26,2.95,26.54l-.42-.14,3.53,9.94-2.65,1.93c4,2.53,2.86,4.58-.68,6.32,6.14,1.44,8.12,4.77,5.09,11.07l5.69.69-5.52,4.59,5.15.52c0,1.73-.49,3.4.13,4.15s2.35.67,3.76,1c-2.8-11.73-6.7-22.18-8.78-33.36s-2.14-22.68-6.17-33.42Zm-8.08,26.38-3.94-1.59,4.42-3.84-2.65-3.07c1-8.94,1.9-16.86,2.79-24.78l-2.18-.22c.81,9.65-3.61,18.48-2.88,28.39.49,6.71-2.11,13.83-4.18,20.5-1.46,4.71-4.53,8.93-4.32,14.18.23,6.1.46,12.19.79,18.29,0,.25,1,.46.7.34,1-5.15,2-10.16,3-15.36l-3.79-1.05,5.14-3.81c-1.3-1.14-2.38-2.1-3.51-3.08a8.84,8.84,0,0,1,.77-1.46c1.83-2.26,4.13-4,4.23-7.52.09-3.3,1.31-6.56,2.13-10.28C517.11,137.41,523.79,137.68,524.33,135.38Zm120.35,30.67,1.5,1c2.08-1.84,5.64-3.47,6-5.57.83-5.73.28-11.65.28-17.5l-1.89-.9c-2,2.07-5.22,3.94-5.57,6.25C644.12,154.81,644.68,160.47,644.68,166.05ZM482.24,93.18l-1.84.33c-.95,2.88-1.18,6.39-3,8.44s-5.29,2.51-8,3.68l-.44,1.63c7.31-1.45,8.86,3.79,11.08,10,1.44-4.08,1.75-6.89,3.26-8.7s4.19-2.59,7.2-4.3C485.13,102.39,481.46,99.49,482.24,93.18Zm74.54,175.6,1.31.14A40.21,40.21,0,0,0,558,263c-.8-5.35-1.65-10.71-2.82-16a102.11,102.11,0,0,0-3.69-12.83c-1.21-3.33-3.45-3.45-5.34-.48a14,14,0,0,0-1.51,4.16c-1.55,6.72-3.07,13.45-4.51,20.2-.45,2.15-.6,4.38-1,7.77,7.48-10.27,5.66-22,9.11-32l2,.07c1.71,9.19,3.42,18.39,5.15,27.72l-3.25,2,4.67,1.18Zm64.69-124.43c4.13-.23,7.25-.46,10.36-.55s6.07,0,9.9,0c-2.41-5.47-4.4-10-6.63-15.09-2.63,3.16-4.59,5.6-6.64,8s-4.17,4.55-7,7.64Zm-149.38-16.1,5.55-9.65-6.78-7.75-9.59,10.34c7.83-2.5,6.73,5.67,10.82,7.06ZM594,129.78l5.17-9.31-9.67-7.53-3.91,9.91Zm-32.77,22.66,1.08,1.1c4.8-1.14,23.12-21.4,22.46-25.77-8,8.47-15.77,16.57-23.51,24.67Zm-99,109.07c6.05,0,3.4,4.27,3.45,6.69,1.36,1,2.92,1.6,3.36,2.65.54,1.29.13,3,.13,4.48,1.51-.62,2.62-1.79,2.37-2.48-1.54-4.36-2.41-9.59-5.43-12.6a9.92,9.92,0,0,1-3.37-7.84c-.1-3.55-1-7.08-1.6-10.61l-1.4.27c-.72,2.15-1.43,4.31-1.88,5.66C462.48,251.27,461.69,256.26,462.21,261.51ZM615.44,106.9l.2,2,16.82-2.19c-5.56-7.33-10.83-8.18-20.8-3.13h13a12.55,12.55,0,0,0,.07,1.62Zm33.3,34.28c0-3.28.08-5.71,0-8.14s-.36-4.55-.56-6.83l-1.61.14c-.55,2.59-1.1,5.19-1.73,8.18l-5-2.4L645,143.39ZM585.3,161.8c1.83-10.39,7.11-18.48,7.58-28C587.82,139.46,582.71,156.93,585.3,161.8ZM449.36,247.59l-.28-1.36-8.59,2.59,1.29-4.21-1.94-.37-1.95,14.18,7.67-4.84L441,253.3l-.33-1.64ZM632,155.22h-2.68v13.26c2.51-.6,4.8-.63,2.71-4a4.69,4.69,0,0,1-.6-2.51C631.5,159.72,631.78,157.47,632,155.22Zm-42-22.66-2.24-1.51-7.45,10.89,2,1.31Z" transform="translate(-29.75 -35.84)"/><path d="M650.37,285.28c7.71,2.23,15.57,4.06,23.11,6.78C696.34,300.3,708,317.34,711.11,341c3.27,24.38,2.48,48.84,1.86,73.29-.37,14.44-1.25,28.87-1.9,43.3a96.22,96.22,0,0,1-1.91,17.67c-.18-2.88-.58-5.76-.5-8.62.61-21.62,1.51-43.24,2-64.86.45-22,.75-44-3.35-65.75-4-21.2-16.26-35.25-36.81-41.89-5.7-1.84-11.53-3.25-17.28-4.93a29,29,0,0,1-3.57-1.56C649.86,286.82,650.11,286.05,650.37,285.28Z" transform="translate(-29.75 -35.84)"/><path d="M678,479.18c-.38-2-1.15-4-1.09-6,.77-22.13,2.18-44.25,2.37-66.38.19-21.78-.57-43.57-1.42-65.34-.39-10.19-7-16.74-15.33-21.8-3.28-2-6.22-4.57-9.31-6.88l1.63-2.07c6.57,5,13.81,9.27,19.54,15.06,6.37,6.44,7.05,15.49,7.44,24.27,1.75,39.14-.28,78.21-1.78,117.3-.15,3.8,0,7.6,0,11.4Z" transform="translate(-29.75 -35.84)"/><path d="M693.13,391.76c0-8.25.12-16.5,0-24.75-.22-12.25-.36-24.51-1-36.74-.49-8.6-5.62-14.22-13.28-17.83C675.79,311,673,309,669,306.59c2.1-.38,3.15-.92,3.71-.61,7,3.91,15.54,6.22,19.19,14.19a41.41,41.41,0,0,1,4,15.75c.41,17.44,0,34.89-.09,52.34a16.09,16.09,0,0,1-1,3.81Z" transform="translate(-29.75 -35.84)"/><path d="M686.24,527.45,688,423.4h1.35v104Z" transform="translate(-29.75 -35.84)"/><path d="M471,509.58c2.61,7.18-.19,17.79,14.24,15.42l-1.51,1.71c-3.46,1.8-7.92,2.83-10.11,5.63s-2.07,7.35-3.56,11.59c-2-7.56-3.89-15-15-13.43C464.6,526.25,469.54,519.51,471,509.58Zm-.53,11.84-6.19,7.28,4.86,3.17L474,527Z" transform="translate(-29.75 -35.84)"/><path d="M695.61,492.26c.93-31,1.83-61,2.75-91.65C701.55,406,699.44,487.7,695.61,492.26Z" transform="translate(-29.75 -35.84)"/><path d="M461.16,541.92c-11,1.48-12,9.73-14,17.64-2-7.68-2.1-16.32-14-15.76,8.74-1.73,12-7.61,14.55-15.2C448.44,536.86,452.25,541.36,461.16,541.92Zm-13.86,6.24,4.27-6L447.05,538c-1.5,1.68-2.78,3.13-4.16,4.69Z" transform="translate(-29.75 -35.84)"/><path d="M285.09,250.88c9.55-1,8.72-9.16,11.8-15.1.44,7.75,4.26,11.74,12,12.82-7,2.64-9.59,7.47-9.78,14.41C295.27,258,292.86,252,285.09,250.88Zm12.53,4,3.51-5.62-4.66-2.8-3.32,4.13Z" transform="translate(-29.75 -35.84)"/><path d="M716.31,464.6c2.65,20.58,3.16,41.22,2.7,61.89h-2.7Z" transform="translate(-29.75 -35.84)"/><path d="M719.43,379.11,715,321.33C719.93,324.8,724.42,367.67,719.43,379.11Z" transform="translate(-29.75 -35.84)"/><path d="M579.51,269.11l55.09,20.3-.54,2.11c-4.74-.23-9-2.84-13.49-4.29-4.74-1.54-9.49-3.1-14.16-4.84-4.83-1.81-9.58-3.82-14.35-5.8-4.45-1.85-8.87-3.79-13.31-5.69C579,270.32,579.26,269.73,579.51,269.11Z" transform="translate(-29.75 -35.84)"/><path d="M712.71,219.17c6.15-.09,4.62-7.12,8.51-11.77,1.48,5.85,1.77,11.08,8.26,12.49-5.15,1.5-8,4.4-8.14,9.51Z" transform="translate(-29.75 -35.84)"/><path d="M623.57,581,622,583.11Z" transform="translate(-29.75 -35.84)"/><path d="M248.9,383.9l.19,4.09c2.13-5,5.88-3,8.69-2,4.6,1.67,9.37,3.49,13.29,6.32,4.19,3,4,6.74.63,10.73-5.4,6.42-13.16,8.28-20.73,9.86-14.49,3-29.07,3.06-43.43-1.09a31.06,31.06,0,0,1-7.25-3.25c-7.31-4.38-7.53-11-.46-15.79,9.58-6.49,20.68-7.94,31.83-8.79C237.27,383.55,242.94,383.9,248.9,383.9ZM245.27,408c1.7-4.72,3.94-8.25,8.56-8.33l-7-9.48-11.64,9.18c6.81-.77,7.37,4.61,10.08,8.63Z" transform="translate(-29.75 -35.84)"/><path d="M175.88,428.9c9.19,2.93,22.24,6.7,35,11.36,5,1.81,7,7,7.18,12.28.22,5.81-4.1,10.25-9.9,8.85-12.71-3-25.3-6.71-37.71-10.82-3.09-1-6.1-4.25-7.76-7.24C158.3,435.47,162.89,428.56,175.88,428.9Z" transform="translate(-29.75 -35.84)"/><path d="M243.14,424.76a9.2,9.2,0,0,1,2.67-.13c28.91,7,57.9,13.64,86.68,21.11,23.53,6.11,47.12,11.5,71.53,12.08,17.1.41,33.81-2,49.74-8.51,2.7-1.09,5.07-3,8.7-5.15-1,5.3-4.51,6.61-7.56,7.83-31.15,12.43-63,10.22-94.71,3.31C338,450.45,316.08,444,294,438.48c-15.81-4-31.71-7.55-47.57-11.32-1.2-.28-2.37-.71-3.55-1.07Z" transform="translate(-29.75 -35.84)"/><path d="M287.28,390.46l145.15,32.15-.51,2.24q-73-14.3-145.06-32.56Z" transform="translate(-29.75 -35.84)"/><path d="M536.11,407.65l126.33-79.71C660.89,332.39,542.38,408,537,409Z" transform="translate(-29.75 -35.84)"/><path d="M668.56,357.73c-35.77,21.77-70.69,44.77-104,70-.46.35-1.47,0-2.7-.1,33-27.79,69.62-49.35,105.37-72.14C667.65,356.27,668.1,357,668.56,357.73Z" transform="translate(-29.75 -35.84)"/><path d="M171.58,405.35q-53.48-12.6-105.7-29.61l.56-2,105.77,29.54Z" transform="translate(-29.75 -35.84)"/><path d="M394.13,428.31c-36.49-6.73-71.74-18.34-107.45-28.11l.18-1.54a29.58,29.58,0,0,1,5.14.45q47.49,12.5,94.94,25.1c2.58.68,5.2,1.18,7.8,1.76Z" transform="translate(-29.75 -35.84)"/><path d="M497.05,455c-10.54,18.46-66.3,37.6-88.87,30.61a47.47,47.47,0,0,1,6.15-1c13.47-.44,27-.67,39.78-5.63,13.83-5.36,27.12-11.75,38.72-21.2C494.19,456.8,495.6,455.88,497.05,455Z" transform="translate(-29.75 -35.84)"/><path d="M51,375.91l27.82,8.89-.13,1.11c-1.63,0-3.37.36-4.89-.07-6.7-1.87-13.43-3.74-19.95-6.13C51.85,379,49,376.53,49,375c.06-2.06,2.25-4.69,4.23-5.91A58.08,58.08,0,0,1,65,363.79c11.58-3.92,23.24-7.61,34.89-11.32a7.47,7.47,0,0,1,4.51,0c-17.19,8.82-37.11,10.81-53.48,21.27Z" transform="translate(-29.75 -35.84)"/><path d="M622.49,372.45,535.9,429c-.37-.57-.75-1.13-1.13-1.7,27.9-20.32,58-37.36,86.35-56.93Z" transform="translate(-29.75 -35.84)"/><path d="M379.91,476.8a51.73,51.73,0,0,1,6.82-.28c20.24,1.7,40.27.61,59.93-4.69,4.77-1.29,9.23-3.71,13.84-5.58.83-.33,1.73-.52,2.59-.77l.71,1.07a36.19,36.19,0,0,1-4.18,3c-11.23,6-23.53,8.55-36,9.29-14.07.83-28.23.23-42.35.21-.41,0-.82-.39-1.23-.6Z" transform="translate(-29.75 -35.84)"/><path d="M94.87,373l84,26.05.1.81c-1.88-.09-3.88.18-5.64-.34q-26-7.64-52-15.54c-7.55-2.31-15-4.94-22.48-7.49-1.59-.54-3.08-1.34-4.61-2Z" transform="translate(-29.75 -35.84)"/><path d="M366.77,500.81c-5.92,2.73-11.66,2.17-17.45.45q-24.85-7.38-49.75-14.59c-3.57-1-7.27-1.57-10.91-2.35,0-.59.09-1.19.14-1.78,1.53,0,3.15-.34,4.57,0,16.05,4.31,32.11,8.54,48.05,13.2,7.35,2.15,14.44,5.12,22.35,4.17C364.72,499.84,365.77,500.51,366.77,500.81Z" transform="translate(-29.75 -35.84)"/><path d="M363.17,444.58c26,6.34,50.91,7,76.4-.34C433.59,454.29,373.43,454.48,363.17,444.58Z" transform="translate(-29.75 -35.84)"/><path d="M191.19,370.73c-23.53-3.88-46.05-11.88-69.25-17.1l.6-2.46,69.17,17.42C191.53,369.3,191.36,370,191.19,370.73Z" transform="translate(-29.75 -35.84)"/><path d="M303.21,459.61,235.47,441c4.92-2,61.15,12.81,68.1,17.14Z" transform="translate(-29.75 -35.84)"/><path d="M54.07,409.34c.18-5.85,3.89-10,8.85-10,6.86.07,13.55,7.6,13.23,14.89-.22,5.25-2.75,7.65-7.86,7.46C60.32,421.39,53.88,415.8,54.07,409.34Zm2.46.25c0,3.65,4,7.68,9.55,8.72,2,.37,5-.36,6.25-1.75,2.24-2.43.52-8.2-2.65-11a17.51,17.51,0,0,0-2.84-2C61.82,400.65,56.54,403.76,56.53,409.59Z" transform="translate(-29.75 -35.84)"/><path d="M122.79,411.72c-17.24-1.67-33.56-7.27-50.13-13.38,1.38-.11,2.83-.58,4.1-.27,15.16,3.7,30.29,7.51,45.43,11.31a6.12,6.12,0,0,1,1.31.7Z" transform="translate(-29.75 -35.84)"/><path d="M278.13,469.37c-1.14,1-2.81,3.39-4.93,3.88-3.51.82-7.88-3.56-7.52-6.85.41-3.8,3.12-5.63,6.52-5.46C276,461.11,277.85,463.85,278.13,469.37Z" transform="translate(-29.75 -35.84)"/><path d="M310.25,475.11c-.26,3.32-1.46,6.23-5.31,6.34s-6-2.47-6.52-6.12c-.42-3,3.09-6.53,6.25-6.36C308.33,469.16,310.46,471.11,310.25,475.11Z" transform="translate(-29.75 -35.84)"/><path d="M344.33,486c-1.31,1-3.23,3.29-5.6,3.92-3.22.86-6.58-2.63-6.42-6,.16-3.55,2.09-5.54,5.76-5.39S344.09,480.3,344.33,486Z" transform="translate(-29.75 -35.84)"/><path d="M351.9,483c5,0,8.69,3.53,7.81,6.88-.52,2-3.06,4.23-5.14,4.84-3,.9-6.78-2.94-6.07-6.12C349,486.31,351,484.36,351.9,483Z" transform="translate(-29.75 -35.84)"/><path d="M288.68,477.11c-3.48-.41-6.11-1.57-6-5.47.14-3.55,1.64-6.39,5.57-6.26a5.45,5.45,0,0,1,5.56,5.34c0,.18,0,.36,0,.54C293.77,474.44,292.33,477,288.68,477.11Z" transform="translate(-29.75 -35.84)"/><path d="M208.8,382.83a42.2,42.2,0,0,0-5.32,2.6c-4.1,2.9-8.68,5.42-11.93,9.1s-3.59,8.73,1.8,13.42c-5.2,0-6.4-2.51-6.95-5.26C184.49,393.25,198,380.49,208.8,382.83Z" transform="translate(-29.75 -35.84)"/><path d="M133.09,440.38c-12.2-1.8-24-5-35.89-8.4l.55-2.35,35.83,8.66Z" transform="translate(-29.75 -35.84)"/><path d="M320,474.37c5,.73,7.86,2.15,8,5.94.1,3.21-1.83,5.58-5.26,5.17s-6.85-2-6.28-6.19C316.73,477.31,319.06,475.62,320,474.37Z" transform="translate(-29.75 -35.84)"/><path d="M252.07,418.22c10.05-4.19,21.22-6.49,26.73-18C281.49,408.59,264.19,420.05,252.07,418.22Z" transform="translate(-29.75 -35.84)"/><path d="M237,458.59c-1.85,1.61-3.48,4.08-5.6,4.63-3.43.89-6.53-2.46-6.62-6.3-.07-3.37,1.32-5.85,4.91-6.29C232.62,450.26,236,454,237,458.59Zm-6.32,3.3c1.24-2.16,2.44-3.31,2.22-4-.47-1.54-1.67-2.85-2.57-4.26-.88,1-2.54,2-2.46,2.9.13,1.42,1.36,2.79,2.79,5.36Z" transform="translate(-29.75 -35.84)"/><path d="M97.91,422.75c-1.33,1-3.21,3.72-5.25,3.83-3.45.2-5.72-2.56-5.6-6.2.1-3.14,1.25-6.22,5.21-5.83C95.94,414.92,97.51,417.62,97.91,422.75Zm-5.25-5.64-2.44.79,1.58,5.47c.92-.41,2.68-1,2.63-1.2A41.55,41.55,0,0,0,92.66,417.11Z" transform="translate(-29.75 -35.84)"/><path d="M152.9,434.57c0,3.71-1.5,5.64-5.05,5.65-4.09,0-6.63-2.63-6.29-6,.21-2.14,3.23-5.34,5.36-5.67C150.75,427.93,152.39,431.35,152.9,434.57Zm-1.86.33-4.14-3.79c-.88,1-2.68,2.44-2.46,2.9a10.25,10.25,0,0,0,3.41,3.55c.24.19,1.65-1.33,3.15-2.66Z" transform="translate(-29.75 -35.84)"/><path d="M115.64,356.19l23.81,7.28c-4.37,2.31-19.92-2-24.2-6Z" transform="translate(-29.75 -35.84)"/><path d="M38.61,384.25c1.3,7.28,2.57,14.44,3.84,21.56C36.7,402.44,34.42,389.23,38.61,384.25Z" transform="translate(-29.75 -35.84)"/><path d="M435.83,501c-7.93,5.76-16.83,4.15-25.6,4.15l-.21-1.53Z" transform="translate(-29.75 -35.84)"/><path d="M121.54,432.11l-14.68-3.49.56-2.52,14.72,3.58Z" transform="translate(-29.75 -35.84)"/><path d="M350.3,478.72c2.93.23,6.2-.28,8.67.91,2,.93,2.93,3.93,3.61,6.75-3.39-4-7.06-6.45-12.57-5C350.11,480.47,350.2,479.59,350.3,478.72Z" transform="translate(-29.75 -35.84)"/><path d="M154.36,428.11c-4-1.87-7.67-4.53-11.79.57l-.85-2.4c1.46-1.15,2.78-3,4.4-3.3C149.86,422.28,153.22,423.28,154.36,428.11Z" transform="translate(-29.75 -35.84)"/><path d="M260.47,464.32,268,474.89c-3.46.34-5.59-1.69-7.37-4S258.83,466.17,260.47,464.32Z" transform="translate(-29.75 -35.84)"/><path d="M469.63,229.78c1.3-1.13,1.81-2,2.44-2.07,51.21-7.81,100.54-22.49,149.45-42.07C615.15,196.5,493.49,231.45,469.63,229.78Z" transform="translate(-29.75 -35.84)"/><path d="M414.42,235.39a10.35,10.35,0,0,1-2.62.81c-20.11.57-40.22,1.4-60.33,1.44-5.67,0-11.48-1.88-17-3.65-9.06-2.9-12.07-8.76-8.27-17.45,2.27-5.18,6.48-9.51,9.93-14.15.33-.44,1.42-.32,3.36-.7-1.57,2.17-2.44,3.45-3.39,4.68-1.62,2.11-3.37,4.12-4.9,6.29-6.66,9.44-4.47,17.14,6.78,19.29a211.2,211.2,0,0,0,36.1,3.47c12.27.19,24.57-1.32,36.86-2a16.72,16.72,0,0,1,3.52.52C414.45,234.41,414.44,234.9,414.42,235.39Z" transform="translate(-29.75 -35.84)"/><path d="M484.81,216.28c30.88-5.18,61.45-11.58,90.86-22.49-28.66,13.7-59.27,20-90.21,25C485.25,218,485,217.11,484.81,216.28Z" transform="translate(-29.75 -35.84)"/><path d="M355.64,226.76c27,2.23,53.58-1.57,80.72-5.36C431.3,227.94,364.1,232.62,355.64,226.76Z" transform="translate(-29.75 -35.84)"/><path d="M531.86,190.61c-22.66,10.73-47.09,15-71.19,20.5l-.55-2Z" transform="translate(-29.75 -35.84)"/><path d="M717.16,114.05c5.2,1.89,5.63,4.74,5.31,8-.68,6.94-5.26,11.59-10.24,15.37-10,7.63-20.56,14.63-30.92,21.83a12.4,12.4,0,0,1-3,1.09l-.84-1.07c1.29-1.14,2.51-2.38,3.89-3.4,10.42-7.67,21-15.12,31.26-23C718.27,128.46,722,122.89,717.16,114.05Z" transform="translate(-29.75 -35.84)"/><path d="M407.21,217.89c-3,.71-6,1.94-9.11,2.05-14.74.55-29.5,1-44.26,1-3.13,0-6.44-1.51-9.33-3-2.47-1.26-4.32-3.53-3.09-7,11.2,12.18,25.54,7.28,38.71,7.47,8.86.12,17.74-1.28,26.61-2Z" transform="translate(-29.75 -35.84)"/><path d="M707.47,123.34c2.64,3.2,2.87,5.48-.38,8.25-5.8,4.94-11.92,9.53-18.08,14-4.69,3.42-9.64,6.5-14.53,9.64a11,11,0,0,1-2.9.89l-.76-1.19q2.56-2.42,5.36-4.56c7.37-5.11,14.9-10,22.23-15.16C704.29,131.11,704.2,131,707.47,123.34Z" transform="translate(-29.75 -35.84)"/><path d="M626.11,173.36h24.73v1.25h-24.7Z" transform="translate(-29.75 -35.84)"/><path d="M479,280c-1.74,1.26-3.32,3-5.27,3.71-9.9,3.76-20.65,6-29.64,11.24-9.7,5.67-19.35,10.47-30.11,13.75-7,2.14-13.3,6.62-19.91,10.06-1.48.77-2.95,1.57-4.43,2.35l-1-1.39a22.1,22.1,0,0,1,3.09-2.95c9.06-6,18.57-10.74,29.29-13.37a47.31,47.31,0,0,0,16.41-8c12.49-9.24,27.23-11.73,41.67-15.29Z" transform="translate(-29.75 -35.84)"/><path d="M350.81,345.77c4.91-3.33,9.51-7.31,14.8-9.85,7.44-3.57,15.55-5.73,23.09-9.12,6.88-3.1,13.42-7,20.05-10.65,2.53-1.39,4.9-3.08,7.34-4.63l1.4,2.3c-7.68,4.59-15.08,9.76-23.11,13.61-10.73,5.15-22,9.1-32.9,13.95-3.34,1.48-6.12,4.23-9.16,6.39Z" transform="translate(-29.75 -35.84)"/><path d="M427.67,331c1.67-1.13,3.3-3.14,5-3.23,12.13-.64,21.68-6.9,31.12-13.55a6.28,6.28,0,0,1,1.78-.83c.25-.07.6.21.89.33C464,320.2,446.11,328.79,427.67,331Z" transform="translate(-29.75 -35.84)"/><path d="M436.39,342.52,415.15,354C417.51,348.49,430.38,341.59,436.39,342.52Z" transform="translate(-29.75 -35.84)"/><path d="M572.26,332.33l9.18,7.65-.63,1.26c-1.46-.57-3.24-.78-4.33-1.76-4.81-4.34-10-8.47-14-13.46-6.14-7.57-12.64-14.12-22.67-16a6,6,0,0,1-3.4-2.38c6.73,0,13,1.71,18.14,5.88a50.55,50.55,0,0,1,8.88,9.37c3.07,4.16,7.09,5.26,11.86,6.25,7.22,1.5,14.23,4.08,21.28,6.35,1,.33,1.78,1.47,2.32,2.93C590.34,336.11,582.75,330.61,572.26,332.33Z" transform="translate(-29.75 -35.84)"/><path d="M575.2,352.89c-6.42.51-19.27-8.81-21.79-15.85Z" transform="translate(-29.75 -35.84)"/><path d="M477.7,372.51c-5.68.78-14.56-4.24-17.36-9.9Z" transform="translate(-29.75 -35.84)"/><path d="M237.77,351.88l12.71,4.9-.73,2-12.87-4.67C237.17,353.35,237.47,352.62,237.77,351.88Z" transform="translate(-29.75 -35.84)"/><path d="M204.78,313.46c-7.23,9.88-15.37,18.17-28.36,20.7-6.9,1.34-13.43,4.62-20.13,7l-3.8,1.33-.75-1.23c.84-.79,1.54-1.95,2.54-2.33,7.27-2.74,14.44-6,22-7.78a38.57,38.57,0,0,0,21.89-13.8c1.6-2,3.79-3.44,5.7-5.14Z" transform="translate(-29.75 -35.84)"/><path d="M464.74,414.78c1.86-8.16,18.36-12.08,34.25-7.1-2,.36-4.15,1.31-6.06,1-9.83-1.7-18.85-.38-26.79,6.09C465.87,415,465.25,414.78,464.74,414.78Z" transform="translate(-29.75 -35.84)"/><path d="M359.88,286c-2.68.2-4.32.43-5.95.44-6.66,0-12.73.47-18.46,5.39-3.84,3.29-10,3.86-15.13,5.65l-.89-2.31c1.7-.73,3.43-1.4,5.1-2.2,4.1-2,8.44-3.54,12.18-6C341.65,283.67,354,282.37,359.88,286Z" transform="translate(-29.75 -35.84)"/><path d="M761.56,267l5.66-7.05c3.39-4.24,2.9-6.48-2.42-7.72-11.63-2.74-23.37-5-35.06-7.53-1.49-.31-3-.68-4.46-1,0-.51.06-1,.1-1.51,1.78-.11,3.64-.61,5.33-.28,11.39,2.27,22.82,4.45,34.1,7.19,8.54,2.06,9.79,6.46,4.29,13.22-1.8,2.21-3.86,4.23-5.79,6.33Z" transform="translate(-29.75 -35.84)"/><path d="M710.59,246.84c5.33-2.59,35.52,4.33,39.18,9Z" transform="translate(-29.75 -35.84)"/><path d="M718.64,293.6c.24-4.45,20.72-18.39,25.69-17.55Z" transform="translate(-29.75 -35.84)"/><path d="M750.48,263.11l-14.42-4.48.63-2.24,14.5,4.07C751,261.31,750.71,262.19,750.48,263.11Z" transform="translate(-29.75 -35.84)"/><path d="M783.84,264.44c2.6,5.41-2.28,14.88-9.54,17.33Z" transform="translate(-29.75 -35.84)"/><path d="M651.76,253.83l26.71,7.06c-.21.82-.42,1.64-.62,2.47l-26.74-6.9C651.33,255.58,651.55,254.71,651.76,253.83Z" transform="translate(-29.75 -35.84)"/><path d="M659.14,275.51l15.07,3.54-.47,2.13-15.17-3.25Z" transform="translate(-29.75 -35.84)"/><path d="M677.82,269.18l-11.08-3.26.54-2.1,11.06,2.9Z" transform="translate(-29.75 -35.84)"/><path d="M646.31,228.9c11.86.44,23,4.62,35,7.17C677.93,238.41,651,232.88,646.31,228.9Z" transform="translate(-29.75 -35.84)"/><path d="M664.57,242.05l-17.71-4.66.65-2.55,17.72,4.61Z" transform="translate(-29.75 -35.84)"/><path d="M656.93,51.87c-7-1.53-11.81.16-14.88,5.09-.79,1.26-.84,3-1,4.57,0,.2,1.52.83,1.55.78.72-1.17,1.32-2.42,2-3.64.22-.4.56-.75,2.35-1.18,0,1.59.59,3.59-.15,4.69A6.77,6.77,0,0,1,642.28,65c-1.36.06-3.69-1.45-4-2.71-1.33-4.62,1.31-8,4.79-10.58,3.75-2.73,7.77-5.46,12.71-2.58C656.21,49.45,656.32,50.5,656.93,51.87Z" transform="translate(-29.75 -35.84)"/><path d="M641.08,69.58c-2.29,4.93-5.82,9.69-6.52,14.84s1.34,10.88,2.3,17.06c-1-.88-2.28-1.49-2.73-2.47-3.48-7.66-4.24-15.31.56-22.8,1.57-2.45,3.09-4.93,4.63-7.4Z" transform="translate(-29.75 -35.84)"/><path d="M647.32,113.19l-8.86-16.6C643.44,97,648.74,107,647.32,113.19Z" transform="translate(-29.75 -35.84)"/><path d="M651,65.58c-.84-4.4,7.81-6.06.09-10.79l1.13-.91c1.35.5,3.42.65,3.87,1.59.76,1.57,1.24,4.12.45,5.38C655.34,62.81,652.94,64,651,65.58Z" transform="translate(-29.75 -35.84)"/><path d="M69.37,412c-2.48-3.41-4.93-7-8.92-.87l-.81-1.42c.57-1.39.8-3.56,1.78-4,1.63-.7,4.19-1,5.54-.14,1.64,1,2.43,3.42,3.59,5.23Z" transform="translate(-29.75 -35.84)"/></svg>