<svg id="Capa_1" data-name="Capa 1" xmlns="http://www.w3.org/2000/svg" viewBox="0 0 407.33 407.24"><defs><style>.cls-1{fill:#fff;}</style></defs><path class="cls-1" d="M589.32,624.91H252a9.82,9.82,0,0,0-1.75-.73,41.41,41.41,0,0,1-24-14.42C221.37,604,219,597,217,589.92V252.67a5.92,5.92,0,0,0,.67-1.36C222,230.89,238.12,217.7,259,217.69q161.67,0,323.34,0a45.68,45.68,0,0,1,11,1.26c18.74,4.71,31,21,31,41.05q0,161.23,0,322.48c0,1.19,0,2.38-.05,3.57-.7,11.41-5.47,20.82-13.86,28.51C604.37,620.12,597,622.83,589.32,624.91ZM563,563.58c.06-1.07.15-1.84.15-2.62q0-56.85,0-113.72a62.78,62.78,0,0,0-5-25.16c-11.29-26.06-31-41.84-59.24-45-22.39-2.54-40.39,7.14-54.86,23.87-.78.9-1.49,1.86-2.23,2.8l-.94-.4V381H380.31V563.59h60.76v-4.83q0-49.5,0-99c0-2.51.09-5,.32-7.54,1.66-17.67,21.29-30.77,38.17-25.51,14.17,4.42,22.46,15.9,22.49,31.46q.07,50.29,0,100.6v4.82ZM278.44,380.79V563.46H339V380.79Zm66.76-71.34a36.61,36.61,0,1,0-36.81,36.39A36.69,36.69,0,0,0,345.2,309.45Z" transform="translate(-217 -217.67)"/></svg>