<svg id="Capa_1" data-name="Capa 1" xmlns="http://www.w3.org/2000/svg" viewBox="0 0 383.26 380.26"><path d="M229,527.56c5.44-18,21-20.45,36.64-23.53l-2.08-2.57c-8.19-10.09-10.7-21.57-7.56-34.06,3.21-12.79,14.17-19.51,29.1-18.45a24.86,24.86,0,0,1,23.25,22.45c1.41,12.3-1.71,23.19-10.69,32.58,4.36.92,8.4,1.45,12.22,2.66a64.3,64.3,0,0,1,12.75,5.14c8,4.55,12,11.6,11.91,21-.13,13.35,0,26.69,0,40,0,3-1,5.76-4,6.37a7.91,7.91,0,0,1-6-1.35c-1.3-1.14-1.83-3.73-1.85-5.7-.15-13-.19-26,0-38.92.08-5.53-2.08-9.86-7.06-11.62A119.43,119.43,0,0,0,294,515.86a91,91,0,0,0-38.88,2.74,40,40,0,0,0-8.52,3.71c-3.89,2.18-5.69,5.63-5.66,10.21.1,13.1,0,26.2.07,39.3,0,3.54-.66,6.54-4.49,7.65s-5.83-1.12-7.52-4Zm52.58-66.74c-7.39,0-12.13,2.91-13.85,9-2.4,8.56-.94,16.63,4.7,23.57,5.44,6.69,13.35,6.51,18.83-.21,4.39-5.38,5.9-11.73,5.37-18.54C295.9,465.23,291,460.78,281.58,460.82Z" transform="translate(-229 -231.66)"/><path d="M375.29,396c3.15,1.31,5.95,2.7,8.89,3.59a8,8,0,0,0,4.75-.16,129.67,129.67,0,0,0,12.72-5.3,8.3,8.3,0,0,0,3.91-3.76c4-9.64,3.9-9.68,14.27-9.68h.38c11.49.12,11.3-1.57,15.69,10.31a6.4,6.4,0,0,0,3.24,3c4.29,2,8.66,3.79,13.1,5.36a7.62,7.62,0,0,0,5.09.11c10.48-4.58,9.65-4.44,17.54,3.51.18.18.36.35.53.53,7.57,7.57,7.63,7.6,3.29,17.17a5.61,5.61,0,0,0,.12,5.51c2,4,3.37,8.29,5.33,12.31.76,1.58,2.13,3.39,3.66,4,10.16,4,10,3.7,9.86,14.59v.37c.13,12.1.35,11.15-10.28,15.43a7.12,7.12,0,0,0-3.17,3.52c-1.78,3.83-3,7.94-4.92,11.67-1.33,2.55-1.8,4.68-.27,7.2a47.7,47.7,0,0,1,2,4.41,6.37,6.37,0,0,1-1.45,7.84c-3,3-6,6-9,9-2.42,2.46-5.34,3.07-8.15,1.27-5.21-3.32-10.1-3.29-15,.33a2.55,2.55,0,0,1-1,.46c-7,1.35-11.69,4.9-13.4,12.29-.36,1.56-3.45,3.28-5.45,3.51-4.55.52-9.21.2-13.82.15-3.12,0-5.39-1.61-6-4.61-1.31-6.15-4.86-9.71-11.07-10.63a2.68,2.68,0,0,1-1.05-.39c-5.78-3.86-11.48-4.86-17.84-.8-1.42.9-5-.13-6.67-1.43-3.53-2.72-6.47-6.2-9.63-9.39-2.32-2.34-2.81-5.15-1-7.84,3.4-5.15,3.38-10-.28-15a3.28,3.28,0,0,1-.61-1.36c-1.26-6.93-4.87-11.42-12.09-13.13-1.61-.38-3.41-3.4-3.64-5.38-.54-4.55-.22-9.21-.17-13.82a6,6,0,0,1,4.94-6.23c5.86-1.28,9.29-4.53,10.25-10.53A11.91,11.91,0,0,1,361,429c3-3.94,2.21-7.52.11-11.6-2.88-5.56-2.45-6.61,2-11.09,2.56-2.56,5-5.21,7.72-7.63A26,26,0,0,1,375.29,396ZM377,424.11c-.8,1.69-1.5,3.11-2.16,4.56-2.07,4.51-5,8.85-6,13.59-1.31,6.32-4.33,10.07-10.53,11.36-2.26.47-2.78,1.85-2.8,4.05s.61,3.53,2.81,4c6.17,1.33,9.42,5,10.48,11.39A27.52,27.52,0,0,0,373.39,484c3.52,5,3.65,9.56.51,14.46-1.39,2.17-.93,3.59.85,5.45s3.48,1.44,5.21.39c4.87-2.92,9.26-3,14.17.51a31.53,31.53,0,0,0,11.64,4.83c5.85,1.17,9.43,4,10.63,9.84.49,2.42,1.89,3.4,4.52,3.26,2.1-.11,3.29-.74,3.71-2.77,1.31-6.23,5.09-9.36,11.42-10.48A27.68,27.68,0,0,0,447,504.89c5-3.54,9.55-3.59,14.49-.5,1.91,1.19,3.4,1.18,5.17-.65s2.06-3.15.78-5.13c-3.26-5.05-3.07-9.73.53-14.81a26.93,26.93,0,0,0,4.58-10.93c1-6.31,4.25-9.85,10.27-11.13,2.41-.52,3-1.93,3-4.28,0-2.08-.58-3.35-2.63-3.8-6.1-1.34-9.62-4.71-10.62-11.25A26.44,26.44,0,0,0,468,431.47c-3.62-5.08-3.76-9.75-.52-14.8,1.29-2,.83-3.37-.79-5.14-2-2.16-3.72-1.58-5.58-.43-4.75,2.95-8.95,2.59-13.81-.48C443,408,438,406.31,433.12,405c-3.79-1-6.24-2.78-7.29-6.54a9.42,9.42,0,0,0-1.41-3.43,6.62,6.62,0,0,0-3.17-2.25c-2.49-.64-4.32.26-4.87,3.07-1.16,5.83-4.72,8.66-10.61,9.84a36.24,36.24,0,0,0-12.29,5.2c-4.31,2.79-8.15,3.26-12.46.61-.63-.39-1.42-.52-2-.93-2-1.32-3.11-.08-4.47,1.16s-2,2.56-1,4.49C374.83,418.72,375.8,421.41,377,424.11Z" transform="translate(-229 -231.66)"/><path d="M404.79,286.86a37.29,37.29,0,0,1-10-17.67,37.69,37.69,0,0,1,0-18.87c3.62-13.21,14.8-20,30.19-18.44,12.69,1.29,21.85,11.32,22.56,24.8.59,11.35-2.6,21.4-11.05,30.13,3.62.73,6.94,1,10,2.08,5.71,2,11.62,3.86,16.78,6.92,6.72,4,10.07,10.52,10.07,18.53,0,13.72,0,27.44,0,41.16,0,4.45-2.4,7.09-6,7.05s-5.89-2.69-5.91-7.18c-.07-12.72-.31-25.45.08-38.16.22-7.45-3.08-12.29-9.69-14.12a160.07,160.07,0,0,0-25.55-5c-11-1.17-21.9.38-32.54,3.4a37.31,37.31,0,0,0-6.59,2.6c-4.85,2.45-7.37,6.23-7.27,12,.21,12.59.07,25.19.05,37.79a18.57,18.57,0,0,1-.31,4.09,5.4,5.4,0,0,1-6,4.54c-2.9-.11-5.39-1.73-5.4-4.71-.07-16.2-.38-32.43.48-48.59.37-7,5.77-12.36,12.18-15.09,6.8-2.91,14.13-4.56,21.24-6.73A24.48,24.48,0,0,1,404.79,286.86Zm30.88-27.22c-.07-1.31-.05-2.57-.22-3.79-1-7-5.17-11.28-11.75-12-8.62-1-14.66,1.6-16.73,7.91-3.06,9.32-1.46,18.06,5.21,25.38,5,5.53,11.88,5.33,17.05-.1C433.86,272.15,435.49,266.12,435.67,259.64Z" transform="translate(-229 -231.66)"/><path d="M543.68,504.05c-8.93-9.34-12.08-20-10.84-32,1.43-14,11.78-23.09,26.42-23.18s25.2,8.69,26.85,22.68c1.39,11.74-1.39,22.24-9.51,31.1a15.73,15.73,0,0,0-1,1.32c5,1.15,10,1.7,14.56,3.47a63,63,0,0,1,14.66,7.82c5.14,3.8,7.36,9.62,7.37,16.09q0,20.56,0,41.15c0,4.56-2.49,7.43-6.17,7.3s-5.78-2.88-5.79-7.31c0-13.09-.13-26.19.05-39.28.08-5.54-2.08-9.85-7.05-11.61a118.36,118.36,0,0,0-21.52-5.71,91.46,91.46,0,0,0-38.87,2.73,39.75,39.75,0,0,0-7.89,3.29c-4.3,2.32-6.37,6-6.32,11,.13,13.09.05,26.18,0,39.28,0,4.74-2.18,7.52-5.85,7.6s-6.11-2.85-6.12-7.76c0-13,.13-25.93-.05-38.9-.14-10.05,4.22-17.66,13-21.78,6.77-3.19,14.35-4.65,21.57-6.86C541.84,504.3,542.45,504.26,543.68,504.05Zm15.71-43.23c-7.23,0-12,2.77-13.74,8.64-2.6,8.94-1.16,17.36,5,24.48,5.14,5.91,12.28,5.87,17.57.1,5.11-5.56,6.81-12.38,6.13-19.72C573.53,465.05,568.62,460.78,559.39,460.82Z" transform="translate(-229 -231.66)"/><path d="M420.53,610.91a152.56,152.56,0,0,1-63.43-13.72c-3.21-1.44-5.15-3.6-4.43-7.26.75-3.88,4.61-5.43,8.86-3.92,8.55,3,17,6.64,25.75,8.81,29,7.17,57.59,5.12,85.47-5.83,1.27-.51,2.53-1,3.82-1.52,3.81-1.38,7.15-.13,8.39,3.11s-.17,6.6-4.07,8c-8.2,2.91-16.35,6.28-24.82,8-11.65,2.45-23.58,3.6-35.39,5.3Z" transform="translate(-229 -231.66)"/><path d="M492.74,323a53.71,53.71,0,0,1,5.2,2.27q53.66,32.13,70.7,92.32c1.28,4.52-.2,7.89-3.73,8.83s-6.57-1-7.81-5.53c-6.92-25.54-19.82-47.63-39.2-65.55-8.08-7.47-17.51-13.51-26.49-20-2.86-2.07-4.8-4.4-3.28-7.75C489,325.77,491.17,324.53,492.74,323Z" transform="translate(-229 -231.66)"/><path d="M353.65,331c-1,1.08-2.5,3.42-4.61,4.69a144.12,144.12,0,0,0-42.19,38.05,137.18,137.18,0,0,0-21.1,41.8c-.33,1.07-.65,2.14-1,3.19-1.31,3.67-4.24,5.47-7.41,4.58-3.36-.94-5.16-4.19-4-8.05,1.58-5.24,3.26-10.47,5.34-15.52,13.24-32.06,34.93-56.83,64.73-74.52C348.42,322.26,353.51,324.42,353.65,331Z" transform="translate(-229 -231.66)"/><path d="M389.16,340.11c0-5.11,0-10.22,0-15.32.05-4.21,2.24-6.74,5.79-6.83s6.13,2.52,6.15,6.88q.09,15.51,0,31c0,4-2.56,6.7-6,6.68s-5.87-2.66-5.92-6.74C389.11,350.57,389.16,345.34,389.16,340.11Z" transform="translate(-229 -231.66)"/><path d="M452.09,340.05c0,5.23.05,10.46,0,15.69-.05,4.1-2.38,6.74-5.87,6.8s-6-2.6-6.06-6.62q-.11-15.69,0-31.39c0-4.1,2.51-6.63,6.07-6.57s5.81,2.59,5.86,6.76C452.14,329.83,452.09,334.94,452.09,340.05Z" transform="translate(-229 -231.66)"/><path d="M262.16,557.49c0,5.23.07,10.46,0,15.69-.07,3.94-2.34,6.45-5.69,6.59s-6.15-2.52-6.2-6.53q-.17-15.87,0-31.76c.05-3.83,2.64-6.36,5.94-6.38,3.47,0,5.88,2.58,5.95,6.7C262.22,547,262.16,552.26,262.16,557.49Z" transform="translate(-229 -231.66)"/><path d="M579.1,557.4c0-5.23-.07-10.47,0-15.7.07-3.94,2.31-6.45,5.65-6.6s6.18,2.48,6.23,6.48q.18,15.87,0,31.76c0,3.84-2.63,6.39-5.92,6.44-3.46,0-5.89-2.58-6-6.69C579,567.86,579.1,562.63,579.1,557.4Z" transform="translate(-229 -231.66)"/><path d="M301.28,557.27c0-5.11-.07-10.21,0-15.32.08-4.18,2.38-6.78,5.82-6.85s6.06,2.64,6.09,7q.14,15.31,0,30.63c0,4.39-2.51,7.12-6,7.07s-5.82-2.74-5.89-7.19C301.22,567.48,301.28,562.38,301.28,557.27Z" transform="translate(-229 -231.66)"/><path d="M540,557.5c0,5.1.07,10.21,0,15.31-.08,4.37-2.55,7.08-6.11,7s-5.77-2.72-5.8-6.91q-.12-15.5,0-31c0-4.11,2.51-6.74,5.93-6.76s5.87,2.6,6,6.71C540.05,547,540,552.27,540,557.5Z" transform="translate(-229 -231.66)"/><path d="M462.81,457.7c.25,22.77-18.75,42-41.68,42.18a42.25,42.25,0,0,1-1-84.5C443.5,415,462.56,433.92,462.81,457.7Zm-12,.09a30.2,30.2,0,1,0-30.64,30.1A30.29,30.29,0,0,0,450.83,457.79Z" transform="translate(-229 -231.66)"/></svg>