<svg width="99" height="99" viewBox="0 0 99 99" fill="none" xmlns="http://www.w3.org/2000/svg">
<path d="M86.625 21.0634C82.0463 19.6196 77.0138 19.0009 72.1875 19.0009C64.1438 19.0009 55.4813 20.6509 49.5 25.1884C43.5188 20.6509 34.8563 19.0009 26.8125 19.0009C18.7688 19.0009 10.1063 20.6509 4.125 25.1884V85.6196C4.125 86.6508 5.15625 87.6821 6.1875 87.6821C6.6 87.6821 6.80625 87.4758 7.21875 87.4758C12.7875 84.7946 20.8313 82.9383 26.8125 82.9383C34.8563 82.9383 43.5188 84.5883 49.5 89.1258C55.0688 85.6196 65.175 82.9383 72.1875 82.9383C78.9938 82.9383 86.0063 84.1758 91.7813 87.2696C92.1938 87.4758 92.4 87.4758 92.8125 87.4758C93.8438 87.4758 94.875 86.4446 94.875 85.4133V25.1884C92.4 23.3321 89.7188 22.0946 86.625 21.0634ZM86.625 76.7508C82.0875 75.3071 77.1375 74.6883 72.1875 74.6883C65.175 74.6883 55.0688 77.3696 49.5 80.8758V33.4384C55.0688 29.9321 65.175 27.2509 72.1875 27.2509C77.1375 27.2509 82.0875 27.8696 86.625 29.3134V76.7508Z" fill="#212121"/>
<path d="M72.1875 43.7509C75.8175 43.7509 79.3238 44.1221 82.5 44.8234V38.5534C79.2412 37.9346 75.735 37.5634 72.1875 37.5634C65.175 37.5634 58.8225 38.7596 53.625 40.9871V47.8346C58.2862 45.1946 64.7625 43.7509 72.1875 43.7509Z" fill="#212121"/>
<path d="M53.625 51.9596V58.8071C58.2862 56.1671 64.7625 54.7234 72.1875 54.7234C75.8175 54.7234 79.3238 55.0946 82.5 55.7959V49.5259C79.2412 48.9071 75.735 48.5359 72.1875 48.5359C65.175 48.5359 58.8225 49.7734 53.625 51.9596Z" fill="#212121"/>
<path d="M72.1875 59.5496C65.175 59.5496 58.8225 60.7459 53.625 62.9734V69.8209C58.2862 67.1809 64.7625 65.7371 72.1875 65.7371C75.8175 65.7371 79.3238 66.1084 82.5 66.8096V60.5396C79.2412 59.8796 75.735 59.5496 72.1875 59.5496Z" fill="#212121"/>
</svg>
