<svg width="47" height="80" viewBox="0 0 47 80" fill="none" xmlns="http://www.w3.org/2000/svg">
<g clip-path="url(#clip0_44_13)">
<path d="M4.71452 80C3.86326 79.872 3.0549 79.5457 2.35595 79.0481C1.65701 78.5505 1.08743 77.8958 0.694166 77.1378C0.273216 76.24 0.0465914 75.2651 0.028904 74.2755C0.028904 51.492 0.028904 28.6893 0.028904 5.86759C-0.00829613 5.10608 0.1159 4.34536 0.393443 3.63416C0.670986 2.92296 1.0958 2.27708 1.64056 1.73798C2.18531 1.19889 2.83797 0.778488 3.55664 0.503829C4.27531 0.22917 5.04402 0.106264 5.81352 0.143077H40.9262C41.7204 0.0680127 42.5217 0.163215 43.2754 0.422158C44.0291 0.6811 44.7176 1.0977 45.2939 1.64365C45.8703 2.18959 46.3211 2.85202 46.6155 3.58585C46.9099 4.31969 47.041 5.10773 47 5.89624V74.0178C47.0909 75.1369 46.8351 76.2567 46.2667 77.2283C45.6983 78.1998 44.8444 78.977 43.8185 79.4562C43.309 79.6673 42.7874 79.8489 42.2566 80H4.71452ZM3.87572 8.75849V70.0966H43.1244V8.75849H3.87572ZM26.2043 74.5903C26.212 74.2384 26.1491 73.8884 26.0192 73.5607C25.8892 73.2329 25.6948 72.934 25.4474 72.6811C25.1999 72.4283 24.9042 72.2265 24.5774 72.0874C24.2506 71.9484 23.8991 71.8749 23.5434 71.8712C22.9966 71.8541 22.4571 71.9989 21.994 72.2871C21.5308 72.5753 21.1652 72.9938 20.9438 73.4889C20.7225 73.984 20.6556 74.5332 20.7516 75.0662C20.8476 75.5992 21.1022 76.0917 21.4828 76.4807C21.8634 76.8696 22.3527 77.1372 22.8879 77.2492C23.4231 77.3613 23.98 77.3127 24.4871 77.1097C24.9943 76.9066 25.4287 76.5583 25.7346 76.1095C26.0405 75.6607 26.2041 75.1317 26.2043 74.5903ZM23.312 5.15202H28.8364C29.2991 5.15202 29.7908 5.15202 29.7908 4.52232C29.7908 3.89263 29.2991 3.86406 28.8364 3.86406H18.077C17.5853 3.86406 17.1225 3.864 17.1225 4.52232C17.1225 5.18064 17.5853 5.15202 18.077 5.15202H23.312Z" fill="white"/>
</g>
<defs>
<clipPath id="clip0_44_13">
<rect width="47" height="80" fill="white"/>
</clipPath>
</defs>
</svg>
