<svg width="49" height="49" viewBox="0 0 49 49" fill="none" xmlns="http://www.w3.org/2000/svg">
<g clip-path="url(#clip0_32_9)">
<path d="M46.9894 48.9898H10.1448C9.8373 48.8677 9.53839 48.7251 9.25006 48.5629C8.81596 48.2779 8.48465 47.8612 8.30477 47.374C8.12489 46.8869 8.10591 46.3549 8.25061 45.8561C8.39532 45.3574 8.69609 44.9182 9.10877 44.6029C9.52146 44.2877 10.0243 44.113 10.5436 44.1046C11.3667 44.088 12.1911 44.1046 13.0334 44.1046V40.8325H12.4302C9.70381 40.8325 6.97875 40.844 4.24985 40.8325C2.41823 40.8223 1.0851 39.9927 0.315637 38.3145C0.189234 37.9898 0.0825261 37.6577 -0.00390625 37.3201V14.9265C0.0740622 14.6709 0.141805 14.4152 0.231277 14.1596C0.843521 12.4392 2.36071 11.4256 4.36233 11.4256C10.3109 11.4256 16.2591 11.4256 22.2069 11.4256H22.869V10.8632C22.869 8.13642 22.869 5.40966 22.869 2.68289C22.869 1.00337 23.866 -0.00127411 25.5365 -0.00127411H46.349C47.9863 -0.00127411 48.9986 1.01359 48.9986 2.65477C48.9986 17.2123 48.9986 31.7686 48.9986 46.3235C49.0035 46.5622 48.9838 46.8008 48.9399 47.0355C48.7136 48.1091 47.9799 48.6792 46.9894 48.9898ZM35.9025 35.0973C35.9127 34.9299 35.9281 34.8046 35.9281 34.6794C35.9281 28.3516 35.9281 22.0229 35.9281 15.6934C35.9281 14.0458 34.9221 13.0693 33.2516 13.0693C23.6056 13.0693 13.9593 13.0693 4.31248 13.0693C2.62657 13.0693 1.62832 14.0676 1.62832 15.7433C1.62832 22.0242 1.62832 28.3051 1.62832 34.5861V35.0973H35.9025ZM29.2905 47.3601H46.2033C47.1185 47.3601 47.369 47.1109 47.369 46.1995V2.7698C47.369 1.88659 47.1133 1.63095 46.2314 1.63095H25.6119C24.7594 1.63095 24.4999 1.88659 24.4999 2.74296C24.4999 5.46973 24.4999 8.1965 24.4999 10.9233V11.4256H25.1224C27.7848 11.4256 30.4485 11.4256 33.111 11.4256C33.54 11.4166 33.9686 11.4552 34.3891 11.5406C36.3703 11.9957 37.5628 13.6023 37.5641 15.8008C37.5641 22.6722 37.5641 29.5437 37.5641 36.4151C37.5719 36.8134 37.5376 37.2114 37.4619 37.6026C37.0299 39.5505 35.4168 40.812 33.327 40.8223C30.584 40.8351 27.8411 40.8223 25.0981 40.8223H24.5319V44.088H25.0342C25.6413 44.088 26.2472 44.088 26.853 44.088C28.6118 44.1187 29.6049 45.4147 29.2905 47.3601V47.3601ZM35.8961 36.7692H1.65388C1.67178 38.2289 2.75056 39.1977 4.35083 39.1977C13.9627 39.1977 23.5745 39.1977 33.1864 39.1977C33.4571 39.2004 33.7274 39.1786 33.9942 39.1325C35.087 38.9267 35.8872 37.9451 35.8961 36.7692ZM18.807 45.7292H15.6997C14.0381 45.7292 12.3854 45.7292 10.7289 45.7292C10.1665 45.7292 9.80223 46.0589 9.80351 46.5383C9.80479 47.0176 10.1665 47.3384 10.7276 47.3563C10.8069 47.3563 10.8874 47.3563 10.9666 47.3563H26.5987C26.7574 47.3648 26.9165 47.3593 27.0742 47.3397C27.6685 47.231 27.9919 46.5395 27.6046 46.1037C27.3729 45.8789 27.0646 45.7501 26.7418 45.7432C24.0973 45.7177 21.4528 45.7292 18.807 45.7292ZM22.8447 40.8606H14.7398V44.0714H22.8447V40.8606Z" fill="black"/>
<path d="M4.22692 24.4974C3.45363 24.477 3.0689 23.8098 3.37566 23.2857C3.47277 23.1398 3.58786 23.0067 3.71821 22.8895C6.29756 20.3076 8.87776 17.7265 11.4588 15.1463C11.5555 15.0401 11.662 14.9434 11.7771 14.8575C11.9298 14.7481 12.1159 14.6953 12.3032 14.7083C12.4906 14.7213 12.6677 14.7992 12.8038 14.9285C12.94 15.0579 13.0269 15.2307 13.0494 15.4172C13.072 15.6037 13.0288 15.7922 12.9274 15.9503C12.836 16.0808 12.7311 16.2012 12.6143 16.3095C10.0332 18.8905 7.45089 21.4694 4.86728 24.0462C4.66925 24.2174 4.45475 24.3686 4.22692 24.4974V24.4974Z" fill="black"/>
<path d="M8.27352 15.4595C8.09714 15.7611 8.01789 15.995 7.85812 16.1548C6.82024 17.2131 5.77214 18.2621 4.71381 19.3017C4.32269 19.6851 3.86383 19.6941 3.52 19.3643C3.17617 19.0345 3.16723 18.5463 3.56857 18.1398C4.61028 17.0841 5.6635 16.0398 6.7116 14.9904C6.98768 14.7143 7.33662 14.5916 7.66511 14.7833C7.90797 14.9239 8.06263 15.2154 8.27352 15.4595Z" fill="black"/>
<path d="M35.9333 4.09143C38.4207 4.09143 40.908 4.14767 43.3927 4.07225C45.2486 4.01601 45.8686 4.82766 45.7407 6.46244C45.719 6.74747 45.7407 7.03634 45.7407 7.32265C45.7088 8.29022 45.0365 8.98427 44.0651 8.98427C38.6456 8.99364 33.2266 8.99364 27.808 8.98427C26.8161 8.98427 26.1528 8.27872 26.1361 7.27535C26.1298 6.87656 26.1361 6.47777 26.1361 6.08026C26.1361 4.68194 26.7164 4.09398 28.0981 4.09398L35.9333 4.09143ZM27.7888 7.32776H44.0714V5.76072H27.7888V7.32776Z" fill="black"/>
<path d="M42.4647 17.9737C43.1132 17.9737 43.7351 18.2313 44.1937 18.6898C44.6522 19.1484 44.9098 19.7703 44.9098 20.4188C44.9098 21.0673 44.6522 21.6892 44.1937 22.1478C43.7351 22.6063 43.1132 22.8639 42.4647 22.8639C41.8162 22.8639 41.1943 22.6063 40.7357 22.1478C40.2771 21.6892 40.0195 21.0673 40.0195 20.4188C40.0195 19.7703 40.2771 19.1484 40.7357 18.6898C41.1943 18.2313 41.8162 17.9737 42.4647 17.9737ZM43.2699 20.429C43.2743 20.3217 43.2567 20.2146 43.2182 20.1144C43.1797 20.0141 43.1212 19.9228 43.0461 19.8459C42.9711 19.7691 42.8812 19.7084 42.7818 19.6676C42.6825 19.6267 42.5759 19.6066 42.4685 19.6084C42.252 19.6078 42.044 19.6929 41.8902 19.8453C41.7364 19.9977 41.6493 20.2048 41.6479 20.4214C41.6563 20.6294 41.7414 20.8271 41.8867 20.9762C42.0321 21.1253 42.2275 21.2154 42.4353 21.2292C42.5427 21.2317 42.6496 21.213 42.7497 21.1741C42.8499 21.1352 42.9414 21.0769 43.0189 21.0026C43.0965 20.9282 43.1586 20.8393 43.2017 20.7408C43.2447 20.6424 43.2679 20.5364 43.2699 20.429Z" fill="black"/>
<path d="M44.9035 13.8988C44.9005 14.5427 44.6439 15.1595 44.1893 15.6155C43.7347 16.0715 43.1188 16.33 42.475 16.335C42.1484 16.3433 41.8236 16.2862 41.5194 16.1672C41.2153 16.0481 40.938 15.8695 40.7038 15.6418C40.4697 15.4141 40.2834 15.1419 40.1559 14.8412C40.0284 14.5405 39.9623 14.2173 39.9614 13.8907C39.9606 13.5641 40.025 13.2406 40.1509 12.9392C40.2768 12.6378 40.4617 12.3646 40.6947 12.1357C40.9276 11.9068 41.204 11.7267 41.5075 11.6061C41.811 11.4855 42.1356 11.4267 42.4622 11.4332C42.7853 11.4315 43.1055 11.4943 43.4041 11.6179C43.7027 11.7415 43.9736 11.9234 44.2009 12.153C44.4283 12.3827 44.6075 12.6553 44.7282 12.9551C44.8488 13.2549 44.9084 13.5757 44.9035 13.8988V13.8988ZM43.2687 13.8771C43.2707 13.7697 43.2507 13.6631 43.2099 13.5637C43.1691 13.4644 43.1084 13.3745 43.0315 13.2995C42.9547 13.2245 42.8632 13.1661 42.7629 13.1278C42.6625 13.0895 42.5554 13.0722 42.4481 13.077C42.2397 13.0805 42.0407 13.1638 41.892 13.3099C41.7433 13.4559 41.6564 13.6535 41.6493 13.8618C41.6488 14.0784 41.7331 14.2866 41.884 14.4421C42.0349 14.5975 42.2405 14.6879 42.4571 14.6939C42.5642 14.6944 42.6704 14.6736 42.7695 14.6326C42.8685 14.5917 42.9584 14.5315 43.0339 14.4555C43.1095 14.3795 43.1691 14.2892 43.2094 14.1899C43.2497 14.0906 43.2699 13.9843 43.2687 13.8771Z" fill="black"/>
<path d="M44.1112 44.0918C44.1112 43.8055 44.0972 43.5179 44.1112 43.2316C44.1133 43.0296 44.1949 42.8365 44.3385 42.6943C44.4821 42.5521 44.6761 42.4724 44.8781 42.4724C45.3038 42.4558 45.6834 42.728 45.7115 43.16C45.753 43.7797 45.753 44.4014 45.7115 45.0211C45.6895 45.2223 45.591 45.4074 45.4364 45.538C45.2817 45.6686 45.0828 45.7348 44.8807 45.7228C44.6814 45.7104 44.4934 45.6256 44.3522 45.4844C44.211 45.3431 44.1262 45.1552 44.1138 44.9559C44.1119 44.9239 44.1119 44.8919 44.1138 44.86C44.1138 44.6044 44.1138 44.3487 44.1138 44.0931L44.1112 44.0918Z" fill="black"/>
<path d="M32.6507 44.0995C32.6507 44.3858 32.6647 44.6734 32.6507 44.9584C32.6225 45.4058 32.3516 45.6512 31.9272 45.7164C31.5438 45.7739 31.1169 45.508 31.0849 45.1054C31.0259 44.4249 31.0284 43.7404 31.0926 43.0603C31.136 42.6322 31.5029 42.4302 31.9426 42.4749C32.129 42.4808 32.3061 42.5581 32.4372 42.6909C32.5683 42.8236 32.6433 43.0016 32.6468 43.1882C32.6724 43.4885 32.6468 43.7927 32.6468 44.0957L32.6507 44.0995Z" fill="black"/>
<path d="M40.8478 44.0803C40.8478 43.794 40.8324 43.5064 40.8478 43.2214C40.8527 43.0284 40.9301 42.8444 41.0647 42.7061C41.1992 42.5677 41.381 42.4852 41.5738 42.4749C42.0173 42.4481 42.3726 42.6552 42.4123 43.0808C42.473 43.7612 42.4708 44.4458 42.4059 45.1259C42.3675 45.5349 42.0096 45.7279 41.5994 45.7215C41.4053 45.7169 41.2203 45.6388 41.0815 45.5032C40.9428 45.3675 40.8606 45.1842 40.8516 44.9904C40.8273 44.69 40.8516 44.3858 40.8516 44.0829L40.8478 44.0803Z" fill="black"/>
<path d="M35.9166 44.1123C35.9166 44.3986 35.9383 44.6874 35.9166 44.9712C35.9059 45.1725 35.8192 45.3622 35.674 45.5019C35.5288 45.6417 35.3359 45.7211 35.1344 45.724C34.9405 45.7331 34.7505 45.6684 34.6025 45.543C34.4545 45.4175 34.3595 45.2406 34.3368 45.0479C34.2927 44.4138 34.2927 43.7775 34.3368 43.1434C34.3675 42.7037 34.7471 42.4391 35.1765 42.4749C35.606 42.5107 35.877 42.7676 35.9166 43.206C35.937 43.5077 35.9166 43.8093 35.9166 44.1123Z" fill="black"/>
<path d="M37.5784 44.0778C37.5784 43.7915 37.558 43.5026 37.5784 43.2188C37.5835 43.017 37.6679 42.8253 37.8134 42.6853C37.9589 42.5453 38.1537 42.4684 38.3556 42.4711C38.7837 42.4622 39.1404 42.7267 39.1685 43.1767C39.2106 43.7954 39.2106 44.4163 39.1685 45.0351C39.1352 45.4722 38.8119 45.6998 38.3811 45.7202C38.1792 45.7248 37.9834 45.6504 37.8354 45.513C37.6874 45.3755 37.5989 45.1857 37.5887 44.984C37.5605 44.6849 37.5887 44.3794 37.5887 44.0778H37.5784Z" fill="black"/>
</g>
<defs>
<clipPath id="clip0_32_9">
<rect width="49" height="48.9898" fill="white"/>
</clipPath>
</defs>
</svg>
