<svg id="Capa_1" data-name="Capa 1" xmlns="http://www.w3.org/2000/svg" viewBox="0 0 371.33 371.14"><path d="M276,325.09c-2.74-5.5-5.46-10.95-8.16-16.41-10.86-22-1.15-45.38,21.95-53.63,3.39-1.21,6.31-3.88,9.27-6.11a63.46,63.46,0,0,1,25.55-11.85,59.76,59.76,0,0,1,36.59,3.7c6.17,2.66,12.33,5.39,18.36,8.34,19.86,9.73,30.29,30.22,26.64,52-.1.58-.2,1.17-.22,1.31h25.78c0-6.24-.81-12.62.17-18.71,2.07-12.71,9.86-21.39,21.33-27.05a91.73,91.73,0,0,0,13.72-8c11.33-8.3,23.85-12.95,37.9-12.83,5.05,0,10.45.34,15.08,2.12,11.23,4.31,22.76,8.48,33,14.65,19.29,11.65,26.66,36.35,18.48,57.46-1.93,5-4.15,9.85-6.41,15.18,6.2.74,11.3,3.2,14.7,8.43a18,18,0,0,1,2.67,12.16c-1,8.87-7.67,14.47-19,15.8-.94,3-1.73,6.12-2.89,9.1A58.24,58.24,0,0,1,537,399.58c-1.86,1.19-2.84,2.37-2.69,4.71.26,4.22-1.3,9.42.65,12.42s7.23,3.77,11.11,5.4q19.62,8.25,39.3,16.39c14.43,6,20.85,15.52,20.85,31.21q0,37.41,0,74.84c0,6.64-1.8,8.45-8.39,8.45H558.36v4q0,20.76,0,41.53c0,6.42-1.86,8.33-8.14,8.33H290.89c-6.07,0-8-1.95-8-8.09,0-15.09,0-30.17,0-45.8h-4.1c-12.1,0-24.2,0-36.3,0-5.38,0-7.49-2.1-7.49-7.46,0-26.07-.15-52.14.05-78.21.1-13.29,6.67-22.74,18.86-28,16.15-6.91,32.4-13.54,48.61-20.3,1.38-.57,2.74-1.18,4.33-1.86,0-4.72.07-9.45-.07-14.17a3.77,3.77,0,0,0-1.47-2.64c-14.4-9.15-23.35-22.13-27.18-38.61C265.05,359.53,259,354,258.63,344,258.29,334.4,264.16,327.92,276,325.09ZM594.29,540.87V469.75c0-10.74-3.5-16-13.39-20.1l-52.75-22c-5.07-2.12-5.73-3.12-5.73-8.73,0-6.24.2-12.48-.08-18.71-.19-4.3,1.61-6.67,5.15-9a75.7,75.7,0,0,0,14-11.6c5.86-6.35,9-14.26,10.27-22.86.88-6,2.55-7.31,8.66-7.33,1.37,0,2.75.08,4.11,0a5.94,5.94,0,0,0,0-11.88c-1.86-.14-3.74,0-5.61-.07-4.19-.15-6.3-2.34-6.55-6.54a23,23,0,0,1,2.18-11.95c2.15-4.34,4-8.85,5.73-13.39a36,36,0,0,0-17.47-45.16c-6.55-3.31-13.3-6.27-20.08-9.09A46.32,46.32,0,0,0,499.65,248a50.67,50.67,0,0,0-26.23,10.86c-4.6,3.6-9.28,6.84-14.95,8.91-8.76,3.2-13.62,10.21-15.22,19.32a25.18,25.18,0,0,0,4.62,19.16c1.81,2.55,5.53,3.81,8.5,5.45,2.4,1.31,5,2.22,7.45,3.46a47.43,47.43,0,0,1,24.4,28c4.08,12,3.33,23.78-1.7,35.35-1.8,4.14-3.55,8.29-5.47,12.8,2.3,0,3.92,0,5.53,0a18,18,0,0,1,.13,35.91c-2.47.06-4.94,0-7.34,0-4,16.84-12.93,29.68-27.13,38.87a3.8,3.8,0,0,0-1.6,2.56c-.15,4.59-.07,9.18-.07,13.78,1.22.38,2.17.69,3.12,1,27.59,7.69,55.21,15.26,82.75,23.12,12.51,3.58,19.59,12.33,21.62,25.07.48,3,.07,6.12.07,9.26ZM359.84,391.1c-3.18-6.4-6.28-12.34-9.12-18.41-8.87-19-.81-41.49,18.24-49.69a74.91,74.91,0,0,0,15-8.94c1.7-1.26,3.61-2.25,5.24-3.58a9.46,9.46,0,0,0,2.8-3.29,36.12,36.12,0,0,0-16.9-46.85C368.5,257,361.77,254,355,251.25a47.78,47.78,0,0,0-28.62-2.32c-9.85,2.08-17.75,7.59-25.47,13.6a21.6,21.6,0,0,1-6.36,3.74c-16.87,5.36-23.8,21.28-16,37.19,3,6,6.43,11.88,8.85,18.12,1.32,3.42,1.37,7.52,1.15,11.27-.17,2.82-2.64,4.4-5.6,4.54-2.11.1-4.25-.07-6.36.1a5.94,5.94,0,0,0-.11,11.85c1.73.17,3.49.05,5.23.07,4.92,0,6.88,1.53,7.61,6.34,2.49,16.3,11,28.32,25.43,36.18a7.15,7.15,0,0,1,4.09,6.94c-.07,6.61,0,13.23,0,19.84,0,5.88-.68,6.89-6.22,9.19q-26.39,11-52.77,21.94c-9.2,3.84-12.86,9.37-12.86,19.34q0,33.85,0,67.73V541h34.19a14.83,14.83,0,0,0,1.74-.22c0-1.46,0-2.8,0-4.14.06-15.28,8.53-26.52,23.11-30.57q27.72-7.69,55.45-15.32c9.7-2.69,19.38-5.44,29.22-8.2,0-4.19-.13-8.18.06-12.15a5.06,5.06,0,0,0-2.7-5.1,58.59,58.59,0,0,1-25.21-34.52c-.32-1.16-.72-2.3-1.06-3.34-17.67-1.29-24.87-6.53-25-18C336.7,398.27,344.06,392.27,359.84,391.1ZM331,594.75V547.22h11.9v47.41H498.61V547.27h12v47.44h35.46a8.16,8.16,0,0,0,.25-1.27c0-19.58.1-39.17-.05-58.75,0-8.06-5.4-14.54-13.54-16.82-27.82-7.79-55.67-15.47-83.48-23.3a4.53,4.53,0,0,0-5.17,1.47c-5.72,5.92-11.6,11.69-17.43,17.5-4.85,4.84-7.26,4.81-12.19-.12-5.74-5.73-11.55-11.4-17.16-17.24a4.83,4.83,0,0,0-5.5-1.55c-27.33,7.69-54.7,15.25-82,22.88-10.3,2.87-14.92,9-14.93,19.54q0,26.94,0,53.89v3.81Zm129.55-218c-26.74,19.64-53.18,19.55-79.49.2-5.8,8.9-9.78,18-8.37,28.81.45,3.44,0,7,.09,10.47.35,24,18.55,43.78,43.11,46.79,22.59,2.77,46-12.84,50.8-35.58,2.33-11,1.34-22.78,1.82-34.21a4.09,4.09,0,0,0-.61-1.74C465.49,386.65,463.09,381.87,460.51,376.7Zm-50.73-30.08c-12.19-18.81-31.52-17.73-41.11-9.61-11.78,10-12.89,24.63-1.64,40.29,2-4,3.89-7.9,5.88-11.73,2.4-4.58,5.95-5.43,10.14-2.42,3.54,2.54,6.91,5.34,10.54,7.76q18.82,12.51,40.69,6.41c9.16-2.56,16.25-8.49,23.65-14,4.54-3.35,8-2.49,10.59,2.54,1.8,3.51,3.54,7,5.43,10.8,10.14-18.36,3.57-40.8-14.51-50.23-5.73-3-11.71-5.51-17.61-8.18a49.57,49.57,0,0,0-28.81-4c-6.65,1.05-14,3.94-16.9,6.93a40.71,40.71,0,0,1,23.31,19ZM438.59,472.4a61.78,61.78,0,0,1-35.93.08c0,3.45-.09,6.31,0,9.16.06,1.3.11,3,.89,3.79,5.47,5.77,11.13,11.35,17,17.29,5.92-6,11.55-11.57,17.11-17.26a3.72,3.72,0,0,0,.83-2.33C438.64,479.77,438.59,476.42,438.59,472.4Zm-78.07-57.27V403.59c-8-.87-11.64.9-11.72,5.6S352.08,415.59,360.52,415.13ZM480.81,403.6v11.54c8.38.43,11.75-1.35,11.64-6S488.65,402.68,480.81,403.6Z" transform="translate(-234.94 -235.76)"/></svg>