<?xml version="1.0" encoding="utf-8"?>
<!-- Generator: Adobe Illustrator 25.4.1, SVG Export Plug-In . SVG Version: 6.00 Build 0)  -->
<svg version="1.1" id="Capa_1" xmlns="http://www.w3.org/2000/svg" xmlns:xlink="http://www.w3.org/1999/xlink" x="0px" y="0px"
	 viewBox="0 0 410.4 411.1" style="enable-background:new 0 0 410.4 411.1;" xml:space="preserve">
<style type="text/css">
	.st0{fill:#FEFEFE;}
</style>
<path class="st0" d="M160.6,233.3c0.9,1,1.9,1.9,2.8,2.9c3.7,3.7,7.2,7.5,11,11c3.6,3.3,7.3,6.5,11.2,9.6c4.5,3.5,9.2,6.9,14,10.1
	c3.4,2.3,6.9,4.3,10.5,6.2c4.5,2.3,9.1,4.5,13.7,6.6c3.6,1.7,7.5,2.9,11.5,3.4c2.9,0.4,5.7,0.6,8.6,0.4c7.6-0.5,14.8-3.1,21-7.4
	c4.1-2.9,7.4-6.7,9.8-11.1c2-3.8,3.6-7.7,5.5-11.5c2-4.3,4.8-8.1,8.2-11.3c2.9-2.7,6.3-4.9,10-6.3c2.8-1.1,5.7-2,8.6-2.7
	c3.5-0.8,7.1-1,10.6-0.4c2.5,0.4,5,0.9,7.4,1.5c3.3,0.9,6.5,2.3,9.4,4.2c3.1,2,5.9,4.4,8.4,7c4.8,4.9,9.8,9.6,14.7,14.5
	c8.2,8.1,16.3,16.2,24.5,24.3c4.6,4.6,9.1,9.1,13.6,13.8c2.9,3,5.9,6,8.1,9.7c2.4,4,4.1,8.4,5.1,13c0.7,3.9,1,7.8,0.6,11.7
	c-0.3,4.4-1.4,8.8-3.2,12.8c-1.9,4.4-4.5,8.5-7.9,11.9c-1.2,1.2-2.4,2.6-3.6,3.8c-11.3,11.2-22.5,22.5-33.7,33.7
	c-4.1,4.2-9,7.7-14.3,10.2c-4.2,2-8.7,3.4-13.2,4.2c-2.3,0.4-4.5,0.9-6.8,1.4c-0.3,0-0.7,0-1,0c-5.5,0-11,0.1-16.4-0.1
	c-2.4-0.2-4.7-0.6-7-1.2c-3.7-0.7-7.4-1.5-11-2.3c-4.2-1-8.4-1.9-12.5-3c-7.7-2.1-15.2-4.7-22.5-7.9c-4.4-1.8-8.8-3.8-13-5.9
	c-7.2-3.7-14.5-7.5-21.5-11.5c-7.6-4.4-15-9.1-22.4-13.7c-9-5.7-17.5-11.8-26-18.3c-4.4-3.3-8.7-6.7-13-10.2c-4-3.2-8-6.5-12-9.8
	c-2.2-1.9-4.4-3.8-6.5-5.8c-3.7-3.4-7.5-6.7-11.1-10.2c-7.8-7.5-15.6-15.1-23.3-22.8c-2.6-2.6-5.1-5.3-7.6-8
	c-3.8-4.1-7.6-8.3-11.3-12.5c-2.9-3.3-5.8-6.6-8.6-10c-4-4.8-7.8-9.7-11.7-14.6c-2-2.5-3.9-5-5.9-7.6c-0.1-0.2-0.2-0.4-0.3-0.6
	c0.4,0,0.8,0,1.2,0c18.3-0.2,36.5-0.3,54.8-0.5c5.9,0,11.8,0,17.7,0l4.6-0.2l18.8-0.2C159.6,233.4,160.1,233.4,160.6,233.3z"/>
<path d="M135.8,233.8c-5.9,0-11.8-0.1-17.7,0c-18.2,0.1-36.5,0.3-54.8,0.5c-0.4,0-0.8,0-1.2,0c-13.8-18.3-26-37.8-36.5-58.2
	c-5.2-10-9.8-20.3-13.8-30.8c-1.5-4.1-3-8.3-4.3-12.6c-1.1-3.6-2.1-7.3-2.9-11c-1.1-5-2-10-2.9-15c-0.5-3-0.8-5.9-0.9-8.9
	c-0.2-3.8-0.4-7.6-0.2-11.3c0.2-3,0.6-6,1.1-9c0.8-4.9,2.3-9.6,4.4-14.1c2.9-6.1,6.8-11.6,11.7-16.3c8.7-8.7,17.4-17.3,26-26
	c3.4-3.4,6.6-6.8,10.1-10.1c5.4-5.2,12.3-8.7,19.8-9.8c2.6-0.5,5.3-0.7,8-0.7c10.9,0.4,20.5,4.2,28.3,11.9
	c12.9,12.7,25.7,25.5,38.6,38.2c6.1,6.1,12.2,12.2,18.1,18.5c5.2,5.4,8.7,12.2,10.1,19.6c2.4,11.7-0.9,23.8-9,32.6
	c-4,4.3-8.9,7.5-14.4,9.6c-6.2,2.3-11.9,5.8-16.6,10.4c-5.3,5.3-8.9,12-10.4,19.3c-1,4.8-0.8,9.8,0.5,14.6
	c4.1,15.3,11.2,29.6,20.9,42.2c4.1,5.5,8.6,10.6,13,15.8c-0.5,0-0.9,0.1-1.4,0.1l-18.9,0.2l-4.4-0.1
	C135.9,233.5,135.8,233.7,135.8,233.8z"/>
</svg>
