<svg id="Capa_1" data-name="Capa 1" xmlns="http://www.w3.org/2000/svg" viewBox="0 0 400.27 398.35"><path d="M621,284.21c-1,3.73-1.44,7.81-3.27,11.11-3.18,5.74-6.47,11.75-11,16.34q-87.32,87.85-175.13,175.23a19.06,19.06,0,0,1-7.9,4.6c-26.76,7.62-53.58,15-80.4,22.44-10.26,2.83-16.57-3.4-13.76-13.61q11.07-40.23,22.39-80.41a18.93,18.93,0,0,1,4.57-7.93q87.58-87.87,175.4-175.51c19-18.94,46.2-18.79,65.24,0,3.34,3.3,6.63,6.64,10,9.94,7.13,7.09,11.81,15.46,13.32,25.49a5.79,5.79,0,0,0,.63,1.37ZM423.6,465.92c48.2-48.2,96.53-96.54,144.47-144.47L522,275.37,377.52,419.83ZM536.33,259.31l46.59,46.59c4-3.66,8.8-7.21,12.6-11.58a23.76,23.76,0,0,0,.16-30.53,131.11,131.11,0,0,0-16.3-16.18c-7.7-6.31-17-7.38-25.53-2.47C547.35,248.88,542,254.62,536.33,259.31ZM352.93,490.56l50.91-14.14L367,439.62C362.45,456.15,357.8,473,352.93,490.56Z" transform="translate(-220.76 -222.32)"/><path d="M410.32,620.59q-69,0-138,0c-23.21,0-41.78-12.76-48.76-33.81a54.62,54.62,0,0,1-2.68-16.84q-.26-129-.09-258c0-28.8,21.25-50.29,50.34-50.63,28.92-.34,57.85-.11,86.77-.06,6.67,0,11.23,4.22,11.19,10s-4.75,9.86-11.31,9.87c-28.53,0-57.06,0-85.6,0-15.41,0-26.71,8.53-30.47,23a38.6,38.6,0,0,0-1,9.67q-.07,127.22,0,254.44c0,16.18,8,27.39,22.37,31.32a37.29,37.29,0,0,0,9.65,1.17q137.78.09,275.55,0c19.27,0,32-12.82,32-32.22q.06-42.4,0-84.81c0-6.11,3.22-10.39,8.22-11.14,6.41-1,11.52,3.54,11.55,10.5.09,15.63,0,31.27,0,46.9,0,14.46.23,28.93-.18,43.38-.7,25.16-21.69,46.48-46.95,47-28.78.58-57.58.23-86.37.26Q438.46,620.62,410.32,620.59Z" transform="translate(-220.76 -222.32)"/></svg>