<svg width="49" height="49" viewBox="0 0 49 49" fill="none" xmlns="http://www.w3.org/2000/svg">
<g clip-path="url(#clip0_25_8)">
<path d="M0 45.1859V3.91618C0.031331 3.84432 0.05818 3.7706 0.0803913 3.69542C0.604844 1.4968 2.22159 0.192688 4.45594 0.192688C17.7914 0.192688 31.1282 0.192688 44.4662 0.192688C47.0374 0.192688 48.9017 2.04678 48.9017 4.61417C48.9068 17.9029 48.9068 31.1916 48.9017 44.4803C48.9031 44.8934 48.8521 45.305 48.7499 45.7053C48.2318 47.6831 46.55 48.9043 44.3744 48.9043H12.4299C9.72471 48.9043 7.01823 48.9132 4.31302 48.9043C3.40639 48.9065 2.52227 48.6221 1.78689 48.0918C1.05151 47.5615 0.502482 46.8125 0.218204 45.9515C0.133985 45.6963 0.0714583 45.4411 0 45.1859ZM2.86599 14.5431V44.285C2.86599 45.5062 3.39172 46.0383 4.5963 46.0383C17.8382 46.0383 31.0801 46.0383 44.322 46.0383C45.4998 46.0383 46.0383 45.4986 46.0383 44.3182C46.0383 34.5616 46.0383 24.805 46.0383 15.0484V14.538L2.86599 14.5431ZM46.0396 11.6375V11.1666C46.0396 9.01779 46.0396 6.86937 46.0396 4.72136C46.0396 3.60865 45.482 3.06251 44.3629 3.06251H4.55037C3.42872 3.06251 2.87365 3.61248 2.87237 4.72136C2.87237 6.87022 2.87237 9.01864 2.87237 11.1666C2.87237 11.3198 2.88641 11.4729 2.89406 11.6401L46.0396 11.6375Z" fill="black"/>
<path d="M20.2368 41.7406C19.1229 41.7406 18.4415 40.7198 18.8549 39.7168C19.475 38.22 20.1246 36.736 20.769 35.2507C22.9535 30.155 25.1403 25.0606 27.3291 19.9675C27.4539 19.6605 27.6407 19.3825 27.8778 19.1508C28.115 18.9454 28.4161 18.8286 28.7298 18.8205C29.0435 18.8123 29.3503 18.9133 29.5979 19.1062C29.8652 19.2989 30.0571 19.5786 30.1407 19.8973C30.2243 20.2161 30.1944 20.554 30.056 20.8531C29.4295 22.3486 28.78 23.8352 28.1419 25.3192C25.959 30.414 23.7766 35.5101 21.5946 40.6075C21.31 41.2595 20.9042 41.6985 20.2368 41.7406Z" fill="black"/>
<path d="M10.9929 30.2817C12.907 31.813 14.7547 33.2958 16.6075 34.7709C17.0924 35.1537 17.3731 35.6296 17.2583 36.2587C17.0643 37.3472 15.8304 37.79 14.9244 37.0945C13.8436 36.2575 12.7858 35.3897 11.719 34.5348C10.4519 33.5216 9.18223 32.5123 7.92022 31.494C7.02699 30.7781 7.02699 29.7841 7.90618 29.0695C10.2124 27.2167 12.5216 25.3686 14.8338 23.5251C15.5701 22.9356 16.4263 22.9853 16.9571 23.6323C17.488 24.2792 17.3706 25.1635 16.6203 25.7671C14.9104 27.1435 13.1984 28.5161 11.4842 29.8849C11.3349 30.001 11.1907 30.1197 10.9929 30.2817Z" fill="black"/>
<path d="M37.9084 30.2728L34.1033 27.2256C33.4831 26.728 32.8579 26.2354 32.2415 25.7339C31.5282 25.1521 31.4121 24.2818 31.9506 23.631C32.4738 22.9994 33.3262 22.9381 34.0382 23.5034C36.3648 25.3562 38.6872 27.2133 41.0054 29.0746C41.868 29.7675 41.8718 30.7794 41.0143 31.4697C38.697 33.3345 36.3742 35.192 34.0459 37.0422C33.316 37.6241 32.4431 37.5526 31.9263 36.8942C31.4095 36.2358 31.5435 35.3834 32.2709 34.7964C33.9952 33.4131 35.7209 32.032 37.4478 30.6531C37.583 30.5472 37.7157 30.4336 37.9084 30.2728Z" fill="black"/>
<path d="M37.3216 8.78811C35.9546 8.78811 34.5879 8.78811 33.2217 8.78811C32.2634 8.78811 31.6101 8.19347 31.6177 7.34235C31.6254 6.51165 32.2724 5.92467 33.2 5.92467C35.9656 5.92467 38.7304 5.92467 41.4943 5.92467C42.4233 5.92467 43.0689 6.51165 43.074 7.3449C43.0791 8.17816 42.4284 8.78556 41.4688 8.78811C40.0864 8.78981 38.704 8.78981 37.3216 8.78811Z" fill="black"/>
<path d="M7.27361 8.78555C6.98987 8.78934 6.71141 8.70874 6.47358 8.55397C6.23574 8.3992 6.04926 8.17724 5.93781 7.91629C5.82636 7.65533 5.79497 7.36714 5.84762 7.08831C5.90027 6.80948 6.03459 6.55258 6.23352 6.35023C6.43245 6.14789 6.68703 6.00921 6.96492 5.95183C7.24282 5.89444 7.5315 5.92092 7.79431 6.02792C8.05713 6.13491 8.28222 6.31759 8.44102 6.55275C8.59981 6.78792 8.68515 7.06497 8.68618 7.34873C8.68332 7.72474 8.53432 8.0849 8.2707 8.35304C8.00709 8.62118 7.64951 8.77629 7.27361 8.78555Z" fill="black"/>
<path d="M13.0082 5.92339C13.2918 5.92673 13.568 6.01424 13.8018 6.17482C14.0356 6.33539 14.2165 6.5618 14.3214 6.82531C14.4264 7.08882 14.4507 7.37757 14.3912 7.65492C14.3318 7.93226 14.1914 8.18572 13.9877 8.38311C13.784 8.58051 13.5263 8.71297 13.2472 8.76367C12.9681 8.81437 12.6803 8.78104 12.4202 8.6679C12.1601 8.55476 11.9395 8.36691 11.7863 8.12819C11.6331 7.88946 11.5543 7.61062 11.5598 7.32704C11.5708 6.9505 11.7283 6.59312 11.9988 6.33096C12.2693 6.0688 12.6315 5.92256 13.0082 5.92339V5.92339Z" fill="black"/>
<path d="M20.1525 7.35766C20.152 7.64137 20.0672 7.91853 19.9089 8.15395C19.7506 8.38938 19.5259 8.57247 19.2633 8.67997C19.0008 8.78748 18.7122 8.81456 18.4342 8.75778C18.1563 8.701 17.9014 8.56291 17.7021 8.36104C17.5027 8.15918 17.3678 7.90264 17.3146 7.62398C17.2613 7.34533 17.292 7.05712 17.4027 6.79594C17.5135 6.53475 17.6994 6.31238 17.9368 6.15703C18.1742 6.00168 18.4524 5.92036 18.7361 5.92339C19.1123 5.93134 19.4707 6.08556 19.7351 6.35333C19.9996 6.6211 20.1493 6.98135 20.1525 7.35766V7.35766Z" fill="black"/>
</g>
<defs>
<clipPath id="clip0_25_8">
<rect width="49" height="49" fill="white"/>
</clipPath>
</defs>
</svg>
