<?xml version="1.0" encoding="utf-8"?>
<!-- Generator: Adobe Illustrator 25.4.1, SVG Export Plug-In . SVG Version: 6.00 Build 0)  -->
<svg version="1.1" id="Capa_1" xmlns="http://www.w3.org/2000/svg" xmlns:xlink="http://www.w3.org/1999/xlink" x="0px" y="0px"
	 viewBox="0 0 409.6 408.9" style="enable-background:new 0 0 409.6 408.9;" xml:space="preserve">
<style type="text/css">
	.st0{fill:#FFFFFF;}
</style>
<path class="st0" d="M409.6,192.5v24c-0.3,2.9-0.7,5.8-1,8.6c-4.9,43.8-21.6,82.6-51.2,115.4c-31.6,35.1-70.7,57-117.4,65.2
	c-7.7,1.4-15.5,2.1-23.3,3.2h-22.4c-5.8-0.7-11.6-1.2-17.4-2c-28.8-3.9-56.5-14-81.1-29.6c-2.2-1.6-5.1-2-7.7-1.1
	c-23.4,7.6-46.8,15-70.3,22.5c-1.3,0.4-2.6,0.8-4.4,1.3c8.2-24.3,16.1-47.8,24.1-71.3c1.1-3.2,1-5.5-1.1-8.4
	c-17-24.1-28.4-51.7-33.3-80.7C1.7,231.2,1,222.6,0,214v-21.6c0.3-1.1,0.5-2.3,0.7-3.5C3,157.2,12,127.3,28.9,100.2
	C67.3,38.3,123.3,4.5,196.2,0.3c40.4-2.3,78.4,7.4,113,28.4c53.2,32.4,85.8,79.3,97.2,140.5C407.8,176.9,408.5,184.7,409.6,192.5z
	 M271.6,319.8l0.2-0.9c2.4,0,4.8-0.2,7.2-0.5c3.3-0.5,6.5-1.2,9.7-2.2c28.9-10.1,38.7-23.9,39.5-50.7c0.1-4-1.3-6.9-5-8.6
	c-15.4-7.3-30.7-14.8-46.1-22c-7.6-3.5-12.2-2-17.3,4.7c-4.1,5.4-8,10.9-12.2,16.3c-6.1,7.7-10.6,8.8-19.8,5
	c-34.3-14-59.6-38-78.5-69.3c-2.9-4.8-2.6-7.5,1.1-12c4-4.8,8.3-9.4,12.4-14.1c4.9-5.6,6.3-11.4,3-18.6c-7-15.3-13.2-31-20-46.5
	c-1-2.2-3.2-4.9-5.3-5.4c-10.8-2.6-22-3.2-30.9,4.1c-20,16.3-26.2,38.1-22.4,63c2,13.3,7.3,25.6,14.4,36.9
	c15.5,25.1,34.3,47.9,56,67.8c25.1,22.9,54.6,37.6,87,47C253.3,316.4,262.5,317.8,271.6,319.8L271.6,319.8z"/>
</svg>
