<svg id="Capa_1" data-name="Capa 1" xmlns="http://www.w3.org/2000/svg" viewBox="0 0 383.51 383.25"><path d="M229,433.23v-24c.57-4.68,1.06-9.38,1.74-14,6-41.8,23.58-78,53.28-108.06,36.48-36.86,80.9-56.1,132.76-57.45,36.12-.94,70.08,7.65,101,26.49,54.94,33.52,86.56,82.49,93.62,146.53a179.66,179.66,0,0,1-20.88,107C560.8,564.61,515.09,598.15,453.68,610c-6.94,1.33-14,2-21,2.94h-24a15.78,15.78,0,0,0-2.49-.59c-36.44-2.81-69.53-14.88-98.8-36.71-40.93-30.53-66.25-71-75.46-121.32C230.66,447.31,230,440.24,229,433.23Zm148.65,93.33a16.08,16.08,0,0,0,1-1.86q18.14-54.41,36.2-108.83a6.36,6.36,0,0,0-.14-3.88c-8.28-23-16.67-45.89-24.94-68.85-.77-2.14-1.9-2.75-4.06-2.87-5.1-.29-10.19-.83-15.27-1.43-4.06-.47-6.23-3.12-6.13-7.11s2.74-6.87,6.74-7c1.87-.07,3.74.13,5.61.23,12.09.62,24.17,1.83,36.25,1.73,16.21-.12,32.4-1.26,48.6-1.95,5.63-.24,8.72,2.08,9,6.65.23,4.37-2.54,7.09-7.83,7.6-5.94.58-11.87,1.11-18.19,1.7,20.66,61.34,41.26,122.47,62.14,184.43.59-1.33.83-1.73,1-2.16,8.51-28.39,17.1-56.76,25.49-85.18,4.46-15.09,5.49-30.36,1.48-45.78-3.33-12.85-10.11-24-16.64-35.37-4.14-7.18-8.12-14.7-10.53-22.57-4.58-15,1.88-30.44,14.72-36.78,4.21-2.08,9.09-2.82,14.07-4.29-45.37-38.37-97.17-52.56-155.49-39.2-44,10.08-78.11,35.07-104.15,73,2.41,0,3.66,0,4.89,0l50.85-2c5.59-.22,8.74,2.12,9,6.64.24,4.32-2.6,7.1-7.86,7.61-5.95.58-11.9,1.11-18.22,1.69Zm46.47-89-.86.05q-25.61,74.35-51.27,149c35.75,10.19,70.7,9.21,105.57-2.6C459.67,534.89,441.9,486.21,424.12,437.52ZM345.36,576,263.3,351.32C225.64,435.9,262,535.67,345.36,576Zm162.33-6.87c41.82-24.87,69.15-60.56,80.5-107.68,10.17-42.18,4.67-82.67-15.58-121,1.68,23.56-.25,41.82-8,64.46-16.49,48-33.25,96-49.9,144Q511.18,559,507.69,569.13Z" transform="translate(-229 -229.64)"/></svg>